<?xml version="1.0" encoding="UTF-8"?>
<svg id="a" data-name="Camada 1" xmlns="http://www.w3.org/2000/svg" viewBox="0 0 1577.85 1674.31">
  <defs>
    <style>
      .b {
        fill: none;
        stroke: #1d1d1b;
        stroke-miterlimit: 10;
      }
    </style>
  </defs>
  <polygon class="b" points="1577.35 1616.93 1514.83 1616.93 1514.83 1631.11 1466.48 1631.11 1466.48 1616.93 1418.13 1616.93 1418.13 1631.11 1369.78 1631.11 1369.78 1616.93 1321.44 1616.93 1321.44 1631.11 1273.09 1631.11 1273.09 1616.93 1224.74 1616.93 1224.74 1631.11 1176.39 1631.11 1176.39 1616.93 1128.04 1616.93 1128.04 1631.11 1065.52 1631.11 1065.52 1601.61 1051.35 1601.61 1051.35 1586.3 1065.52 1586.3 1065.52 1537.04 1113.42 1489.14 1123.44 1499.16 1167.2 1455.41 1157.18 1445.39 1200.93 1401.63 1210.95 1411.66 1254.7 1367.9 1244.68 1357.88 1288.43 1314.13 1298.46 1324.15 1342.21 1280.4 1332.19 1270.37 1375.94 1226.62 1385.96 1236.64 1429.71 1192.89 1419.69 1182.87 1463.45 1139.12 1473.47 1149.14 1517.22 1105.39 1532.54 1105.39 1532.54 1091.21 1547.86 1091.21 1547.86 1105.39 1563.18 1105.39 1563.18 1153.73 1577.35 1153.73 1577.35 1202.08 1563.18 1202.08 1563.18 1250.43 1577.35 1250.43 1577.35 1298.78 1563.18 1298.78 1563.18 1347.13 1577.35 1347.13 1577.35 1395.48 1563.18 1395.48 1563.18 1443.83 1577.35 1443.83 1577.35 1492.18 1563.18 1492.18 1563.18 1540.52 1577.35 1540.52 1577.35 1616.93"/>
  <g>
    <polygon class="b" points="907.59 1157.95 907.59 1219.83 921.76 1219.83 921.76 1281.7 907.59 1281.7 907.59 1343.58 921.76 1343.58 921.76 1405.46 907.59 1405.46 907.59 1467.33 921.76 1467.33 921.76 1529.21 907.59 1529.21 907.59 1591.08 921.76 1591.08 921.76 1673.81 806.96 1673.81 806.96 1642.94 720.5 1642.94 720.5 1673.81 634.04 1673.81 634.04 1642.94 547.59 1642.94 547.59 1673.81 461.13 1673.81 461.13 1642.94 374.67 1642.94 374.67 1673.81 288.22 1673.81 288.22 1642.94 201.76 1642.94 201.76 1673.81 115.3 1673.81 115.3 1642.94 .5 1642.94 .5 1591.08 14.67 1591.08 14.67 1529.21 .5 1529.21 .5 1467.33 14.67 1467.33 14.67 1405.46 .5 1405.46 .5 1343.58 14.67 1343.58 14.67 1281.7 .5 1281.7 .5 1219.83 14.67 1219.83 14.67 1157.95 .5 1157.95 .5 1096.08 14.67 1096.08 14.67 1029.48 115.3 1029.48 115.3 997.15 201.76 997.15 201.76 1029.48 288.22 1029.48 288.22 997.15 374.67 997.15 374.67 1029.48 461.13 1029.48 461.13 997.15 547.59 997.15 547.59 1028.33 634.04 1028.33 634.04 997.15 720.5 997.15 720.5 1028.33 806.96 1028.33 806.96 997.15 907.59 997.15 907.59 1096.08 921.76 1096.08 921.76 1157.95 907.59 1157.95"/>
    <polygon class="b" points="140.89 1564.42 778.68 1564.42 780.03 1153.46 142.23 1153.46 140.89 1564.42"/>
    <line class="b" x1="140.89" y1="1564.42" x2="778.68" y2="1564.42"/>
    <line class="b" x1="142.23" y1="1153.46" x2="140.89" y2="1564.42"/>
    <line class="b" x1="780.03" y1="1153.46" x2="142.23" y2="1153.46"/>
    <line class="b" x1="778.68" y1="1564.42" x2="780.03" y2="1153.46"/>
    <line class="b" x1="907.59" y1="1157.95" x2="907.59" y2="1219.83"/>
    <line class="b" x1="907.59" y1="1281.7" x2="907.59" y2="1343.58"/>
    <line class="b" x1="907.59" y1="1405.46" x2="907.59" y2="1467.33"/>
    <line class="b" x1="907.59" y1="1529.21" x2="907.59" y2="1591.08"/>
    <line class="b" x1="921.76" y1="1591.08" x2="921.76" y2="1673.81"/>
    <line class="b" x1="907.59" y1="1591.08" x2="921.76" y2="1591.08"/>
    <line class="b" x1="921.76" y1="1467.33" x2="921.76" y2="1529.21"/>
    <line class="b" x1="907.59" y1="1529.21" x2="921.76" y2="1529.21"/>
    <line class="b" x1="907.59" y1="1467.33" x2="921.76" y2="1467.33"/>
    <line class="b" x1="921.76" y1="1343.58" x2="921.76" y2="1405.46"/>
    <line class="b" x1="907.59" y1="1405.46" x2="921.76" y2="1405.46"/>
    <line class="b" x1="907.59" y1="1343.58" x2="921.76" y2="1343.58"/>
    <line class="b" x1="921.76" y1="1219.83" x2="921.76" y2="1281.7"/>
    <line class="b" x1="907.59" y1="1281.7" x2="921.76" y2="1281.7"/>
    <line class="b" x1="907.59" y1="1219.83" x2="921.76" y2="1219.83"/>
    <line class="b" x1="921.76" y1="1096.08" x2="921.76" y2="1157.95"/>
    <line class="b" x1="907.59" y1="1157.95" x2="921.76" y2="1157.95"/>
    <line class="b" x1="907.59" y1="1096.08" x2="921.76" y2="1096.08"/>
    <line class="b" x1="806.96" y1="1642.94" x2="720.5" y2="1642.94"/>
    <line class="b" x1="634.04" y1="1642.94" x2="547.59" y2="1642.94"/>
    <line class="b" x1="461.13" y1="1642.94" x2="374.67" y2="1642.94"/>
    <line class="b" x1="288.22" y1="1642.94" x2="201.76" y2="1642.94"/>
    <line class="b" x1="115.3" y1="1642.94" x2=".5" y2="1642.94"/>
    <line class="b" x1="201.76" y1="1642.94" x2="201.76" y2="1673.81"/>
    <line class="b" x1="115.3" y1="1642.94" x2="115.3" y2="1673.81"/>
    <line class="b" x1="288.22" y1="1642.94" x2="288.22" y2="1673.81"/>
    <line class="b" x1="374.67" y1="1642.94" x2="374.67" y2="1673.81"/>
    <line class="b" x1="461.13" y1="1642.94" x2="461.13" y2="1673.81"/>
    <line class="b" x1="547.59" y1="1642.94" x2="547.59" y2="1673.81"/>
    <line class="b" x1="634.04" y1="1642.94" x2="634.04" y2="1673.81"/>
    <line class="b" x1="720.5" y1="1642.94" x2="720.5" y2="1673.81"/>
    <line class="b" x1="806.96" y1="1642.94" x2="806.96" y2="1673.81"/>
    <line class="b" x1="14.67" y1="1591.08" x2="14.67" y2="1529.21"/>
    <line class="b" x1="14.67" y1="1591.08" x2=".5" y2="1591.08"/>
    <line class="b" x1=".5" y1="1642.94" x2=".5" y2="1591.08"/>
    <line class="b" x1="806.96" y1="997.15" x2="907.59" y2="997.15"/>
    <line class="b" x1="806.96" y1="997.15" x2="806.96" y2="1028.33"/>
    <line class="b" x1="720.5" y1="1028.33" x2="806.96" y2="1028.33"/>
    <line class="b" x1="720.5" y1="997.15" x2="720.5" y2="1028.33"/>
    <line class="b" x1="634.04" y1="997.15" x2="720.5" y2="997.15"/>
    <line class="b" x1="634.04" y1="997.15" x2="634.04" y2="1028.33"/>
    <line class="b" x1="547.59" y1="1028.33" x2="634.04" y2="1028.33"/>
    <line class="b" x1="547.59" y1="997.15" x2="547.59" y2="1028.33"/>
    <line class="b" x1="461.13" y1="997.15" x2="547.59" y2="997.15"/>
    <line class="b" x1="461.13" y1="997.15" x2="461.13" y2="1029.48"/>
    <line class="b" x1="374.67" y1="1029.48" x2="461.13" y2="1029.48"/>
    <line class="b" x1="374.67" y1="997.15" x2="374.67" y2="1029.48"/>
    <line class="b" x1="288.22" y1="997.15" x2="374.67" y2="997.15"/>
    <line class="b" x1="288.22" y1="997.15" x2="288.22" y2="1029.48"/>
    <line class="b" x1="201.76" y1="1029.48" x2="288.22" y2="1029.48"/>
    <line class="b" x1="201.76" y1="997.15" x2="201.76" y2="1029.48"/>
    <line class="b" x1="115.3" y1="997.15" x2="201.76" y2="997.15"/>
    <line class="b" x1="115.3" y1="997.15" x2="115.3" y2="1029.48"/>
    <line class="b" x1="14.67" y1="1029.48" x2="115.3" y2="1029.48"/>
    <line class="b" x1="14.67" y1="1096.08" x2="14.67" y2="1029.48"/>
    <line class="b" x1="14.67" y1="1096.08" x2=".5" y2="1096.08"/>
    <line class="b" x1=".5" y1="1157.95" x2=".5" y2="1096.08"/>
    <line class="b" x1="14.67" y1="1157.95" x2=".5" y2="1157.95"/>
    <line class="b" x1="14.67" y1="1219.83" x2="14.67" y2="1157.95"/>
    <line class="b" x1="14.67" y1="1219.83" x2=".5" y2="1219.83"/>
    <line class="b" x1=".5" y1="1281.7" x2=".5" y2="1219.83"/>
    <line class="b" x1="14.67" y1="1281.7" x2=".5" y2="1281.7"/>
    <line class="b" x1="14.67" y1="1343.58" x2="14.67" y2="1281.7"/>
    <line class="b" x1="14.67" y1="1343.58" x2=".5" y2="1343.58"/>
    <line class="b" x1=".5" y1="1405.46" x2=".5" y2="1343.58"/>
    <line class="b" x1="14.67" y1="1405.46" x2=".5" y2="1405.46"/>
    <line class="b" x1="14.67" y1="1467.33" x2="14.67" y2="1405.46"/>
    <line class="b" x1="14.67" y1="1467.33" x2=".5" y2="1467.33"/>
    <line class="b" x1=".5" y1="1529.21" x2=".5" y2="1467.33"/>
    <line class="b" x1="14.67" y1="1529.21" x2=".5" y2="1529.21"/>
  </g>
  <g>
    <g>
      <polygon class="b" points="15.01 540.4 15.01 463.98 907.59 463.98 907.59 540.4 921.76 540.4 921.76 588.74 907.59 588.74 907.59 637.09 921.76 637.09 921.76 685.44 907.59 685.44 907.59 733.79 921.76 733.79 921.76 782.14 907.59 782.14 907.59 830.49 921.76 830.49 921.76 878.84 907.59 878.84 907.59 927.18 921.76 927.18 921.76 975.53 806.96 975.53 806.96 989.71 720.5 989.71 720.5 975.53 634.04 975.53 634.04 989.71 547.59 989.71 547.59 975.53 461.13 975.53 461.13 989.71 374.67 989.71 374.67 975.53 288.22 975.53 288.22 989.71 201.76 989.71 201.76 975.53 115.3 975.53 115.3 989.71 .84 989.71 .84 927.18 15.01 927.18 15.01 878.84 .84 878.84 .84 830.49 15.01 830.49 15.01 782.14 .84 782.14 .84 733.79 15.01 733.79 15.01 685.44 .84 685.44 .84 637.09 15.01 637.09 15.01 588.74 .84 588.74 .84 540.4 15.01 540.4"/>
      <rect class="b" x="305.22" y="881.05" width="14.17" height="47.24"/>
      <rect class="b" x="751.68" y="881.05" width="14.17" height="47.24"/>
      <line class="b" x1="15.01" y1="463.98" x2="15.01" y2="540.4"/>
      <line class="b" x1="907.59" y1="540.4" x2="907.59" y2="463.98"/>
      <line class="b" x1="806.96" y1="975.53" x2="921.76" y2="975.53"/>
      <line class="b" x1="907.59" y1="927.18" x2="907.59" y2="878.84"/>
      <line class="b" x1="907.59" y1="830.49" x2="907.59" y2="782.14"/>
      <line class="b" x1="907.59" y1="733.79" x2="907.59" y2="685.44"/>
      <line class="b" x1="907.59" y1="637.09" x2="907.59" y2="588.74"/>
      <line class="b" x1="921.76" y1="588.74" x2="921.76" y2="540.4"/>
      <line class="b" x1="907.59" y1="540.4" x2="921.76" y2="540.4"/>
      <line class="b" x1="907.59" y1="588.74" x2="921.76" y2="588.74"/>
      <line class="b" x1="921.76" y1="685.44" x2="921.76" y2="637.09"/>
      <line class="b" x1="907.59" y1="637.09" x2="921.76" y2="637.09"/>
      <line class="b" x1="907.59" y1="685.44" x2="921.76" y2="685.44"/>
      <line class="b" x1="921.76" y1="782.14" x2="921.76" y2="733.79"/>
      <line class="b" x1="907.59" y1="733.79" x2="921.76" y2="733.79"/>
      <line class="b" x1="907.59" y1="782.14" x2="921.76" y2="782.14"/>
      <line class="b" x1="921.76" y1="878.84" x2="921.76" y2="830.49"/>
      <line class="b" x1="907.59" y1="830.49" x2="921.76" y2="830.49"/>
      <line class="b" x1="907.59" y1="878.84" x2="921.76" y2="878.84"/>
      <line class="b" x1="921.76" y1="975.53" x2="921.76" y2="927.18"/>
      <line class="b" x1="907.59" y1="927.18" x2="921.76" y2="927.18"/>
      <line class="b" x1="15.01" y1="878.84" x2="15.01" y2="927.18"/>
      <line class="b" x1="15.01" y1="782.14" x2="15.01" y2="830.49"/>
      <line class="b" x1="15.01" y1="685.44" x2="15.01" y2="733.79"/>
      <line class="b" x1="15.01" y1="588.74" x2="15.01" y2="637.09"/>
      <line class="b" x1=".84" y1="927.18" x2=".84" y2="989.71"/>
      <line class="b" x1="15.01" y1="927.18" x2=".84" y2="927.18"/>
      <line class="b" x1=".84" y1="830.49" x2=".84" y2="878.84"/>
      <line class="b" x1="15.01" y1="878.84" x2=".84" y2="878.84"/>
      <line class="b" x1="15.01" y1="830.49" x2=".84" y2="830.49"/>
      <line class="b" x1=".84" y1="733.79" x2=".84" y2="782.14"/>
      <line class="b" x1="15.01" y1="782.14" x2=".84" y2="782.14"/>
      <line class="b" x1="15.01" y1="733.79" x2=".84" y2="733.79"/>
      <line class="b" x1=".84" y1="637.09" x2=".84" y2="685.44"/>
      <line class="b" x1="15.01" y1="685.44" x2=".84" y2="685.44"/>
      <line class="b" x1="15.01" y1="637.09" x2=".84" y2="637.09"/>
      <line class="b" x1=".84" y1="540.4" x2=".84" y2="588.74"/>
      <line class="b" x1="15.01" y1="588.74" x2=".84" y2="588.74"/>
      <line class="b" x1="15.01" y1="540.4" x2=".84" y2="540.4"/>
      <line class="b" x1="115.3" y1="975.53" x2="201.76" y2="975.53"/>
      <line class="b" x1="288.22" y1="975.53" x2="374.67" y2="975.53"/>
      <line class="b" x1="461.13" y1="975.53" x2="547.59" y2="975.53"/>
      <line class="b" x1="634.04" y1="975.53" x2="720.5" y2="975.53"/>
      <line class="b" x1=".84" y1="989.71" x2="115.3" y2="989.71"/>
      <line class="b" x1="115.3" y1="975.53" x2="115.3" y2="989.71"/>
      <line class="b" x1="201.76" y1="989.71" x2="288.22" y2="989.71"/>
      <line class="b" x1="201.76" y1="975.53" x2="201.76" y2="989.71"/>
      <line class="b" x1="288.22" y1="975.53" x2="288.22" y2="989.71"/>
      <line class="b" x1="374.67" y1="989.71" x2="461.13" y2="989.71"/>
      <line class="b" x1="374.67" y1="975.53" x2="374.67" y2="989.71"/>
      <line class="b" x1="461.13" y1="975.53" x2="461.13" y2="989.71"/>
      <line class="b" x1="547.59" y1="989.71" x2="634.04" y2="989.71"/>
      <line class="b" x1="547.59" y1="975.53" x2="547.59" y2="989.71"/>
      <line class="b" x1="634.04" y1="975.53" x2="634.04" y2="989.71"/>
      <line class="b" x1="720.5" y1="989.71" x2="806.96" y2="989.71"/>
      <line class="b" x1="720.5" y1="975.53" x2="720.5" y2="989.71"/>
      <line class="b" x1="806.96" y1="975.53" x2="806.96" y2="989.71"/>
      <line class="b" x1="305.22" y1="881.05" x2="305.22" y2="928.29"/>
      <line class="b" x1="751.68" y1="881.05" x2="751.68" y2="928.29"/>
      <line class="b" x1="765.85" y1="928.29" x2="765.85" y2="881.05"/>
      <line class="b" x1="319.4" y1="928.29" x2="319.4" y2="881.05"/>
      <line class="b" x1="305.22" y1="928.29" x2="319.4" y2="928.29"/>
      <line class="b" x1="305.22" y1="881.05" x2="319.4" y2="881.05"/>
      <line class="b" x1="751.68" y1="928.29" x2="765.85" y2="928.29"/>
      <line class="b" x1="751.68" y1="881.05" x2="765.85" y2="881.05"/>
    </g>
    <line class="b" x1="15.01" y1="463.98" x2="907.59" y2="463.98"/>
    <g>
      <path class="b" d="M922.1,270.59v48.35h-14.17v48.35h14.17v48.35h-14.17v48.35c.06,0-892.84,0-892.91,0v-48.35H.84v-48.35h14.17v-48.35H.84v-48.35h14.17v-48.35H.84v-48.35h14.17v-48.35H.84v-48.35h14.17V14.67H.84V.5h114.8v14.17h86.46V.5h86.46v14.17h86.46V.5h86.46v14.17h86.46V.5h86.46v14.17h86.46V.5h86.46v14.17h100.63v62.52h14.17v48.35h-14.17v48.35h14.17v48.35h-14.17v48.35h14.17Z"/>
      <line class="b" x1="922.1" y1="270.59" x2="922.1" y2="318.94"/>
      <line class="b" x1=".84" y1="125.54" x2=".84" y2="77.19"/>
      <line class="b" x1="15.01" y1="125.54" x2=".84" y2="125.54"/>
      <line class="b" x1=".84" y1="222.24" x2=".84" y2="173.89"/>
      <line class="b" x1="15.01" y1="222.24" x2=".84" y2="222.24"/>
      <line class="b" x1=".84" y1="318.94" x2=".84" y2="270.59"/>
      <line class="b" x1=".84" y1="415.64" x2=".84" y2="367.29"/>
      <line class="b" x1="907.93" y1="14.67" x2="907.93" y2="77.19"/>
      <line class="b" x1="907.93" y1="318.94" x2="907.93" y2="367.29"/>
      <line class="b" x1="907.93" y1="415.64" x2="907.93" y2="463.98"/>
      <line class="b" x1="907.93" y1="222.24" x2="907.93" y2="270.59"/>
      <line class="b" x1="907.93" y1="125.54" x2="907.93" y2="173.89"/>
      <line class="b" x1="907.93" y1="125.54" x2="922.1" y2="125.54"/>
      <line class="b" x1="922.1" y1="77.19" x2="922.1" y2="125.54"/>
      <line class="b" x1="907.93" y1="77.19" x2="922.1" y2="77.19"/>
      <line class="b" x1="907.93" y1="222.24" x2="922.1" y2="222.24"/>
      <line class="b" x1="922.1" y1="173.89" x2="922.1" y2="222.24"/>
      <line class="b" x1="907.93" y1="173.89" x2="922.1" y2="173.89"/>
      <line class="b" x1="907.93" y1="270.59" x2="922.1" y2="270.59"/>
      <line class="b" x1="907.93" y1="318.94" x2="922.1" y2="318.94"/>
      <line class="b" x1="907.93" y1="415.64" x2="922.1" y2="415.64"/>
      <line class="b" x1="922.1" y1="367.29" x2="922.1" y2="415.64"/>
      <line class="b" x1="907.93" y1="367.29" x2="922.1" y2="367.29"/>
      <line class="b" x1="115.64" y1="14.67" x2="202.1" y2="14.67"/>
      <line class="b" x1="288.56" y1="14.67" x2="375.01" y2="14.67"/>
      <line class="b" x1="461.47" y1="14.67" x2="547.93" y2="14.67"/>
      <line class="b" x1="634.38" y1="14.67" x2="720.84" y2="14.67"/>
      <line class="b" x1="807.3" y1="14.67" x2="807.3" y2=".5"/>
      <line class="b" x1="720.84" y1=".5" x2="807.3" y2=".5"/>
      <line class="b" x1="720.84" y1="14.67" x2="720.84" y2=".5"/>
      <line class="b" x1="634.38" y1="14.67" x2="634.38" y2=".5"/>
      <line class="b" x1="547.93" y1=".5" x2="634.38" y2=".5"/>
      <line class="b" x1="547.93" y1="14.67" x2="547.93" y2=".5"/>
      <line class="b" x1="461.47" y1="14.67" x2="461.47" y2=".5"/>
      <line class="b" x1="375.01" y1=".5" x2="461.47" y2=".5"/>
      <line class="b" x1="375.01" y1="14.67" x2="375.01" y2=".5"/>
      <line class="b" x1="288.56" y1="14.67" x2="288.56" y2=".5"/>
      <line class="b" x1="202.1" y1=".5" x2="288.56" y2=".5"/>
      <line class="b" x1="202.1" y1="14.67" x2="202.1" y2=".5"/>
      <line class="b" x1="115.64" y1="14.67" x2="115.64" y2=".5"/>
      <line class="b" x1=".84" y1="14.67" x2=".84" y2=".5"/>
      <line class="b" x1="15.01" y1="14.67" x2=".84" y2="14.67"/>
      <line class="b" x1="15.01" y1="77.19" x2="15.01" y2="14.67"/>
      <line class="b" x1="15.01" y1="367.29" x2="15.01" y2="318.94"/>
      <line class="b" x1="15.01" y1="463.98" x2="15.01" y2="415.64"/>
      <line class="b" x1="15.01" y1="173.89" x2="15.01" y2="125.54"/>
      <line class="b" x1="15.01" y1="270.59" x2="15.01" y2="222.24"/>
      <line class="b" x1="15.01" y1="77.19" x2=".84" y2="77.19"/>
      <line class="b" x1="15.01" y1="173.89" x2=".84" y2="173.89"/>
      <line class="b" x1="15.01" y1="318.94" x2=".84" y2="318.94"/>
      <line class="b" x1="15.01" y1="270.59" x2=".84" y2="270.59"/>
      <line class="b" x1="15.01" y1="415.64" x2=".84" y2="415.64"/>
      <line class="b" x1="15.01" y1="367.29" x2=".84" y2="367.29"/>
      <line class="b" x1="807.3" y1="14.67" x2="907.93" y2="14.67"/>
      <line class="b" x1=".84" y1=".5" x2="115.64" y2=".5"/>
    </g>
  </g>
  <g>
    <polygon class="b" points="971.17 1011.32 1033.69 1011.32 1033.69 997.15 1082.04 997.15 1082.04 1011.32 1130.39 1011.32 1130.39 997.15 1178.74 997.15 1178.74 1011.32 1227.09 1011.32 1227.09 997.15 1275.43 997.15 1275.43 1011.32 1323.78 1011.32 1323.78 997.15 1372.13 997.15 1372.13 1011.32 1420.48 1011.32 1420.48 997.15 1483 997.15 1483 1026.64 1497.18 1026.64 1497.18 1041.96 1483 1041.96 1483 1091.21 1435.1 1139.12 1425.08 1129.09 1381.32 1172.85 1391.35 1182.87 1347.59 1226.62 1337.57 1216.6 1293.82 1260.35 1303.84 1270.37 1260.09 1314.13 1250.07 1304.11 1206.31 1347.86 1216.33 1357.88 1172.58 1401.63 1162.56 1391.61 1118.81 1435.36 1128.83 1445.39 1085.08 1489.14 1075.05 1479.12 1031.3 1522.87 1015.98 1522.87 1015.98 1537.04 1000.66 1537.04 1000.66 1522.87 985.34 1522.87 985.34 1474.52 971.17 1474.52 971.17 1426.17 985.34 1426.17 985.34 1377.82 971.17 1377.82 971.17 1329.48 985.34 1329.48 985.34 1281.13 971.17 1281.13 971.17 1232.78 985.34 1232.78 985.34 1184.43 971.17 1184.43 971.17 1136.08 985.34 1136.08 985.34 1087.73 971.17 1087.73 971.17 1011.32"/>
    <line class="b" x1="971.17" y1="1011.32" x2="1033.69" y2="1011.32"/>
    <line class="b" x1="985.34" y1="1522.87" x2="985.34" y2="1474.52"/>
    <line class="b" x1="1031.3" y1="1522.87" x2="1015.98" y2="1522.87"/>
    <line class="b" x1="1425.08" y1="1129.09" x2="1381.32" y2="1172.85"/>
    <line class="b" x1="1337.57" y1="1216.6" x2="1293.82" y2="1260.35"/>
    <line class="b" x1="1250.07" y1="1304.11" x2="1206.31" y2="1347.86"/>
    <line class="b" x1="1162.56" y1="1391.61" x2="1118.81" y2="1435.36"/>
    <line class="b" x1="1075.05" y1="1479.12" x2="1031.3" y2="1522.87"/>
    <line class="b" x1="1435.1" y1="1139.12" x2="1483" y2="1091.21"/>
    <line class="b" x1="1425.08" y1="1129.09" x2="1435.1" y2="1139.12"/>
    <line class="b" x1="1391.35" y1="1182.87" x2="1347.59" y2="1226.62"/>
    <line class="b" x1="1337.57" y1="1216.6" x2="1347.59" y2="1226.62"/>
    <line class="b" x1="1381.32" y1="1172.85" x2="1391.35" y2="1182.87"/>
    <line class="b" x1="1303.84" y1="1270.37" x2="1260.09" y2="1314.13"/>
    <line class="b" x1="1250.07" y1="1304.11" x2="1260.09" y2="1314.13"/>
    <line class="b" x1="1293.82" y1="1260.35" x2="1303.84" y2="1270.37"/>
    <line class="b" x1="1216.33" y1="1357.88" x2="1172.58" y2="1401.63"/>
    <line class="b" x1="1162.56" y1="1391.61" x2="1172.58" y2="1401.63"/>
    <line class="b" x1="1206.31" y1="1347.86" x2="1216.33" y2="1357.88"/>
    <line class="b" x1="1483" y1="1091.21" x2="1483" y2="1041.96"/>
    <line class="b" x1="1483" y1="1041.96" x2="1497.18" y2="1041.96"/>
    <line class="b" x1="1497.18" y1="1041.96" x2="1497.18" y2="1026.64"/>
    <line class="b" x1="1483" y1="1026.64" x2="1497.18" y2="1026.64"/>
    <line class="b" x1="1483" y1="1026.64" x2="1483" y2="997.15"/>
    <line class="b" x1="1420.48" y1="997.15" x2="1483" y2="997.15"/>
    <line class="b" x1="1420.48" y1="1011.32" x2="1420.48" y2="997.15"/>
    <line class="b" x1="1372.13" y1="1011.32" x2="1420.48" y2="1011.32"/>
    <line class="b" x1="1372.13" y1="1011.32" x2="1372.13" y2="997.15"/>
    <line class="b" x1="1323.78" y1="997.15" x2="1372.13" y2="997.15"/>
    <line class="b" x1="1323.78" y1="1011.32" x2="1323.78" y2="997.15"/>
    <line class="b" x1="1275.43" y1="1011.32" x2="1323.78" y2="1011.32"/>
    <line class="b" x1="1275.43" y1="1011.32" x2="1275.43" y2="997.15"/>
    <line class="b" x1="1227.09" y1="997.15" x2="1275.43" y2="997.15"/>
    <line class="b" x1="1227.09" y1="1011.32" x2="1227.09" y2="997.15"/>
    <line class="b" x1="1178.74" y1="1011.32" x2="1227.09" y2="1011.32"/>
    <line class="b" x1="1178.74" y1="1011.32" x2="1178.74" y2="997.15"/>
    <line class="b" x1="1130.39" y1="997.15" x2="1178.74" y2="997.15"/>
    <line class="b" x1="1130.39" y1="1011.32" x2="1130.39" y2="997.15"/>
    <line class="b" x1="1082.04" y1="1011.32" x2="1130.39" y2="1011.32"/>
    <line class="b" x1="1082.04" y1="1011.32" x2="1082.04" y2="997.15"/>
    <line class="b" x1="1033.69" y1="997.15" x2="1082.04" y2="997.15"/>
    <line class="b" x1="1033.69" y1="1011.32" x2="1033.69" y2="997.15"/>
    <line class="b" x1="971.17" y1="1087.73" x2="971.17" y2="1011.32"/>
    <line class="b" x1="985.34" y1="1087.73" x2="971.17" y2="1087.73"/>
    <line class="b" x1="985.34" y1="1136.08" x2="985.34" y2="1087.73"/>
    <line class="b" x1="985.34" y1="1136.08" x2="971.17" y2="1136.08"/>
    <line class="b" x1="971.17" y1="1184.43" x2="971.17" y2="1136.08"/>
    <line class="b" x1="985.34" y1="1184.43" x2="971.17" y2="1184.43"/>
    <line class="b" x1="985.34" y1="1232.78" x2="985.34" y2="1184.43"/>
    <line class="b" x1="985.34" y1="1232.78" x2="971.17" y2="1232.78"/>
    <line class="b" x1="971.17" y1="1281.13" x2="971.17" y2="1232.78"/>
    <line class="b" x1="985.34" y1="1281.13" x2="971.17" y2="1281.13"/>
    <line class="b" x1="985.34" y1="1329.48" x2="985.34" y2="1281.13"/>
    <line class="b" x1="985.34" y1="1329.48" x2="971.17" y2="1329.48"/>
    <line class="b" x1="971.17" y1="1377.82" x2="971.17" y2="1329.48"/>
    <line class="b" x1="985.34" y1="1377.82" x2="971.17" y2="1377.82"/>
    <line class="b" x1="985.34" y1="1426.17" x2="985.34" y2="1377.82"/>
    <line class="b" x1="985.34" y1="1426.17" x2="971.17" y2="1426.17"/>
    <line class="b" x1="971.17" y1="1474.52" x2="971.17" y2="1426.17"/>
    <line class="b" x1="985.34" y1="1474.52" x2="971.17" y2="1474.52"/>
    <line class="b" x1="1000.66" y1="1522.87" x2="985.34" y2="1522.87"/>
    <line class="b" x1="1000.66" y1="1522.87" x2="1000.66" y2="1537.04"/>
    <line class="b" x1="1015.98" y1="1537.04" x2="1000.66" y2="1537.04"/>
    <line class="b" x1="1015.98" y1="1522.87" x2="1015.98" y2="1537.04"/>
    <line class="b" x1="1075.05" y1="1479.12" x2="1085.08" y2="1489.14"/>
    <line class="b" x1="1128.83" y1="1445.39" x2="1085.08" y2="1489.14"/>
    <line class="b" x1="1118.81" y1="1435.36" x2="1128.83" y2="1445.39"/>
  </g>
  <g>
    <polygon class="b" points="1045.01 6.17 1045.01 120.97 1059.18 120.97 1059.18 207.43 1045.01 207.43 1045.01 293.89 1059.18 293.89 1059.18 380.34 1045.01 380.34 1045.01 466.8 1059.18 466.8 1059.18 553.26 1045.01 553.26 1045.01 639.71 1059.18 639.71 1059.18 726.17 1045.01 726.17 1045.01 812.63 1059.18 812.63 1059.18 927.43 1029.69 927.43 1029.69 913.26 1014.37 913.26 1014.37 812.63 984.88 812.63 984.88 726.17 1014.37 726.17 1014.37 639.71 984.88 639.71 984.88 553.26 1014.37 553.26 1014.37 466.8 984.88 466.8 984.88 380.34 1014.37 380.34 1014.37 293.89 984.88 293.89 984.88 207.43 1014.37 207.43 1014.37 120.97 984.88 120.97 984.88 6.17 1014.37 6.17 1014.37 20.34 1029.69 20.34 1029.69 6.17 1045.01 6.17"/>
    <line class="b" x1="1045.01" y1="6.17" x2="1045.01" y2="120.97"/>
    <line class="b" x1="1014.37" y1="913.26" x2="1029.69" y2="913.26"/>
    <line class="b" x1="1029.69" y1="927.43" x2="1059.18" y2="927.43"/>
    <line class="b" x1="1029.69" y1="913.26" x2="1029.69" y2="927.43"/>
    <line class="b" x1="1029.69" y1="20.34" x2="1014.37" y2="20.34"/>
    <line class="b" x1="1014.37" y1="6.17" x2="984.88" y2="6.17"/>
    <line class="b" x1="1014.37" y1="20.34" x2="1014.37" y2="6.17"/>
    <line class="b" x1="1045.01" y1="6.17" x2="1029.69" y2="6.17"/>
    <line class="b" x1="1029.69" y1="20.34" x2="1029.69" y2="6.17"/>
    <line class="b" x1="1014.37" y1="120.97" x2="1014.37" y2="207.43"/>
    <line class="b" x1="1014.37" y1="293.89" x2="1014.37" y2="380.34"/>
    <line class="b" x1="1014.37" y1="466.8" x2="1014.37" y2="553.26"/>
    <line class="b" x1="1014.37" y1="639.71" x2="1014.37" y2="726.17"/>
    <line class="b" x1="1014.37" y1="812.63" x2="1014.37" y2="913.26"/>
    <line class="b" x1="984.88" y1="6.17" x2="984.88" y2="120.97"/>
    <line class="b" x1="1014.37" y1="120.97" x2="984.88" y2="120.97"/>
    <line class="b" x1="984.88" y1="207.43" x2="984.88" y2="293.89"/>
    <line class="b" x1="1014.37" y1="293.89" x2="984.88" y2="293.89"/>
    <line class="b" x1="1014.37" y1="207.43" x2="984.88" y2="207.43"/>
    <line class="b" x1="984.88" y1="380.34" x2="984.88" y2="466.8"/>
    <line class="b" x1="1014.37" y1="466.8" x2="984.88" y2="466.8"/>
    <line class="b" x1="1014.37" y1="380.34" x2="984.88" y2="380.34"/>
    <line class="b" x1="984.88" y1="553.26" x2="984.88" y2="639.71"/>
    <line class="b" x1="1014.37" y1="639.71" x2="984.88" y2="639.71"/>
    <line class="b" x1="1014.37" y1="553.26" x2="984.88" y2="553.26"/>
    <line class="b" x1="984.88" y1="726.17" x2="984.88" y2="812.63"/>
    <line class="b" x1="1014.37" y1="812.63" x2="984.88" y2="812.63"/>
    <line class="b" x1="1014.37" y1="726.17" x2="984.88" y2="726.17"/>
    <line class="b" x1="1045.01" y1="726.17" x2="1045.01" y2="812.63"/>
    <line class="b" x1="1045.01" y1="553.26" x2="1045.01" y2="639.71"/>
    <line class="b" x1="1045.01" y1="380.34" x2="1045.01" y2="466.8"/>
    <line class="b" x1="1045.01" y1="207.43" x2="1045.01" y2="293.89"/>
    <line class="b" x1="1059.18" y1="120.97" x2="1059.18" y2="207.43"/>
    <line class="b" x1="1045.01" y1="120.97" x2="1059.18" y2="120.97"/>
    <line class="b" x1="1045.01" y1="207.43" x2="1059.18" y2="207.43"/>
    <line class="b" x1="1059.18" y1="293.89" x2="1059.18" y2="380.34"/>
    <line class="b" x1="1045.01" y1="293.89" x2="1059.18" y2="293.89"/>
    <line class="b" x1="1045.01" y1="380.34" x2="1059.18" y2="380.34"/>
    <line class="b" x1="1059.18" y1="466.8" x2="1059.18" y2="553.26"/>
    <line class="b" x1="1045.01" y1="466.8" x2="1059.18" y2="466.8"/>
    <line class="b" x1="1045.01" y1="553.26" x2="1059.18" y2="553.26"/>
    <line class="b" x1="1059.18" y1="639.71" x2="1059.18" y2="726.17"/>
    <line class="b" x1="1045.01" y1="639.71" x2="1059.18" y2="639.71"/>
    <line class="b" x1="1045.01" y1="726.17" x2="1059.18" y2="726.17"/>
    <line class="b" x1="1059.18" y1="812.63" x2="1059.18" y2="927.43"/>
    <line class="b" x1="1045.01" y1="812.63" x2="1059.18" y2="812.63"/>
  </g>
  <g>
    <polygon class="b" points="1168.23 6.17 1168.23 120.97 1182.4 120.97 1182.4 207.43 1168.23 207.43 1168.23 293.89 1182.4 293.89 1182.4 380.34 1168.23 380.34 1168.23 466.8 1182.4 466.8 1182.4 553.26 1168.23 553.26 1168.23 639.71 1182.4 639.71 1182.4 726.17 1168.23 726.17 1168.23 812.63 1182.4 812.63 1182.4 927.43 1152.91 927.43 1152.91 913.26 1137.59 913.26 1137.59 927.43 1122.27 927.43 1122.27 812.63 1088.34 812.63 1088.34 726.17 1122.27 726.17 1122.27 639.71 1088.34 639.71 1088.34 553.26 1122.27 553.26 1122.27 466.8 1087.53 466.8 1087.53 380.34 1122.27 380.34 1122.27 293.89 1087.53 293.89 1087.53 207.43 1122.27 207.43 1122.27 120.97 1087.53 120.97 1087.53 6.17 1137.59 6.17 1137.59 20.34 1152.91 20.34 1152.91 6.17 1168.23 6.17"/>
    <line class="b" x1="1168.23" y1="6.17" x2="1168.23" y2="120.97"/>
    <line class="b" x1="1122.27" y1="812.63" x2="1122.27" y2="927.43"/>
    <line class="b" x1="1137.59" y1="913.26" x2="1152.91" y2="913.26"/>
    <line class="b" x1="1122.27" y1="927.43" x2="1137.59" y2="927.43"/>
    <line class="b" x1="1137.59" y1="913.26" x2="1137.59" y2="927.43"/>
    <line class="b" x1="1152.91" y1="927.43" x2="1182.4" y2="927.43"/>
    <line class="b" x1="1152.91" y1="913.26" x2="1152.91" y2="927.43"/>
    <line class="b" x1="1152.91" y1="20.34" x2="1137.59" y2="20.34"/>
    <line class="b" x1="1137.59" y1="6.17" x2="1087.53" y2="6.17"/>
    <line class="b" x1="1137.59" y1="20.34" x2="1137.59" y2="6.17"/>
    <line class="b" x1="1168.23" y1="6.17" x2="1152.91" y2="6.17"/>
    <line class="b" x1="1152.91" y1="20.34" x2="1152.91" y2="6.17"/>
    <line class="b" x1="1122.27" y1="120.97" x2="1122.27" y2="207.43"/>
    <line class="b" x1="1122.27" y1="293.89" x2="1122.27" y2="380.34"/>
    <line class="b" x1="1122.27" y1="466.8" x2="1122.27" y2="553.26"/>
    <line class="b" x1="1122.27" y1="639.71" x2="1122.27" y2="726.17"/>
    <line class="b" x1="1087.53" y1="6.17" x2="1087.53" y2="120.97"/>
    <line class="b" x1="1122.27" y1="120.97" x2="1087.53" y2="120.97"/>
    <line class="b" x1="1087.53" y1="207.43" x2="1087.53" y2="293.89"/>
    <line class="b" x1="1122.27" y1="293.89" x2="1087.53" y2="293.89"/>
    <line class="b" x1="1122.27" y1="207.43" x2="1087.53" y2="207.43"/>
    <line class="b" x1="1087.53" y1="380.34" x2="1087.53" y2="466.8"/>
    <line class="b" x1="1122.27" y1="466.8" x2="1087.53" y2="466.8"/>
    <line class="b" x1="1122.27" y1="380.34" x2="1087.53" y2="380.34"/>
    <line class="b" x1="1088.34" y1="553.26" x2="1088.34" y2="639.71"/>
    <line class="b" x1="1122.27" y1="639.71" x2="1088.34" y2="639.71"/>
    <line class="b" x1="1122.27" y1="553.26" x2="1088.34" y2="553.26"/>
    <line class="b" x1="1088.34" y1="726.17" x2="1088.34" y2="812.63"/>
    <line class="b" x1="1122.27" y1="812.63" x2="1088.34" y2="812.63"/>
    <line class="b" x1="1122.27" y1="726.17" x2="1088.34" y2="726.17"/>
    <line class="b" x1="1168.23" y1="726.17" x2="1168.23" y2="812.63"/>
    <line class="b" x1="1168.23" y1="553.26" x2="1168.23" y2="639.71"/>
    <line class="b" x1="1168.23" y1="380.34" x2="1168.23" y2="466.8"/>
    <line class="b" x1="1168.23" y1="207.43" x2="1168.23" y2="293.89"/>
    <line class="b" x1="1182.4" y1="120.97" x2="1182.4" y2="207.43"/>
    <line class="b" x1="1168.23" y1="120.97" x2="1182.4" y2="120.97"/>
    <line class="b" x1="1168.23" y1="207.43" x2="1182.4" y2="207.43"/>
    <line class="b" x1="1182.4" y1="293.89" x2="1182.4" y2="380.34"/>
    <line class="b" x1="1168.23" y1="293.89" x2="1182.4" y2="293.89"/>
    <line class="b" x1="1168.23" y1="380.34" x2="1182.4" y2="380.34"/>
    <line class="b" x1="1182.4" y1="466.8" x2="1182.4" y2="553.26"/>
    <line class="b" x1="1168.23" y1="466.8" x2="1182.4" y2="466.8"/>
    <line class="b" x1="1168.23" y1="553.26" x2="1182.4" y2="553.26"/>
    <line class="b" x1="1182.4" y1="639.71" x2="1182.4" y2="726.17"/>
    <line class="b" x1="1168.23" y1="639.71" x2="1182.4" y2="639.71"/>
    <line class="b" x1="1168.23" y1="726.17" x2="1182.4" y2="726.17"/>
    <line class="b" x1="1182.4" y1="812.63" x2="1182.4" y2="927.43"/>
    <line class="b" x1="1168.23" y1="812.63" x2="1182.4" y2="812.63"/>
  </g>
  <g>
    <polygon class="b" points="1327.31 982.97 1281.35 982.97 1281.35 935.73 1267.17 935.73 1267.17 888.49 1281.35 888.49 1281.35 577.66 1476.92 577.66 1476.92 773.23 1338.76 911.39 1368.82 941.46 1327.31 982.97"/>
    <line class="b" x1="1281.35" y1="982.97" x2="1327.31" y2="982.97"/>
    <line class="b" x1="1327.31" y1="982.97" x2="1368.82" y2="941.46"/>
    <line class="b" x1="1368.82" y1="941.46" x2="1338.76" y2="911.39"/>
    <line class="b" x1="1338.76" y1="911.39" x2="1476.92" y2="773.23"/>
    <line class="b" x1="1281.35" y1="982.97" x2="1281.35" y2="935.73"/>
    <line class="b" x1="1267.17" y1="935.73" x2="1267.17" y2="888.49"/>
    <line class="b" x1="1281.35" y1="935.73" x2="1267.17" y2="935.73"/>
    <line class="b" x1="1281.35" y1="888.49" x2="1267.17" y2="888.49"/>
    <line class="b" x1="1281.35" y1="888.49" x2="1281.35" y2="577.66"/>
    <line class="b" x1="1281.35" y1="577.66" x2="1476.92" y2="577.66"/>
    <line class="b" x1="1476.92" y1="577.66" x2="1476.92" y2="773.23"/>
  </g>
  <g>
    <polygon class="b" points="1375.27 447.46 1329.31 447.46 1329.31 400.22 1315.14 400.22 1315.14 352.98 1329.31 352.98 1329.31 305.73 1414.35 305.73 1414.35 348.25 1386.72 375.88 1416.79 405.95 1375.27 447.46"/>
    <line class="b" x1="1329.31" y1="447.46" x2="1375.27" y2="447.46"/>
  </g>
  <g>
    <polygon class="b" points="1416.79 405.95 1462.75 405.95 1462.75 453.19 1476.92 453.19 1476.92 500.44 1462.75 500.44 1462.75 547.68 1377.71 547.68 1377.71 505.16 1405.33 477.53 1375.27 447.46 1416.79 405.95"/>
    <line class="b" x1="1462.75" y1="405.95" x2="1416.79" y2="405.95"/>
    <line class="b" x1="1375.27" y1="447.46" x2="1405.33" y2="477.53"/>
    <line class="b" x1="1405.33" y1="477.53" x2="1377.71" y2="505.16"/>
    <line class="b" x1="1462.75" y1="405.95" x2="1462.75" y2="453.19"/>
    <line class="b" x1="1377.71" y1="547.68" x2="1377.71" y2="505.16"/>
    <line class="b" x1="1462.75" y1="547.68" x2="1377.71" y2="547.68"/>
    <line class="b" x1="1462.75" y1="500.44" x2="1476.92" y2="500.44"/>
    <line class="b" x1="1476.92" y1="453.19" x2="1476.92" y2="500.44"/>
    <line class="b" x1="1462.75" y1="453.19" x2="1476.92" y2="453.19"/>
    <line class="b" x1="1375.27" y1="447.46" x2="1416.79" y2="405.95"/>
  </g>
</svg>