  0
SECTION
  2
HEADER
  9
$ACADVER
  1
AC1009
  9
$DWGCODEPAGE
  3
ansi_1252
  9
$INSBASE
 10
0.0
 20
0.0
 30
0.0
  9
$EXTMIN
 10
1.000000000000000E+20
 20
1.000000000000000E+20
 30
1.000000000000000E+20
  9
$EXTMAX
 10
-1.000000000000000E+20
 20
-1.000000000000000E+20
 30
-1.000000000000000E+20
  9
$LIMMIN
 10
0.0
 20
0.0
  9
$LIMMAX
 10
12.0
 20
9.0
  9
$ORTHOMODE
 70
     0
  9
$REGENMODE
 70
     1
  9
$FILLMODE
 70
     1
  9
$QTEXTMODE
 70
     0
  9
$MIRRTEXT
 70
     1
  9
$DRAGMODE
 70
     2
  9
$LTSCALE
 40
1.0
  9
$OSMODE
 70
    37
  9
$ATTMODE
 70
     1
  9
$TEXTSIZE
 40
0.2
  9
$TRACEWID
 40
0.05
  9
$TEXTSTYLE
  7
STANDARD
  9
$CLAYER
  8
0
  9
$CELTYPE
  6
BYLAYER
  9
$CECOLOR
 62
   256
  9
$DIMSCALE
 40
1.0
  9
$DIMASZ
 40
0.18
  9
$DIMEXO
 40
0.0625
  9
$DIMDLI
 40
0.38
  9
$DIMRND
 40
0.0
  9
$DIMDLE
 40
0.0
  9
$DIMEXE
 40
0.18
  9
$DIMTP
 40
0.0
  9
$DIMTM
 40
0.0
  9
$DIMTXT
 40
0.18
  9
$DIMCEN
 40
0.09
  9
$DIMTSZ
 40
0.0
  9
$DIMTOL
 70
     0
  9
$DIMLIM
 70
     0
  9
$DIMTIH
 70
     1
  9
$DIMTOH
 70
     1
  9
$DIMSE1
 70
     0
  9
$DIMSE2
 70
     0
  9
$DIMTAD
 70
     0
  9
$DIMZIN
 70
     0
  9
$DIMBLK
  1

  9
$DIMASO
 70
     1
  9
$DIMSHO
 70
     1
  9
$DIMPOST
  1

  9
$DIMAPOST
  1

  9
$DIMALT
 70
     0
  9
$DIMALTD
 70
     2
  9
$DIMALTF
 40
25.4
  9
$DIMLFAC
 40
1.0
  9
$DIMTOFL
 70
     0
  9
$DIMTVP
 40
0.0
  9
$DIMTIX
 70
     0
  9
$DIMSOXD
 70
     0
  9
$DIMSAH
 70
     0
  9
$DIMBLK1
  1

  9
$DIMBLK2
  1

  9
$DIMSTYLE
  2
STANDARD
  9
$DIMCLRD
 70
     0
  9
$DIMCLRE
 70
     0
  9
$DIMCLRT
 70
     0
  9
$DIMTFAC
 40
1.0
  9
$DIMGAP
 40
0.09
  9
$LUNITS
 70
     2
  9
$LUPREC
 70
     4
  9
$SKETCHINC
 40
0.1
  9
$FILLETRAD
 40
0.0
  9
$AUNITS
 70
     0
  9
$AUPREC
 70
     0
  9
$MENU
  1
.
  9
$ELEVATION
 40
0.0
  9
$PELEVATION
 40
0.0
  9
$THICKNESS
 40
0.0
  9
$LIMCHECK
 70
     0
  9
$CHAMFERA
 40
0.0
  9
$CHAMFERB
 40
0.0
  9
$SKPOLY
 70
     0
  9
$TDCREATE
 40
2461154.697344815
  9
$TDUPDATE
 40
2461154.697344931
  9
$TDINDWG
 40
0.0000000116
  9
$TDUSRTIMER
 40
0.0000000116
  9
$USRTIMER
 70
     1
  9
$ANGBASE
 50
0.0
  9
$ANGDIR
 70
     0
  9
$PDMODE
 70
     0
  9
$PDSIZE
 40
0.0
  9
$PLINEWID
 40
0.0
  9
$COORDS
 70
     1
  9
$SPLFRAME
 70
     0
  9
$SPLINETYPE
 70
     6
  9
$SPLINESEGS
 70
     8
  9
$ATTDIA
 70
     0
  9
$ATTREQ
 70
     1
  9
$HANDLING
 70
     1
  9
$HANDSEED
  5
413
  9
$SURFTAB1
 70
     6
  9
$SURFTAB2
 70
     6
  9
$SURFTYPE
 70
     6
  9
$SURFU
 70
     6
  9
$SURFV
 70
     6
  9
$UCSNAME
  2

  9
$UCSORG
 10
0.0
 20
0.0
 30
0.0
  9
$UCSXDIR
 10
1.0
 20
0.0
 30
0.0
  9
$UCSYDIR
 10
0.0
 20
1.0
 30
0.0
  9
$PUCSNAME
  2

  9
$PUCSORG
 10
0.0
 20
0.0
 30
0.0
  9
$PUCSXDIR
 10
1.0
 20
0.0
 30
0.0
  9
$PUCSYDIR
 10
0.0
 20
1.0
 30
0.0
  9
$USERI1
 70
     0
  9
$USERI2
 70
     0
  9
$USERI3
 70
     0
  9
$USERI4
 70
     0
  9
$USERI5
 70
     0
  9
$USERR1
 40
0.0
  9
$USERR2
 40
0.0
  9
$USERR3
 40
0.0
  9
$USERR4
 40
0.0
  9
$USERR5
 40
0.0
  9
$WORLDVIEW
 70
     1
  9
$SHADEDGE
 70
     3
  9
$SHADEDIF
 70
    70
  9
$TILEMODE
 70
     1
  9
$MAXACTVP
 70
    64
  9
$PLIMCHECK
 70
     0
  9
$PEXTMIN
 10
1.000000000000000E+20
 20
1.000000000000000E+20
 30
1.000000000000000E+20
  9
$PEXTMAX
 10
-1.000000000000000E+20
 20
-1.000000000000000E+20
 30
-1.000000000000000E+20
  9
$PLIMMIN
 10
0.0
 20
0.0
  9
$PLIMMAX
 10
12.0
 20
9.0
  9
$UNITMODE
 70
     0
  9
$VISRETAIN
 70
     1
  9
$PLINEGEN
 70
     0
  9
$PSLTSCALE
 70
     1
  0
ENDSEC
  0
SECTION
  2
TABLES
  0
TABLE
  2
VPORT
 70
     1
  0
VPORT
  2
*ACTIVE
 70
     0
 10
0.0
 20
0.0
 11
1.0
 21
1.0
 12
0.0
 22
0.0
 13
0.0
 23
0.0
 14
0.5
 24
0.5
 15
0.5
 25
0.5
 16
0.0
 26
0.0
 36
1.0
 17
0.0
 27
0.0
 37
-1000.0
 40
73.47850256202051
 41
1.511425462459195
 42
50.0
 43
116.5220184055681
 44
165.0286412891537
 50
0.0
 51
0.0
 71
     0
 72
   100
 73
     1
 74
     3
 75
     0
 76
     0
 77
     0
 78
     0
  0
ENDTAB
  0
TABLE
  2
LTYPE
 70
     1
  0
LTYPE
  2
CONTINUOUS
 70
     0
  3
Solid line
 72
    65
 73
     0
 40
0.0
  0
ENDTAB
  0
TABLE
  2
LAYER
 70
     3
  0
LAYER
  2
0
 70
     0
 62
     7
  6
CONTINUOUS
  0
LAYER
  2
PROFILEEDGES
 70
     0
 62
     7
  6
CONTINUOUS
  0
LAYER
  2
SECTIONCUTEDGES
 70
     0
 62
     7
  6
CONTINUOUS
  0
ENDTAB
  0
TABLE
  2
STYLE
 70
     1
  0
STYLE
  2
STANDARD
 70
     0
 40
0.0
 41
1.0
 50
0.0
 71
     0
 42
0.2
  3
txt
  4

  0
ENDTAB
  0
TABLE
  2
VIEW
 70
     0
  0
ENDTAB
  0
TABLE
  2
UCS
 70
     0
  0
ENDTAB
  0
TABLE
  2
APPID
 70
     1
  0
APPID
  2
ACAD
 70
     0
  0
ENDTAB
  0
TABLE
  2
DIMSTYLE
 70
     1
  0
DIMSTYLE
  2
STANDARD
 70
     0
  3

  4

  5

  6

  7

 40
1.0
 41
0.18
 42
0.0625
 43
0.38
 44
0.18
 45
0.0
 46
0.0
 47
0.0
 48
0.0
140
0.18
141
0.09
142
0.0
143
25.4
144
1.0
145
0.0
146
1.0
147
0.09
 71
     0
 72
     0
 73
     1
 74
     1
 75
     0
 76
     0
 77
     0
 78
     0
170
     0
171
     2
172
     0
173
     0
174
     0
175
     0
176
     0
177
     0
178
     0
  0
ENDTAB
  0
ENDSEC
  0
SECTION
  2
BLOCKS
  0
BLOCK
  8
0
  2
$MODEL_SPACE
 70
     0
 10
0.0
 20
0.0
 30
0.0
  3
$MODEL_SPACE
  1

  0
ENDBLK
  5
21
  8
0
  0
BLOCK
 67
     1
  8
0
  2
$PAPER_SPACE
 70
     0
 10
0.0
 20
0.0
 30
0.0
  3
$PAPER_SPACE
  1

  0
ENDBLK
  5
1D
 67
     1
  8
0
  0
ENDSEC
  0
SECTION
  2
ENTITIES
  0
LINE
  5
60
  8
0
 10
21.45439410971145
 20
-6.083017642994625
 30
0.0
 11
23.37162430495265
 21
-6.083017639393909
 31
0.0
  0
LINE
  5
61
  8
0
 10
23.37162430495265
 20
-6.083017639393909
 30
0.0
 11
25.10358367821594
 21
-4.351058250380399
 31
0.0
  0
LINE
  5
62
  8
0
 10
25.10358367821594
 20
-4.351058250380399
 30
0.0
 11
23.84934066960092
 21
-3.096815233729234
 31
0.0
  0
LINE
  5
63
  8
0
 10
21.45439410971145
 20
-6.083017642994625
 30
0.0
 11
21.45439410971145
 21
-4.112164878156651
 31
0.0
  0
LINE
  5
64
  8
0
 10
21.45439410971145
 20
-2.141312113318678
 30
0.0
 11
21.34607984605465
 21
-2.13050152606506
 31
0.0
  0
LINE
  5
65
  8
0
 10
21.34607984605465
 20
-4.112164878294167
 30
0.0
 11
21.34607984605465
 21
-6.052307036826628
 31
0.0
  0
LINE
  5
66
  8
0
 10
21.45439410971145
 20
-6.083017642994625
 30
0.0
 11
21.34607984605465
 21
-6.052307036826628
 31
0.0
  0
LINE
  5
67
  8
0
 10
20.75780902321053
 20
-2.13050152645201
 30
0.0
 11
20.75780902321053
 21
-4.09140428218894
 31
0.0
  0
LINE
  5
68
  8
0
 10
20.86313828406853
 20
-4.112164878907308
 30
0.0
 11
20.75780902321053
 21
-4.09140428218894
 31
0.0
  0
LINE
  5
69
  8
0
 10
20.86313828406853
 20
-4.112164878907308
 30
0.0
 11
20.86313828406853
 21
-2.141312113709565
 31
0.0
  0
LINE
  5
6A
  8
0
 10
20.86313828406853
 20
-2.141312113709565
 30
0.0
 11
20.75780902321053
 21
-2.13050152645201
 31
0.0
  0
LINE
  5
6B
  8
0
 10
21.34607984605465
 20
-2.13050152606506
 30
0.0
 11
20.75780902321053
 21
-2.13050152645201
 31
0.0
  0
LINE
  5
6C
  8
0
 10
21.45439410971145
 20
-2.141312113318678
 30
0.0
 11
20.86313828406853
 21
-2.141312113709565
 31
0.0
  0
LINE
  5
6D
  8
0
 10
23.84934066960092
 20
-3.096815233729234
 30
0.0
 11
29.61291608079448
 21
2.666760225413839
 31
0.0
  0
LINE
  5
6E
  8
0
 10
21.34607984605465
 20
-2.13050152606506
 30
0.0
 11
21.34607984605465
 21
10.77062996538379
 31
0.0
  0
LINE
  5
6F
  8
0
 10
21.45439410971145
 20
-2.141312113318678
 30
0.0
 11
21.45439410971145
 21
10.82528227780539
 31
0.0
  0
LINE
  5
70
  8
0
 10
21.34607984605465
 20
10.77062996538379
 30
0.0
 11
21.45439410971145
 21
10.82528227780539
 31
0.0
  0
LINE
  5
71
  8
0
 10
21.45439410971145
 20
10.82528227780539
 30
0.0
 11
29.61291608079448
 21
10.82528225053784
 31
0.0
  0
LINE
  5
72
  8
0
 10
29.61291608079448
 20
10.82528225053784
 30
0.0
 11
29.61291608079448
 21
2.666760225413839
 31
0.0
  0
LINE
  5
73
  8
0
 10
26.49228684083918
 20
14.92655446077101
 30
0.0
 11
25.34551735988516
 21
13.77978500990141
 31
0.0
  0
LINE
  5
74
  8
0
 10
25.24437598698647
 20
16.17446536777551
 30
0.0
 11
26.49228684083918
 21
14.92655446077101
 31
0.0
  0
LINE
  5
75
  8
0
 10
29.02166060061448
 20
17.98849714129501
 30
0.0
 11
27.10443039331759
 21
17.98849718051435
 31
0.0
  0
LINE
  5
76
  8
0
 10
27.10443039331759
 20
17.98849718051435
 30
0.0
 11
25.3724709794503
 21
16.25653781339349
 31
0.0
  0
LINE
  5
77
  8
0
 10
25.3724709794503
 20
16.25653781339349
 30
0.0
 11
26.62671398045706
 21
15.00229475888384
 31
0.0
  0
LINE
  5
78
  8
0
 10
26.62671398045706
 20
15.00229475888384
 30
0.0
 11
25.4741255637333
 21
13.84970637237626
 31
0.0
  0
LINE
  5
79
  8
0
 10
25.24437598698647
 20
16.17446536777551
 30
0.0
 11
25.3724709794503
 21
16.25653781339349
 31
0.0
  0
LINE
  5
7A
  8
0
 10
26.49228684083918
 20
14.92655446077101
 30
0.0
 11
26.62671398045706
 21
15.00229475888384
 31
0.0
  0
LINE
  5
7B
  8
0
 10
25.4741255637333
 20
13.84970637237626
 30
0.0
 11
25.34551735988516
 21
13.77978500990141
 31
0.0
  0
LINE
  5
7C
  8
0
 10
29.02166060061448
 20
17.98849714129501
 30
0.0
 11
29.02166057124396
 21
16.01764436179268
 31
0.0
  0
LINE
  5
7D
  8
0
 10
25.47412553729982
 20
12.0759388688814
 30
0.0
 11
25.4741255637333
 21
13.84970637237626
 31
0.0
  0
LINE
  5
7E
  8
0
 10
29.02166051250291
 20
12.07593880278802
 30
0.0
 11
25.47412553729982
 21
12.0759388688814
 31
0.0
  0
LINE
  5
7F
  8
0
 10
28.87514229178046
 20
12.01497244937725
 30
0.0
 11
25.34551733358515
 21
12.01497251507051
 31
0.0
  0
LINE
  5
80
  8
0
 10
29.02166051250291
 20
12.07593880278802
 30
0.0
 11
28.87514229178046
 21
12.01497244937725
 31
0.0
  0
LINE
  5
81
  8
0
 10
25.47412553729982
 20
12.0759388688814
 30
0.0
 11
25.34551733358515
 21
12.01497251507051
 31
0.0
  0
LINE
  5
82
  8
0
 10
25.34551733358515
 20
12.01497251507051
 30
0.0
 11
25.34551735988516
 21
13.77978500990141
 31
0.0
  0
LINE
  5
83
  8
0
 10
29.61291639968896
 20
16.01764435005758
 30
0.0
 11
29.61291637031844
 21
14.04679157091501
 31
0.0
  0
LINE
  5
84
  8
0
 10
29.61291637031844
 20
14.04679157091501
 30
0.0
 11
29.46341314662068
 21
13.97587520796967
 31
0.0
  0
LINE
  5
85
  8
0
 10
29.0216605408166
 20
13.975875216459
 30
0.0
 11
29.46341314662068
 21
13.97587520796967
 31
0.0
  0
LINE
  5
86
  8
0
 10
29.02166057124396
 20
16.01764436179268
 30
0.0
 11
29.61291639968896
 21
16.01764435005758
 31
0.0
  0
LINE
  5
87
  8
0
 10
29.02166054187343
 20
14.04679158229035
 30
0.0
 11
29.61291637031844
 21
14.04679157091501
 31
0.0
  0
LINE
  5
88
  8
0
 10
23.33682506704655
 20
16.17446540572729
 30
0.0
 11
25.24437598698647
 21
16.17446536777551
 31
0.0
  0
LINE
  5
89
  8
0
 10
23.45524076783385
 20
16.25653785158642
 30
0.0
 11
25.3724709794503
 21
16.25653781339349
 31
0.0
  0
LINE
  5
8A
  8
0
 10
27.10443039331759
 20
17.98849718051435
 30
0.0
 11
25.85018739268039
 21
19.24274023599495
 31
0.0
  0
LINE
  5
8B
  8
0
 10
25.85018739268039
 20
19.24274023599495
 30
0.0
 11
27.00277580913614
 21
20.39532862044996
 31
0.0
  0
LINE
  5
8C
  8
0
 10
23.45524076783385
 20
16.25653785158642
 30
0.0
 11
23.45524079720373
 21
18.22739063447583
 31
0.0
  0
LINE
  5
8D
  8
0
 10
27.00277583556904
 20
22.16909612310768
 30
0.0
 11
27.00277580913614
 21
20.39532862044996
 31
0.0
  0
LINE
  5
8E
  8
0
 10
23.45524085594348
 20
22.16909620025466
 30
0.0
 11
27.00277583556904
 21
22.16909612310768
 31
0.0
  0
LINE
  5
8F
  8
0
 10
23.45524085594348
 20
22.16909620025466
 30
0.0
 11
23.33682515471136
 21
22.05717372547853
 31
0.0
  0
LINE
  5
90
  8
0
 10
23.33682515471136
 20
22.05717372547853
 30
0.0
 11
23.33682512700936
 21
20.19824341986834
 31
0.0
  0
LINE
  5
91
  8
0
 10
23.45524079720373
 20
18.22739063447583
 30
0.0
 11
23.33682509626815
 21
18.1353681789777
 31
0.0
  0
LINE
  5
92
  8
0
 10
23.33682509626815
 20
18.1353681789777
 30
0.0
 11
23.33682506704655
 21
16.17446540572729
 31
0.0
  0
LINE
  5
93
  8
0
 10
23.45524076783385
 20
16.25653785158642
 30
0.0
 11
23.33682506704655
 21
16.17446540572729
 31
0.0
  0
LINE
  5
94
  8
0
 10
22.74855429764631
 20
20.09627096464456
 30
0.0
 11
22.74855426842471
 21
18.135368191038
 31
0.0
  0
LINE
  5
95
  8
0
 10
22.86398496651062
 20
18.22739064661413
 30
0.0
 11
22.74855426842471
 21
18.135368191038
 31
0.0
  0
LINE
  5
96
  8
0
 10
22.86398496651062
 20
18.22739064661413
 30
0.0
 11
22.8639849958805
 21
20.19824342986331
 31
0.0
  0
LINE
  5
97
  8
0
 10
22.8639849958805
 20
20.19824342986331
 30
0.0
 11
22.74855429764631
 21
20.09627096464456
 31
0.0
  0
LINE
  5
98
  8
0
 10
23.33682509626815
 20
18.1353681789777
 30
0.0
 11
22.74855426842471
 21
18.135368191038
 31
0.0
  0
LINE
  5
99
  8
0
 10
23.45524079720373
 20
18.22739063447583
 30
0.0
 11
22.86398496651062
 21
18.22739064661413
 31
0.0
  0
LINE
  5
9A
  8
0
 10
6.690192197132426
 20
-7.265529339418273
 30
0.0
 11
9.298381209654055
 21
-7.265529333567653
 31
0.0
  0
LINE
  5
9B
  8
0
 10
7.281448028308023
 20
-28.60548803326914
 30
0.0
 11
7.281448028308023
 21
-26.58855484613289
 31
0.0
  0
LINE
  5
9C
  8
0
 10
9.198678241489656
 20
-28.60548801633673
 30
0.0
 11
8.559601504014621
 21
-28.60548802198086
 31
0.0
  0
LINE
  5
9D
  8
0
 10
11.02388839947066
 20
-26.78027783705234
 30
0.0
 11
9.198678241489656
 21
-28.60548801633673
 31
0.0
  0
LINE
  5
9E
  8
0
 10
26.04365059203836
 20
-12.5966774813423
 30
0.0
 11
25.91216709625717
 21
-12.53308213713216
 31
0.0
  0
LINE
  5
9F
  8
0
 10
25.62556958926397
 20
-12.17859647683221
 30
0.0
 11
26.04365059203836
 21
-12.5966774813423
 31
0.0
  0
LINE
  5
A0
  8
0
 10
24.21844045098516
 20
-14.42188764417005
 30
0.0
 11
22.3932303078749
 21
-16.24709780905486
 31
0.0
  0
LINE
  5
A1
  8
0
 10
22.3932303078749
 20
-16.24709780905486
 30
0.0
 11
22.28017625376434
 21
-16.16507302273546
 31
0.0
  0
LINE
  5
A2
  8
0
 10
21.97514930415813
 20
-15.82901680454476
 30
0.0
 11
22.3932303078749
 21
-16.24709780905486
 31
0.0
  0
LINE
  5
A3
  8
0
 10
23.80035944773961
 20
-14.00380663965994
 30
0.0
 11
24.21844045098516
 21
-14.42188764417005
 31
0.0
  0
LINE
  5
A4
  8
0
 10
21.95963467025901
 20
-15.84453143862497
 30
0.0
 11
22.28017625376434
 21
-16.16507302273546
 31
0.0
  0
LINE
  5
A5
  8
0
 10
20.56802016270754
 20
-18.07230797599676
 30
0.0
 11
18.74281001548312
 21
-19.89751814499573
 31
0.0
  0
LINE
  5
A6
  8
0
 10
18.324729010824
 20
-19.47943714048564
 30
0.0
 11
18.74281001548312
 21
-19.89751814499573
 31
0.0
  0
LINE
  5
A7
  8
0
 10
20.14993915851958
 20
-17.65422697148666
 30
0.0
 11
20.56802016270754
 21
-18.07230797599676
 31
0.0
  0
LINE
  5
A8
  8
0
 10
16.91759986620161
 20
-21.72272831605179
 30
0.0
 11
15.09238971486301
 21
-23.54793848916493
 31
0.0
  0
LINE
  5
A9
  8
0
 10
16.91759986620161
 20
-21.72272831605179
 30
0.0
 11
16.83218997475238
 21
-21.61305936641314
 31
0.0
  0
LINE
  5
AA
  8
0
 10
14.67430870926147
 20
-23.12985748465483
 30
0.0
 11
15.09238971486301
 21
-23.54793848916493
 31
0.0
  0
LINE
  5
AB
  8
0
 10
16.49951886107126
 20
-21.30464731154169
 30
0.0
 11
16.91759986620161
 21
-21.72272831605179
 31
0.0
  0
LINE
  5
AC
  8
0
 10
16.51164839016874
 20
-21.29251778230264
 30
0.0
 11
16.83218997475238
 21
-21.61305936641314
 31
0.0
  0
LINE
  5
AD
  8
0
 10
13.26717956146733
 20
-25.37314866433514
 30
0.0
 11
11.44196940601459
 21
-27.19835884156244
 31
0.0
  0
LINE
  5
AE
  8
0
 10
13.26717956146733
 20
-25.37314866433514
 30
0.0
 11
13.20019911189594
 21
-25.24505027238008
 31
0.0
  0
LINE
  5
AF
  8
0
 10
11.02388839947066
 20
-26.78027783705234
 30
0.0
 11
11.44196940601459
 21
-27.19835884156244
 31
0.0
  0
LINE
  5
B0
  8
0
 10
12.84909855539462
 20
-24.95506765982504
 30
0.0
 11
13.26717956146733
 21
-25.37314866433514
 31
0.0
  0
LINE
  5
B1
  8
0
 10
12.87965752659342
 20
-24.92450868826957
 30
0.0
 11
13.20019911189594
 21
-25.24505027238008
 31
0.0
  0
LINE
  5
B2
  8
0
 10
7.244687028143583
 20
-28.46107091447301
 30
0.0
 11
7.281448028308023
 21
-28.60548803326914
 31
0.0
  0
LINE
  5
B3
  8
0
 10
8.559601504014621
 20
-29.19674385414439
 30
0.0
 11
7.92052476628742
 21
-29.19674385990519
 31
0.0
  0
LINE
  5
B4
  8
0
 10
7.880537335556342
 20
-29.04934173830025
 30
0.0
 11
7.92052476628742
 21
-29.19674385990519
 31
0.0
  0
LINE
  5
B5
  8
0
 10
7.92052476628742
 20
-28.605488027625
 30
0.0
 11
7.92052476628742
 21
-29.19674385990519
 31
0.0
  0
LINE
  5
B6
  8
0
 10
8.559601504014621
 20
-28.60548802198086
 30
0.0
 11
8.559601504014621
 21
-29.19674385414439
 31
0.0
  0
LINE
  5
B7
  8
0
 10
26.04365059203836
 20
-12.5966774813423
 30
0.0
 11
28.04203555232737
 21
-10.59829249721279
 31
0.0
  0
LINE
  5
B8
  8
0
 10
27.9004630486703
 20
-6.640577854006213
 30
0.0
 11
28.04203555232737
 21
-6.674273462915377
 31
0.0
  0
LINE
  5
B9
  8
0
 10
13.33224756481031
 20
-7.265529324518995
 30
0.0
 11
13.26493861416591
 21
-7.228848712448847
 31
0.0
  0
LINE
  5
BA
  8
0
 10
21.39998024497962
 20
-7.265529306421675
 30
0.0
 11
21.2919406940494
 21
-7.228848694533797
 31
0.0
  0
LINE
  5
BB
  8
0
 10
25.43384656999265
 20
-7.265529297373018
 30
0.0
 11
25.30544171907138
 21
-7.228848685576275
 31
0.0
  0
LINE
  5
BC
  8
0
 10
9.298381209654055
 20
-7.265529333567653
 30
0.0
 11
9.251437559304323
 21
-7.228848721406372
 31
0.0
  0
LINE
  5
BD
  8
0
 10
17.36611390991885
 20
-7.265529315470336
 30
0.0
 11
17.27843965908094
 21
-7.228848703491323
 31
0.0
  0
LINE
  5
BE
  8
0
 10
15.34918073862056
 20
-7.265529319994666
 30
0.0
 11
17.36611390991885
 21
-7.265529315470336
 31
0.0
  0
LINE
  5
BF
  8
0
 10
11.31531438848815
 20
-7.265529329043324
 30
0.0
 11
13.33224756481031
 21
-7.265529324518995
 31
0.0
  0
LINE
  5
C0
  8
0
 10
23.41691340874211
 20
-7.265529301897347
 30
0.0
 11
25.43384656999265
 21
-7.265529297373018
 31
0.0
  0
LINE
  5
C1
  8
0
 10
25.43384656999265
 20
-6.674273468289876
 30
0.0
 11
28.04203555232737
 21
-6.674273462915377
 31
0.0
  0
LINE
  5
C2
  8
0
 10
19.3830470787052
 20
-7.265529310946003
 30
0.0
 11
21.39998024497962
 21
-7.265529306421675
 31
0.0
  0
LINE
  5
C3
  8
0
 10
9.298381209654055
 20
-6.674273501539037
 30
0.0
 11
11.31531438848815
 21
-6.67427349738289
 31
0.0
  0
LINE
  5
C4
  8
0
 10
11.31531438848815
 20
-6.67427349738289
 30
0.0
 11
11.25818808797843
 21
-6.640577888126581
 31
0.0
  0
LINE
  5
C5
  8
0
 10
9.298381209654055
 20
-6.674273501539037
 30
0.0
 11
9.251437559304323
 21
-6.640577892240869
 31
0.0
  0
LINE
  5
C6
  8
0
 10
9.298381209654055
 20
-7.265529333567653
 30
0.0
 11
9.298381209654055
 21
-6.674273501539037
 31
0.0
  0
LINE
  5
C7
  8
0
 10
13.33224756481031
 20
-6.674273493226748
 30
0.0
 11
15.34918073862056
 21
-6.6742734890706
 31
0.0
  0
LINE
  5
C8
  8
0
 10
15.34918073862056
 20
-6.6742734890706
 30
0.0
 11
15.27168913786674
 21
-6.640577879898009
 31
0.0
  0
LINE
  5
C9
  8
0
 10
13.33224756481031
 20
-6.674273493226748
 30
0.0
 11
13.26493861416591
 21
-6.640577884012298
 31
0.0
  0
LINE
  5
CA
  8
0
 10
13.33224756481031
 20
-7.265529324518995
 30
0.0
 11
13.33224756481031
 21
-6.674273493226748
 31
0.0
  0
LINE
  5
CB
  8
0
 10
17.36611390991885
 20
-6.674273484914456
 30
0.0
 11
19.3830470787052
 21
-6.674273480758307
 31
0.0
  0
LINE
  5
CC
  8
0
 10
19.3830470787052
 20
-6.674273480758307
 30
0.0
 11
19.28519017780848
 21
-6.640577871669436
 31
0.0
  0
LINE
  5
CD
  8
0
 10
17.36611390991885
 20
-6.674273484914456
 30
0.0
 11
17.27843965908094
 21
-6.640577875783724
 31
0.0
  0
LINE
  5
CE
  8
0
 10
17.36611390991885
 20
-7.265529315470336
 30
0.0
 11
17.36611390991885
 21
-6.674273484914456
 31
0.0
  0
LINE
  5
CF
  8
0
 10
21.39998024497962
 20
-6.674273476602165
 30
0.0
 11
23.41691340874211
 21
-6.674273472446019
 31
0.0
  0
LINE
  5
D0
  8
0
 10
23.41691340874211
 20
-6.674273472446019
 30
0.0
 11
23.29869120780373
 21
-6.640577863440864
 31
0.0
  0
LINE
  5
D1
  8
0
 10
21.39998024497962
 20
-6.674273476602165
 30
0.0
 11
21.2919406940494
 21
-6.640577867555153
 31
0.0
  0
LINE
  5
D2
  8
0
 10
21.39998024497962
 20
-7.265529306421675
 30
0.0
 11
21.39998024497962
 21
-6.674273476602165
 31
0.0
  0
LINE
  5
D3
  8
0
 10
25.43384656999265
 20
-6.674273468289876
 30
0.0
 11
25.30544171907138
 21
-6.640577859326582
 31
0.0
  0
LINE
  5
D4
  8
0
 10
25.43384656999265
 20
-7.265529297373018
 30
0.0
 11
25.43384656999265
 21
-6.674273468289876
 31
0.0
  0
LINE
  5
D5
  8
0
 10
28.04203555232737
 20
-10.59829249721279
 30
0.0
 11
28.04203555233142
 21
-8.543682762414274
 31
0.0
  0
LINE
  5
D6
  8
0
 10
6.656416199822528
 20
-7.228848727198063
 30
0.0
 11
9.251437559304323
 21
-7.228848721406372
 31
0.0
  0
LINE
  5
D7
  8
0
 10
9.251437559304323
 20
-7.228848721406372
 30
0.0
 11
9.251437559304323
 21
-6.640577892240869
 31
0.0
  0
LINE
  5
D8
  8
0
 10
9.251437559304323
 20
-6.640577892240869
 30
0.0
 11
11.25818808797843
 21
-6.640577888126581
 31
0.0
  0
LINE
  5
D9
  8
0
 10
11.31531438848815
 20
-7.228848716800113
 30
0.0
 11
13.26493861416591
 21
-7.228848712448847
 31
0.0
  0
LINE
  5
DA
  8
0
 10
13.26493861416591
 20
-7.228848712448847
 30
0.0
 11
13.26493861416591
 21
-6.640577884012298
 31
0.0
  0
LINE
  5
DB
  8
0
 10
13.26493861416591
 20
-6.640577884012298
 30
0.0
 11
15.27168913786674
 21
-6.640577879898009
 31
0.0
  0
LINE
  5
DC
  8
0
 10
15.34918073862056
 20
-7.228848707797135
 30
0.0
 11
17.27843965908094
 21
-7.228848703491323
 31
0.0
  0
LINE
  5
DD
  8
0
 10
17.27843965908094
 20
-7.228848703491323
 30
0.0
 11
17.27843965908094
 21
-6.640577875783724
 31
0.0
  0
LINE
  5
DE
  8
0
 10
17.27843965908094
 20
-6.640577875783724
 30
0.0
 11
19.28519017780848
 21
-6.640577871669436
 31
0.0
  0
LINE
  5
DF
  8
0
 10
19.3830470787052
 20
-7.228848698794157
 30
0.0
 11
21.2919406940494
 21
-7.228848694533797
 31
0.0
  0
LINE
  5
E0
  8
0
 10
21.2919406940494
 20
-7.228848694533797
 30
0.0
 11
21.2919406940494
 21
-6.640577867555153
 31
0.0
  0
LINE
  5
E1
  8
0
 10
21.2919406940494
 20
-6.640577867555153
 30
0.0
 11
23.29869120780373
 21
-6.640577863440864
 31
0.0
  0
LINE
  5
E2
  8
0
 10
23.41691340874211
 20
-7.228848689791183
 30
0.0
 11
25.30544171907138
 21
-7.228848685576275
 31
0.0
  0
LINE
  5
E3
  8
0
 10
25.30544171907138
 20
-7.228848685576275
 30
0.0
 11
25.30544171907138
 21
-6.640577859326582
 31
0.0
  0
LINE
  5
E4
  8
0
 10
25.30544171907138
 20
-6.640577859326582
 30
0.0
 11
27.9004630486703
 21
-6.640577854006213
 31
0.0
  0
LINE
  5
E5
  8
0
 10
25.59162551347072
 20
-12.21254055302165
 30
0.0
 11
25.91216709625717
 21
-12.53308213713216
 31
0.0
  0
LINE
  5
E6
  8
0
 10
7.880537335556342
 20
-28.60548802797816
 30
0.0
 11
7.880537335556342
 21
-29.04934173830025
 31
0.0
  0
LINE
  5
E7
  8
0
 10
7.244687028143583
 20
-28.46107091447301
 30
0.0
 11
7.244687028143583
 21
-26.58855484643466
 31
0.0
  0
LINE
  5
E8
  8
0
 10
28.48873386928257
 20
-7.864698983264715
 30
0.0
 11
28.63329137571569
 21
-7.904606025529143
 31
0.0
  0
LINE
  5
E9
  8
0
 10
28.63329137571164
 20
-8.543682760858413
 30
0.0
 11
28.63329137571569
 21
-7.904606025529143
 31
0.0
  0
LINE
  5
EA
  8
0
 10
28.0420355523352
 20
-7.86469898434654
 30
0.0
 11
28.48873386928257
 21
-7.864698983264715
 31
0.0
  0
LINE
  5
EB
  8
0
 10
28.04203555233546
 20
-7.904606026968343
 30
0.0
 11
28.63329137571569
 21
-7.904606025529143
 31
0.0
  0
LINE
  5
EC
  8
0
 10
28.04203555233142
 20
-8.543682762414274
 30
0.0
 11
28.63329137571164
 21
-8.543682760858413
 31
0.0
  0
LINE
  5
ED
  8
0
 10
7.281448028308023
 20
-24.57162165899665
 30
0.0
 11
7.244687028143583
 21
-24.44756984068774
 31
0.0
  0
LINE
  5
EE
  8
0
 10
7.281448028308023
 20
-20.53775528472416
 30
0.0
 11
7.244687028143583
 21
-20.43406876690246
 31
0.0
  0
LINE
  5
EF
  8
0
 10
7.281448028308023
 20
-16.50388891045167
 30
0.0
 11
7.244687028143582
 21
-16.42056769311719
 31
0.0
  0
LINE
  5
F0
  8
0
 10
7.281448028308023
 20
-12.47002253617918
 30
0.0
 11
7.244687028143582
 21
-12.40706661933192
 31
0.0
  0
LINE
  5
F1
  8
0
 10
7.281448028308023
 20
-16.50388891045167
 30
0.0
 11
7.281448028308023
 21
-14.48695572331543
 31
0.0
  0
LINE
  5
F2
  8
0
 10
7.281448028308023
 20
-24.57162165899665
 30
0.0
 11
7.281448028308023
 21
-22.55468847186041
 31
0.0
  0
LINE
  5
F3
  8
0
 10
7.244687028143582
 20
-16.42056769311719
 30
0.0
 11
7.244687028143582
 21
-14.48695572347985
 31
0.0
  0
LINE
  5
F4
  8
0
 10
7.244687028143583
 20
-24.44756984068774
 30
0.0
 11
7.244687028143583
 21
-22.5546884721164
 31
0.0
  0
LINE
  5
F5
  8
0
 10
7.281448028308023
 20
-12.47002253617918
 30
0.0
 11
7.281448028308023
 21
-10.45308934904293
 31
0.0
  0
LINE
  5
F6
  8
0
 10
7.244687028143582
 20
-12.40706661933192
 30
0.0
 11
7.244687028143582
 21
-10.45308934916157
 31
0.0
  0
LINE
  5
F7
  8
0
 10
7.281448028308023
 20
-20.53775528472416
 30
0.0
 11
7.281448028308023
 21
-18.52082209758791
 31
0.0
  0
LINE
  5
F8
  8
0
 10
7.244687028143583
 20
-20.43406876690246
 30
0.0
 11
7.244687028143583
 21
-18.52082209779812
 31
0.0
  0
LINE
  5
F9
  8
0
 10
6.690192197132426
 20
-26.58855485098652
 30
0.0
 11
6.690192197132426
 21
-24.57162166348209
 31
0.0
  0
LINE
  5
FA
  8
0
 10
6.690192197132426
 20
-24.57162166348209
 30
0.0
 11
6.656416199822528
 21
-24.447569845128
 31
0.0
  0
LINE
  5
FB
  8
0
 10
6.656416199822528
 20
-26.4543203823851
 30
0.0
 11
6.656416199822528
 21
-24.447569845128
 31
0.0
  0
LINE
  5
FC
  8
0
 10
6.690192197132426
 20
-26.58855485098652
 30
0.0
 11
6.656416199822528
 21
-26.4543203823851
 31
0.0
  0
LINE
  5
FD
  8
0
 10
7.281448028308023
 20
-24.57162165899665
 30
0.0
 11
6.690192197132426
 21
-24.57162166348209
 31
0.0
  0
LINE
  5
FE
  8
0
 10
7.244687028143583
 20
-24.44756984068774
 30
0.0
 11
6.656416199822528
 21
-24.447569845128
 31
0.0
  0
LINE
  5
FF
  8
0
 10
6.690192197132426
 20
-22.55468847597766
 30
0.0
 11
6.690192197132426
 21
-20.53775528847324
 31
0.0
  0
LINE
  5
100
  8
0
 10
6.690192197132426
 20
-20.53775528847324
 30
0.0
 11
6.656416199822528
 21
-20.43406877061377
 31
0.0
  0
LINE
  5
101
  8
0
 10
6.656416199822528
 20
-22.44081930787088
 30
0.0
 11
6.656416199822528
 21
-20.43406877061377
 31
0.0
  0
LINE
  5
102
  8
0
 10
6.690192197132426
 20
-22.55468847597766
 30
0.0
 11
6.656416199822528
 21
-22.44081930787088
 31
0.0
  0
LINE
  5
103
  8
0
 10
7.281448028308023
 20
-20.53775528472416
 30
0.0
 11
6.690192197132426
 21
-20.53775528847324
 31
0.0
  0
LINE
  5
104
  8
0
 10
7.244687028143583
 20
-20.43406876690246
 30
0.0
 11
6.656416199822528
 21
-20.43406877061377
 31
0.0
  0
LINE
  5
105
  8
0
 10
6.690192197132426
 20
-18.52082210096881
 30
0.0
 11
6.690192197132426
 21
-16.50388891346438
 31
0.0
  0
LINE
  5
106
  8
0
 10
6.690192197132426
 20
-16.50388891346438
 30
0.0
 11
6.656416199822528
 21
-16.42056769609955
 31
0.0
  0
LINE
  5
107
  8
0
 10
6.656416199822528
 20
-18.42731823335666
 30
0.0
 11
6.656416199822528
 21
-16.42056769609955
 31
0.0
  0
LINE
  5
108
  8
0
 10
6.690192197132426
 20
-18.52082210096881
 30
0.0
 11
6.656416199822528
 21
-18.42731823335666
 31
0.0
  0
LINE
  5
109
  8
0
 10
7.281448028308023
 20
-16.50388891045167
 30
0.0
 11
6.690192197132426
 21
-16.50388891346438
 31
0.0
  0
LINE
  5
10A
  8
0
 10
7.244687028143582
 20
-16.42056769311719
 30
0.0
 11
6.656416199822528
 21
-16.42056769609955
 31
0.0
  0
LINE
  5
10B
  8
0
 10
6.656416199822528
 20
-14.41381715884244
 30
0.0
 11
6.656416199822528
 21
-12.40706662158533
 31
0.0
  0
LINE
  5
10C
  8
0
 10
6.690192197132426
 20
-14.48695572595995
 30
0.0
 11
6.656416199822528
 21
-14.41381715884244
 31
0.0
  0
LINE
  5
10D
  8
0
 10
6.690192197132426
 20
-14.48695572595995
 30
0.0
 11
6.690192197132426
 21
-12.47002253845553
 31
0.0
  0
LINE
  5
10E
  8
0
 10
6.690192197132426
 20
-12.47002253845553
 30
0.0
 11
6.656416199822528
 21
-12.40706662158533
 31
0.0
  0
LINE
  5
10F
  8
0
 10
7.244687028143582
 20
-12.40706661933192
 30
0.0
 11
6.656416199822528
 21
-12.40706662158533
 31
0.0
  0
LINE
  5
110
  8
0
 10
7.281448028308023
 20
-12.47002253617918
 30
0.0
 11
6.690192197132426
 21
-12.47002253845553
 31
0.0
  0
LINE
  5
111
  8
0
 10
6.656416199822528
 20
-10.40031608432822
 30
0.0
 11
6.656416199822528
 21
-7.228848727198063
 31
0.0
  0
LINE
  5
112
  8
0
 10
6.690192197132426
 20
-10.4530893509511
 30
0.0
 11
6.656416199822528
 21
-10.40031608432822
 31
0.0
  0
LINE
  5
113
  8
0
 10
6.690192197132426
 20
-10.4530893509511
 30
0.0
 11
6.690192197132426
 21
-7.265529339418273
 31
0.0
  0
LINE
  5
114
  8
0
 10
6.690192197132426
 20
-7.265529339418273
 30
0.0
 11
6.656416199822528
 21
-7.228848727198063
 31
0.0
  0
LINE
  5
115
  8
0
 10
6.46790552093966
 20
23.63511111919142
 30
0.0
 11
6.467905520939452
 21
21.61817793254333
 31
0.0
  0
LINE
  5
116
  8
0
 10
-31.96372357554344
 20
29.6859106791367
 30
0.0
 11
-31.96372357554448
 21
31.70284386578534
 31
0.0
  0
LINE
  5
117
  8
0
 10
-31.37246774328984
 20
29.6859106791367
 30
0.0
 11
-31.96372357554344
 21
29.6859106791367
 31
0.0
  0
LINE
  5
118
  8
0
 10
-31.96372357554138
 20
25.65204430583984
 30
0.0
 11
-31.96372357554241
 21
27.66897749248821
 31
0.0
  0
LINE
  5
119
  8
0
 10
-31.37246774328781
 20
25.65204430583984
 30
0.0
 11
-31.96372357554138
 21
25.65204430583984
 31
0.0
  0
LINE
  5
11A
  8
0
 10
-31.96372357553932
 20
21.61817793254351
 30
0.0
 11
-31.96372357554035
 21
23.63511111919161
 31
0.0
  0
LINE
  5
11B
  8
0
 10
-31.96372357553725
 20
17.58431155924769
 30
0.0
 11
-31.96372357553828
 21
19.60124474589554
 31
0.0
  0
LINE
  5
11C
  8
0
 10
5.876649688687102
 20
34.31103288470368
 30
0.0
 11
5.876649688686856
 21
31.70284386578508
 31
0.0
  0
LINE
  5
11D
  8
0
 10
1.678733279686227
 20
34.31103288469993
 30
0.0
 11
5.876649688687102
 21
34.31103288470368
 31
0.0
  0
LINE
  5
11E
  8
0
 10
5.876649688686856
 20
31.70284386578508
 30
0.0
 11
6.467905520940226
 21
31.70284386578508
 31
0.0
  0
LINE
  5
11F
  8
0
 10
5.876649688685718
 20
19.60124474589538
 30
0.0
 11
6.46790552093925
 21
19.60124474589538
 31
0.0
  0
LINE
  5
120
  8
0
 10
5.876649688685906
 20
21.61817793254334
 30
0.0
 11
6.467905520939452
 21
21.61817793254333
 31
0.0
  0
LINE
  5
121
  8
0
 10
5.876649688685528
 20
17.58431155924755
 30
0.0
 11
6.467905520939039
 21
17.58431155924755
 31
0.0
  0
LINE
  5
122
  8
0
 10
5.876649688686097
 20
23.63511111919143
 30
0.0
 11
6.46790552093966
 21
23.63511111919142
 31
0.0
  0
LINE
  5
123
  8
0
 10
5.876649688686666
 20
29.68591067913647
 30
0.0
 11
6.467905520940016
 21
29.68591067913646
 31
0.0
  0
LINE
  5
124
  8
0
 10
5.876649688686288
 20
25.65204430583964
 30
0.0
 11
6.467905520939844
 21
25.65204430583964
 31
0.0
  0
LINE
  5
125
  8
0
 10
5.876649688686476
 20
27.66897749248799
 30
0.0
 11
6.467905520940052
 21
27.66897749248799
 31
0.0
  0
LINE
  5
126
  8
0
 10
6.467905520940226
 20
31.70284386578508
 30
0.0
 11
6.467905520940016
 21
29.68591067913646
 31
0.0
  0
LINE
  5
127
  8
0
 10
6.467905520940052
 20
27.66897749248799
 30
0.0
 11
6.467905520939844
 21
25.65204430583964
 31
0.0
  0
LINE
  5
128
  8
0
 10
6.46790552093925
 20
19.60124474589538
 30
0.0
 11
6.467905520939039
 21
17.58431155924755
 31
0.0
  0
LINE
  5
129
  8
0
 10
-1.927927297060986
 20
34.31103288469993
 30
0.0
 11
-1.927927297061066
 21
34.90228871695503
 31
0.0
  0
LINE
  5
12A
  8
0
 10
-9.141248450555405
 20
34.31103288469993
 30
0.0
 11
-9.141248450555786
 21
34.90228871695501
 31
0.0
  0
LINE
  5
12B
  8
0
 10
-16.35456960404982
 20
34.31103288469993
 30
0.0
 11
-16.35456960405051
 21
34.90228871695503
 31
0.0
  0
LINE
  5
12C
  8
0
 10
-23.56789075754425
 20
34.31103288469993
 30
0.0
 11
-23.56789075754523
 21
34.90228871695503
 31
0.0
  0
LINE
  5
12D
  8
0
 10
-27.17455133429146
 20
34.31103288469993
 30
0.0
 11
-27.17455133429179
 21
34.9022887169554
 31
0.0
  0
LINE
  5
12E
  8
0
 10
-19.96123018079703
 20
34.31103288469993
 30
0.0
 11
-19.96123018079786
 21
34.90228871695503
 31
0.0
  0
LINE
  5
12F
  8
0
 10
-12.74790902730262
 20
34.31103288469993
 30
0.0
 11
-12.74790902730314
 21
34.90228871695503
 31
0.0
  0
LINE
  5
130
  8
0
 10
-5.534587873808199
 20
34.31103288469993
 30
0.0
 11
-5.534587873808428
 21
34.90228871695501
 31
0.0
  0
LINE
  5
131
  8
0
 10
1.678733279686227
 20
34.31103288469993
 30
0.0
 11
1.678733279686297
 21
34.90228871695503
 31
0.0
  0
LINE
  5
132
  8
0
 10
-1.927927297061066
 20
34.90228871695503
 30
0.0
 11
1.678733279686297
 21
34.90228871695503
 31
0.0
  0
LINE
  5
133
  8
0
 10
-9.141248450555786
 20
34.90228871695501
 30
0.0
 11
-5.534587873808428
 21
34.90228871695501
 31
0.0
  0
LINE
  5
134
  8
0
 10
-16.35456960405051
 20
34.90228871695503
 30
0.0
 11
-12.74790902730314
 21
34.90228871695503
 31
0.0
  0
LINE
  5
135
  8
0
 10
-23.56789075754523
 20
34.90228871695503
 30
0.0
 11
-19.96123018079786
 21
34.90228871695503
 31
0.0
  0
LINE
  5
136
  8
0
 10
-31.96372357554676
 20
34.90228871695914
 30
0.0
 11
-27.17455133429179
 21
34.9022887169554
 31
0.0
  0
LINE
  5
137
  8
0
 10
-31.9637235755462
 20
34.3110328847002
 30
0.0
 11
-31.96372357554676
 21
34.90228871695914
 31
0.0
  0
LINE
  5
138
  8
0
 10
-31.37246774329219
 20
34.3110328847002
 30
0.0
 11
-31.9637235755462
 21
34.3110328847002
 31
0.0
  0
LINE
  5
139
  8
0
 10
-31.37246774329086
 20
31.70284386578534
 30
0.0
 11
-31.96372357554448
 21
31.70284386578534
 31
0.0
  0
LINE
  5
13A
  8
0
 10
-31.37246774328883
 20
27.66897749248821
 30
0.0
 11
-31.96372357554241
 21
27.66897749248821
 31
0.0
  0
LINE
  5
13B
  8
0
 10
-31.3724677432868
 20
23.63511111919161
 30
0.0
 11
-31.96372357554035
 21
23.63511111919161
 31
0.0
  0
LINE
  5
13C
  8
0
 10
-31.37246774328478
 20
19.60124474589554
 30
0.0
 11
-31.96372357553828
 21
19.60124474589554
 31
0.0
  0
LINE
  5
13D
  8
0
 10
-31.37246774328579
 20
21.61817793254351
 30
0.0
 11
-31.96372357553932
 21
21.61817793254351
 31
0.0
  0
LINE
  5
13E
  8
0
 10
-31.37246774328376
 20
17.58431155924769
 30
0.0
 11
-31.96372357553725
 21
17.58431155924769
 31
0.0
  0
LINE
  5
13F
  8
0
 10
5.87664968868552
 20
17.49553574085207
 30
0.0
 11
6.435251777060642
 21
17.49553574085206
 31
0.0
  0
LINE
  5
140
  8
0
 10
5.876649688685896
 20
21.50903681367047
 30
0.0
 11
6.43525177706105
 21
21.50903681367046
 31
0.0
  0
LINE
  5
141
  8
0
 10
5.876649688686276
 20
25.5225378864894
 30
0.0
 11
6.435251777061437
 21
25.52253788648939
 31
0.0
  0
LINE
  5
142
  8
0
 10
5.876649688686652
 20
29.53603895930884
 30
0.0
 11
6.435251777061607
 21
29.53603895930883
 31
0.0
  0
LINE
  5
143
  8
0
 10
-5.506646059519442
 20
34.31103288469993
 30
0.0
 11
-5.506646059519603
 21
34.72608169092286
 31
0.0
  0
LINE
  5
144
  8
0
 10
-12.68355017805631
 20
34.31103288469993
 30
0.0
 11
-12.68355017805668
 21
34.72608169092286
 31
0.0
  0
LINE
  5
145
  8
0
 10
-19.86045429659318
 20
34.31103288469993
 30
0.0
 11
-19.86045429659376
 21
34.72608169092286
 31
0.0
  0
LINE
  5
146
  8
0
 10
-27.03735841512982
 20
34.31103288469993
 30
0.0
 11
-27.03735841513004
 21
34.72608169092324
 31
0.0
  0
LINE
  5
147
  8
0
 10
-31.3724677432921
 20
34.13781086151764
 30
0.0
 11
-31.80235213317487
 21
34.13781086151763
 31
0.0
  0
LINE
  5
148
  8
0
 10
-31.37246774328976
 20
29.53603895930906
 30
0.0
 11
-31.80235213317216
 21
29.53603895930906
 31
0.0
  0
LINE
  5
149
  8
0
 10
-31.37246774328775
 20
25.52253788648959
 30
0.0
 11
-31.80235213317012
 21
25.52253788648959
 31
0.0
  0
LINE
  5
14A
  8
0
 10
-31.37246774328573
 20
21.50903681367064
 30
0.0
 11
-31.80235213316807
 21
21.50903681367064
 31
0.0
  0
LINE
  5
14B
  8
0
 10
-31.37246774328371
 20
17.4955357408522
 30
0.0
 11
-31.80235213316604
 21
17.4955357408522
 31
0.0
  0
LINE
  5
14C
  8
0
 10
5.876649688685338
 20
15.56737837259985
 30
0.0
 11
5.862434029133957
 21
15.52972076788076
 31
0.0
  0
LINE
  5
14D
  8
0
 10
6.467905520939039
 20
17.58431155924755
 30
0.0
 11
6.435251777060642
 21
17.49553574085206
 31
0.0
  0
LINE
  5
14E
  8
0
 10
6.467905520939452
 20
21.61817793254333
 30
0.0
 11
6.43525177706105
 21
21.50903681367046
 31
0.0
  0
LINE
  5
14F
  8
0
 10
6.467905520939844
 20
25.65204430583964
 30
0.0
 11
6.435251777061437
 21
25.52253788648939
 31
0.0
  0
LINE
  5
150
  8
0
 10
6.467905520940016
 20
29.68591067913646
 30
0.0
 11
6.435251777061607
 21
29.53603895930883
 31
0.0
  0
LINE
  5
151
  8
0
 10
-5.534587873808428
 20
34.90228871695501
 30
0.0
 11
-5.506646059519603
 21
34.72608169092286
 31
0.0
  0
LINE
  5
152
  8
0
 10
-12.74790902730314
 20
34.90228871695503
 30
0.0
 11
-12.68355017805668
 21
34.72608169092286
 31
0.0
  0
LINE
  5
153
  8
0
 10
-19.96123018079786
 20
34.90228871695503
 30
0.0
 11
-19.86045429659376
 21
34.72608169092286
 31
0.0
  0
LINE
  5
154
  8
0
 10
-27.17455133429179
 20
34.9022887169554
 30
0.0
 11
-27.03735841513004
 21
34.72608169092324
 31
0.0
  0
LINE
  5
155
  8
0
 10
-31.9637235755462
 20
34.3110328847002
 30
0.0
 11
-31.80235213317487
 21
34.13781086151763
 31
0.0
  0
LINE
  5
156
  8
0
 10
-31.96372357554344
 20
29.6859106791367
 30
0.0
 11
-31.80235213317216
 21
29.53603895930906
 31
0.0
  0
LINE
  5
157
  8
0
 10
-31.96372357554138
 20
25.65204430583984
 30
0.0
 11
-31.80235213317012
 21
25.52253788648959
 31
0.0
  0
LINE
  5
158
  8
0
 10
-31.96372357553932
 20
21.61817793254351
 30
0.0
 11
-31.80235213316807
 21
21.50903681367064
 31
0.0
  0
LINE
  5
159
  8
0
 10
-31.96372357553725
 20
17.58431155924769
 30
0.0
 11
-31.80235213316604
 21
17.4955357408522
 31
0.0
  0
LINE
  5
15A
  8
0
 10
-31.37246774328274
 20
15.56737837259998
 30
0.0
 11
-31.37246774328236
 21
12.37981836242108
 31
0.0
  0
LINE
  5
15B
  8
0
 10
-31.37246774328274
 20
15.56737837259998
 30
0.0
 11
5.862434029133953
 21
15.56737837259998
 31
0.0
  0
LINE
  5
15C
  8
0
 10
6.453689861387434
 20
10.36288517577485
 30
0.0
 11
6.453689861387434
 21
12.37981836242199
 31
0.0
  0
LINE
  5
15D
  8
0
 10
6.453689861387434
 20
10.36288517577485
 30
0.0
 11
6.42110788641548
 21
10.31056731224464
 31
0.0
  0
LINE
  5
15E
  8
0
 10
5.862434029133962
 20
10.31056731224464
 30
0.0
 11
6.42110788641548
 21
10.31056731224464
 31
0.0
  0
LINE
  5
15F
  8
0
 10
5.862434029133962
 20
12.37981836242199
 30
0.0
 11
6.453689861387434
 21
12.37981836242199
 31
0.0
  0
LINE
  5
160
  8
0
 10
5.862434029133962
 20
10.36288517577485
 30
0.0
 11
6.453689861387434
 21
10.36288517577485
 31
0.0
  0
LINE
  5
161
  8
0
 10
6.453689861387434
 20
6.329018802480561
 30
0.0
 11
6.453689861387434
 21
8.345951989127705
 31
0.0
  0
LINE
  5
162
  8
0
 10
6.453689861387434
 20
6.329018802480561
 30
0.0
 11
6.42110788641548
 21
6.29706623942772
 31
0.0
  0
LINE
  5
163
  8
0
 10
5.862434029133962
 20
6.29706623942772
 30
0.0
 11
6.42110788641548
 21
6.29706623942772
 31
0.0
  0
LINE
  5
164
  8
0
 10
5.862434029133962
 20
8.345951989127705
 30
0.0
 11
6.453689861387434
 21
8.345951989127705
 31
0.0
  0
LINE
  5
165
  8
0
 10
5.862434029133962
 20
6.329018802480561
 30
0.0
 11
6.453689861387434
 21
6.329018802480561
 31
0.0
  0
LINE
  5
166
  8
0
 10
6.453689861387424
 20
2.295152429186277
 30
0.0
 11
6.453689861387424
 21
4.312085615833419
 31
0.0
  0
LINE
  5
167
  8
0
 10
6.453689861387424
 20
2.295152429186277
 30
0.0
 11
6.421107886415469
 21
2.283565166610803
 31
0.0
  0
LINE
  5
168
  8
0
 10
5.862434029133957
 20
2.283565166610803
 30
0.0
 11
6.421107886415469
 21
2.283565166610803
 31
0.0
  0
LINE
  5
169
  8
0
 10
5.862434029133957
 20
4.312085615833419
 30
0.0
 11
6.453689861387424
 21
4.312085615833419
 31
0.0
  0
LINE
  5
16A
  8
0
 10
5.862434029133957
 20
2.295152429186276
 30
0.0
 11
6.453689861387424
 21
2.295152429186277
 31
0.0
  0
LINE
  5
16B
  8
0
 10
6.45368986138743
 20
-1.738713944108009
 30
0.0
 11
6.45368986138743
 21
0.2782192425391345
 31
0.0
  0
LINE
  5
16C
  8
0
 10
5.862434029133957
 20
0.2782192425391362
 30
0.0
 11
6.45368986138743
 21
0.2782192425391345
 31
0.0
  0
LINE
  5
16D
  8
0
 10
5.862434029133957
 20
-1.738713944108009
 30
0.0
 11
6.45368986138743
 21
-1.738713944108009
 31
0.0
  0
LINE
  5
16E
  8
0
 10
6.45368986138743
 20
-3.755647130755151
 30
0.0
 11
6.421107886415474
 21
-3.736686442614576
 31
0.0
  0
LINE
  5
16F
  8
0
 10
6.45368986138743
 20
-5.772580317402294
 30
0.0
 11
6.45368986138743
 21
-3.755647130755151
 31
0.0
  0
LINE
  5
170
  8
0
 10
5.862434029133957
 20
-3.736686442614576
 30
0.0
 11
6.421107886415474
 21
-3.736686442614576
 31
0.0
  0
LINE
  5
171
  8
0
 10
5.862434029133957
 20
-3.755647130755151
 30
0.0
 11
6.45368986138743
 21
-3.755647130755151
 31
0.0
  0
LINE
  5
172
  8
0
 10
-31.96372357553621
 20
-3.755647130755952
 30
0.0
 11
-31.9637235755366
 21
-6.36383614965566
 31
0.0
  0
LINE
  5
173
  8
0
 10
-31.96372357553621
 20
-3.755647130755952
 30
0.0
 11
-31.80235213316499
 21
-3.736686442615373
 31
0.0
  0
LINE
  5
174
  8
0
 10
-31.37246774328237
 20
-3.755647130756061
 30
0.0
 11
-31.96372357553621
 21
-3.755647130755952
 31
0.0
  0
LINE
  5
175
  8
0
 10
-31.37246774328237
 20
-3.736686442615452
 30
0.0
 11
-31.80235213316499
 21
-3.736686442615373
 31
0.0
  0
LINE
  5
176
  8
0
 10
-31.96372357553584
 20
0.2782192425382249
 30
0.0
 11
-31.96372357553584
 21
-1.738713944108918
 31
0.0
  0
LINE
  5
177
  8
0
 10
-31.37246774328237
 20
-1.738713944108918
 30
0.0
 11
-31.96372357553584
 21
-1.738713944108918
 31
0.0
  0
LINE
  5
178
  8
0
 10
-31.37246774328237
 20
0.2782192425382248
 30
0.0
 11
-31.96372357553584
 21
0.2782192425382249
 31
0.0
  0
LINE
  5
179
  8
0
 10
-31.96372357553584
 20
2.295152429185367
 30
0.0
 11
-31.80235213316462
 21
2.283565166609898
 31
0.0
  0
LINE
  5
17A
  8
0
 10
-31.96372357553584
 20
4.312085615832509
 30
0.0
 11
-31.96372357553584
 21
2.295152429185367
 31
0.0
  0
LINE
  5
17B
  8
0
 10
-31.37246774328237
 20
2.283565166609898
 30
0.0
 11
-31.80235213316462
 21
2.283565166609898
 31
0.0
  0
LINE
  5
17C
  8
0
 10
-31.37246774328237
 20
2.295152429185367
 30
0.0
 11
-31.96372357553584
 21
2.295152429185367
 31
0.0
  0
LINE
  5
17D
  8
0
 10
-31.37246774328237
 20
4.31208561583251
 30
0.0
 11
-31.96372357553584
 21
4.312085615832509
 31
0.0
  0
LINE
  5
17E
  8
0
 10
-31.96372357553584
 20
6.32901880247965
 30
0.0
 11
-31.80235213316462
 21
6.297066239426816
 31
0.0
  0
LINE
  5
17F
  8
0
 10
-31.96372357553584
 20
8.345951989126794
 30
0.0
 11
-31.96372357553584
 21
6.32901880247965
 31
0.0
  0
LINE
  5
180
  8
0
 10
-31.37246774328236
 20
6.297066239426816
 30
0.0
 11
-31.80235213316462
 21
6.297066239426816
 31
0.0
  0
LINE
  5
181
  8
0
 10
-31.37246774328236
 20
6.32901880247965
 30
0.0
 11
-31.96372357553584
 21
6.32901880247965
 31
0.0
  0
LINE
  5
182
  8
0
 10
-31.37246774328236
 20
8.345951989126794
 30
0.0
 11
-31.96372357553584
 21
8.345951989126794
 31
0.0
  0
LINE
  5
183
  8
0
 10
-31.96372357553584
 20
10.36288517577394
 30
0.0
 11
-31.80235213316462
 21
10.31056731224373
 31
0.0
  0
LINE
  5
184
  8
0
 10
-31.96372357553584
 20
12.37981836242108
 30
0.0
 11
-31.96372357553584
 21
10.36288517577394
 31
0.0
  0
LINE
  5
185
  8
0
 10
-31.37246774328236
 20
10.31056731224373
 30
0.0
 11
-31.80235213316462
 21
10.31056731224373
 31
0.0
  0
LINE
  5
186
  8
0
 10
-31.37246774328236
 20
10.36288517577394
 30
0.0
 11
-31.96372357553584
 21
10.36288517577394
 31
0.0
  0
LINE
  5
187
  8
0
 10
-31.37246774328236
 20
12.37981836242108
 30
0.0
 11
-31.96372357553584
 21
12.37981836242108
 31
0.0
  0
LINE
  5
188
  8
0
 10
1.664517620134325
 20
-5.772580317402293
 30
0.0
 11
6.45368986138743
 21
-5.772580317402294
 31
0.0
  0
LINE
  5
189
  8
0
 10
-27.18876699383494
 20
-6.363836149655762
 30
0.0
 11
-27.05150230576687
 21
-6.331707808411127
 31
0.0
  0
LINE
  5
18A
  8
0
 10
-31.9637235755366
 20
-6.36383614965566
 30
0.0
 11
-27.18876699383494
 21
-6.363836149655762
 31
0.0
  0
LINE
  5
18B
  8
0
 10
-27.05150230576685
 20
-5.772580317402293
 30
0.0
 11
-27.05150230576687
 21
-6.331707808411127
 31
0.0
  0
LINE
  5
18C
  8
0
 10
-27.18876699383492
 20
-5.772580317402293
 30
0.0
 11
-27.18876699383494
 21
-6.363836149655762
 31
0.0
  0
LINE
  5
18D
  8
0
 10
-23.58210641708876
 20
-6.363836149655762
 30
0.0
 11
-19.9754458403426
 21
-6.363836149655762
 31
0.0
  0
LINE
  5
18E
  8
0
 10
-19.9754458403426
 20
-6.363836149655762
 30
0.0
 11
-19.87459818723215
 21
-6.331707808411126
 31
0.0
  0
LINE
  5
18F
  8
0
 10
-23.58210641708876
 20
-5.772580317402293
 30
0.0
 11
-23.58210641708876
 21
-6.363836149655762
 31
0.0
  0
LINE
  5
190
  8
0
 10
-19.9754458403426
 20
-5.772580317402293
 30
0.0
 11
-19.9754458403426
 21
-6.363836149655762
 31
0.0
  0
LINE
  5
191
  8
0
 10
-19.87459818723215
 20
-5.772580317402293
 30
0.0
 11
-19.87459818723215
 21
-6.331707808411126
 31
0.0
  0
LINE
  5
192
  8
0
 10
-16.36878526359645
 20
-6.363836149655761
 30
0.0
 11
-12.7621246868503
 21
-6.363836149655761
 31
0.0
  0
LINE
  5
193
  8
0
 10
-12.7621246868503
 20
-6.363836149655761
 30
0.0
 11
-12.69769406869746
 21
-6.331707808411125
 31
0.0
  0
LINE
  5
194
  8
0
 10
-16.36878526359645
 20
-5.772580317402293
 30
0.0
 11
-16.36878526359645
 21
-6.363836149655761
 31
0.0
  0
LINE
  5
195
  8
0
 10
-12.7621246868503
 20
-5.772580317402293
 30
0.0
 11
-12.7621246868503
 21
-6.363836149655761
 31
0.0
  0
LINE
  5
196
  8
0
 10
-12.69769406869746
 20
-5.772580317402293
 30
0.0
 11
-12.69769406869746
 21
-6.331707808411125
 31
0.0
  0
LINE
  5
197
  8
0
 10
-9.155464110104143
 20
-6.363836149655761
 30
0.0
 11
-5.548803533357991
 21
-6.363836149655761
 31
0.0
  0
LINE
  5
198
  8
0
 10
-5.548803533357991
 20
-6.363836149655761
 30
0.0
 11
-5.520789950162765
 21
-6.331707808411125
 31
0.0
  0
LINE
  5
199
  8
0
 10
-9.155464110104143
 20
-5.772580317402293
 30
0.0
 11
-9.155464110104143
 21
-6.363836149655761
 31
0.0
  0
LINE
  5
19A
  8
0
 10
-5.54880353335799
 20
-5.772580317402293
 30
0.0
 11
-5.548803533357991
 21
-6.363836149655761
 31
0.0
  0
LINE
  5
19B
  8
0
 10
-5.520789950162765
 20
-5.772580317402293
 30
0.0
 11
-5.520789950162765
 21
-6.331707808411125
 31
0.0
  0
LINE
  5
19C
  8
0
 10
-1.942142956611832
 20
-6.363836149655757
 30
0.0
 11
1.664517620134325
 21
-6.363836149655757
 31
0.0
  0
LINE
  5
19D
  8
0
 10
-1.942142956611832
 20
-5.772580317402293
 30
0.0
 11
-1.942142956611832
 21
-6.363836149655757
 31
0.0
  0
LINE
  5
19E
  8
0
 10
1.664517620134325
 20
-5.772580317402293
 30
0.0
 11
1.664517620134325
 21
-6.363836149655757
 31
0.0
  0
LINE
  5
19F
  8
0
 10
-19.26593884163844
 20
-1.830874769045838
 30
0.0
 11
-19.26593884163844
 21
-3.801727543224066
 31
0.0
  0
LINE
  5
1A0
  8
0
 10
-19.26593884163844
 20
-3.801727543224066
 30
0.0
 11
-18.67468300938497
 21
-3.801727543224066
 31
0.0
  0
LINE
  5
1A1
  8
0
 10
-19.16867319196644
 20
-1.830874769045838
 30
0.0
 11
-19.16867319196644
 21
-3.782534214396069
 31
0.0
  0
LINE
  5
1A2
  8
0
 10
-19.16867319196644
 20
-3.782534214396069
 30
0.0
 11
-18.67468300938497
 21
-3.782534214396069
 31
0.0
  0
LINE
  5
1A3
  8
0
 10
-19.26593884163844
 20
-3.801727543224066
 30
0.0
 11
-19.16867319196644
 21
-3.782534214396069
 31
0.0
  0
LINE
  5
1A4
  8
0
 10
-0.641380125654194
 20
-3.801727543224066
 30
0.0
 11
-0.0501242934007267
 21
-3.801727543224066
 31
0.0
  0
LINE
  5
1A5
  8
0
 10
-0.6381420662416083
 20
-1.830874769045838
 30
0.0
 11
-0.6381420662416083
 21
-3.782534214396069
 31
0.0
  0
LINE
  5
1A6
  8
0
 10
-0.6381420662416083
 20
-3.782534214396069
 30
0.0
 11
-0.0501242934007267
 21
-3.782534214396069
 31
0.0
  0
LINE
  5
1A7
  8
0
 10
-0.641380125654194
 20
-3.801727543224066
 30
0.0
 11
-0.6381420662416083
 21
-3.782534214396069
 31
0.0
  0
LINE
  5
1A8
  8
0
 10
31.97793940034918
 20
-32.52950685656089
 30
0.0
 11
29.36975042340107
 21
-32.52950688275624
 31
0.0
  0
LINE
  5
1A9
  8
0
 10
29.4694533903541
 20
-11.18954832497319
 30
0.0
 11
30.10853011981103
 21
-11.18954832276521
 31
0.0
  0
LINE
  5
1AA
  8
0
 10
13.04256207557686
 20
-27.61643984596856
 30
0.0
 11
12.97671562551044
 21
-27.47701601709651
 31
0.0
  0
LINE
  5
1AB
  8
0
 10
13.04256207557686
 20
-27.61643984596856
 30
0.0
 11
14.86777222989152
 21
-25.79122966874075
 31
0.0
  0
LINE
  5
1AC
  8
0
 10
16.69298238214914
 20
-23.96601949357003
 30
0.0
 11
16.60870649018641
 21
-23.84502510705585
 31
0.0
  0
LINE
  5
1AD
  8
0
 10
16.69298238214914
 20
-23.96601949357003
 30
0.0
 11
18.51819253234967
 21
-22.14080932045638
 31
0.0
  0
LINE
  5
1AE
  8
0
 10
20.34340268049307
 20
-20.31559914939981
 30
0.0
 11
22.16861282657947
 21
-18.49038898040033
 31
0.0
  0
LINE
  5
1AF
  8
0
 10
22.16861282657947
 20
-18.49038898040033
 30
0.0
 11
22.05669277192761
 21
-18.39703875726756
 31
0.0
  0
LINE
  5
1B0
  8
0
 10
23.99382297060876
 20
-16.66517881345792
 30
0.0
 11
25.81903311258095
 21
-14.8399686485726
 31
0.0
  0
LINE
  5
1B1
  8
0
 10
25.81903311258095
 20
-14.8399686485726
 30
0.0
 11
25.68868361623994
 21
-14.76504786759052
 31
0.0
  0
LINE
  5
1B2
  8
0
 10
27.64424325249608
 20
-13.01475848574436
 30
0.0
 11
29.4694533903541
 21
-11.18954832497319
 31
0.0
  0
LINE
  5
1B3
  8
0
 10
12.62448106929339
 20
-27.1983588415665
 30
0.0
 11
12.56074533497359
 21
-27.06104572842214
 31
0.0
  0
LINE
  5
1B4
  8
0
 10
13.04256207557686
 20
-27.61643984596856
 30
0.0
 11
12.62448106929339
 21
-27.1983588415665
 31
0.0
  0
LINE
  5
1B5
  8
0
 10
14.44969122407927
 20
-25.3731486643387
 30
0.0
 11
16.27490137680805
 21
-23.54793848916798
 31
0.0
  0
LINE
  5
1B6
  8
0
 10
16.27490137680805
 20
-23.54793848916798
 30
0.0
 11
16.19273620058243
 21
-23.42905481838147
 31
0.0
  0
LINE
  5
1B7
  8
0
 10
14.37674076879619
 20
-25.24505027238362
 30
0.0
 11
16.19273620058243
 21
-23.42905481838147
 31
0.0
  0
LINE
  5
1B8
  8
0
 10
14.44969122407927
 20
-25.3731486643387
 30
0.0
 11
14.37674076879619
 21
-25.24505027238362
 31
0.0
  0
LINE
  5
1B9
  8
0
 10
16.69298238214914
 20
-23.96601949357003
 30
0.0
 11
16.27490137680805
 21
-23.54793848916798
 31
0.0
  0
LINE
  5
1BA
  8
0
 10
16.60870649018641
 20
-23.84502510705585
 30
0.0
 11
16.19273620058243
 21
-23.42905481838147
 31
0.0
  0
LINE
  5
1BB
  8
0
 10
18.10011152747978
 20
-21.72272831605433
 30
0.0
 11
19.92532167609439
 21
-19.89751814499775
 31
0.0
  0
LINE
  5
1BC
  8
0
 10
19.92532167609439
 20
-19.89751814499775
 30
0.0
 11
19.82472705804583
 21
-19.79706391648625
 31
0.0
  0
LINE
  5
1BD
  8
0
 10
18.00873163033235
 20
-21.61305936641568
 30
0.0
 11
19.82472705804583
 21
-19.79706391648625
 31
0.0
  0
LINE
  5
1BE
  8
0
 10
18.10011152747978
 20
-21.72272831605433
 30
0.0
 11
18.00873163033235
 21
-21.61305936641568
 31
0.0
  0
LINE
  5
1BF
  8
0
 10
21.75053182265196
 20
-18.07230797599828
 30
0.0
 11
23.57574196715245
 21
-16.24709780905587
 31
0.0
  0
LINE
  5
1C0
  8
0
 10
23.57574196715245
 20
-16.24709780905587
 30
0.0
 11
23.4567179073638
 21
-16.16507302273649
 31
0.0
  0
LINE
  5
1C1
  8
0
 10
21.640722483723
 20
-17.98106846859319
 30
0.0
 11
23.4567179073638
 21
-16.16507302273649
 31
0.0
  0
LINE
  5
1C2
  8
0
 10
21.75053182265196
 20
-18.07230797599828
 30
0.0
 11
21.640722483723
 21
-17.98106846859319
 31
0.0
  0
LINE
  5
1C3
  8
0
 10
22.16861282657947
 20
-18.49038898040033
 30
0.0
 11
21.75053182265196
 21
-18.07230797599828
 31
0.0
  0
LINE
  5
1C4
  8
0
 10
22.05669277192761
 20
-18.39703875726756
 30
0.0
 11
21.640722483723
 21
-17.98106846859319
 31
0.0
  0
LINE
  5
1C5
  8
0
 10
25.40095210959585
 20
-14.42188764417055
 30
0.0
 11
27.22616224998215
 21
-12.5966774813423
 31
0.0
  0
LINE
  5
1C6
  8
0
 10
27.22616224998215
 20
-12.5966774813423
 30
0.0
 11
27.08870874853631
 21
-12.53308213713217
 31
0.0
  0
LINE
  5
1C7
  8
0
 10
25.27271332896822
 20
-14.34907757891615
 30
0.0
 11
27.08870874853631
 21
-12.53308213713217
 31
0.0
  0
LINE
  5
1C8
  8
0
 10
25.40095210959585
 20
-14.42188764417055
 30
0.0
 11
25.27271332896822
 21
-14.34907757891615
 31
0.0
  0
LINE
  5
1C9
  8
0
 10
25.81903311258095
 20
-14.8399686485726
 30
0.0
 11
25.40095210959585
 21
-14.42188764417055
 31
0.0
  0
LINE
  5
1CA
  8
0
 10
25.68868361623994
 20
-14.76504786759052
 30
0.0
 11
25.27271332896822
 21
-14.34907757891615
 31
0.0
  0
LINE
  5
1CB
  8
0
 10
29.32067445240682
 20
-11.13305698605891
 30
0.0
 11
29.4694533903541
 21
-11.18954832497319
 31
0.0
  0
LINE
  5
1CC
  8
0
 10
29.95652475138291
 20
-11.13305698387317
 30
0.0
 11
30.10853011981103
 21
-11.18954832276521
 31
0.0
  0
LINE
  5
1CD
  8
0
 10
30.74760684901573
 20
-11.18954832055722
 30
0.0
 11
31.38668357796825
 21
-11.18954831834924
 31
0.0
  0
LINE
  5
1CE
  8
0
 10
31.22822534858618
 20
-11.13305697950167
 30
0.0
 11
31.38668357796825
 21
-11.18954831834924
 31
0.0
  0
LINE
  5
1CF
  8
0
 10
30.10853011981086
 20
-10.59829249431948
 30
0.0
 11
30.74760684901556
 21
-10.59829249222815
 31
0.0
  0
LINE
  5
1D0
  8
0
 10
30.59237505010922
 20
-10.54478615618421
 30
0.0
 11
30.74760684901556
 21
-10.59829249222815
 31
0.0
  0
LINE
  5
1D1
  8
0
 10
29.95652475138275
 20
-10.54478615825447
 30
0.0
 11
30.10853011981086
 21
-10.59829249431948
 31
0.0
  0
LINE
  5
1D2
  8
0
 10
30.10853011981103
 20
-11.18954832276521
 30
0.0
 11
30.10853011981086
 21
-10.59829249431948
 31
0.0
  0
LINE
  5
1D3
  8
0
 10
12.62448106929339
 20
-27.1983588415665
 30
0.0
 11
10.62609608925054
 21
-29.19674384618057
 31
0.0
  0
LINE
  5
1D4
  8
0
 10
10.57244936300667
 20
-32.95355005413155
 30
0.0
 11
10.62609608925164
 21
-33.12076290301017
 31
0.0
  0
LINE
  5
1D5
  8
0
 10
13.23428509638666
 20
-33.12076287633872
 30
0.0
 11
10.62609608925164
 21
-33.12076290301017
 31
0.0
  0
LINE
  5
1D6
  8
0
 10
29.36975042340124
 20
-33.12076271133678
 30
0.0
 11
27.35281726631619
 21
-33.12076273196202
 31
0.0
  0
LINE
  5
1D7
  8
0
 10
27.35281726631619
 20
-33.12076273196202
 30
0.0
 11
27.21472433679068
 21
-32.95354988480613
 31
0.0
  0
LINE
  5
1D8
  8
0
 10
27.35281726631603
 20
-32.5295069030133
 30
0.0
 11
27.35281726631619
 21
-33.12076273196202
 31
0.0
  0
LINE
  5
1D9
  8
0
 10
29.36975042340107
 20
-32.52950688275624
 30
0.0
 11
29.36975042340124
 21
-33.12076271133678
 31
0.0
  0
LINE
  5
1DA
  8
0
 10
25.33588410671922
 20
-33.12076275258726
 30
0.0
 11
23.31895094461027
 21
-33.1207627732125
 31
0.0
  0
LINE
  5
1DB
  8
0
 10
23.31895094461027
 20
-33.1207627732125
 30
0.0
 11
23.20122331504256
 21
-32.95354992564116
 31
0.0
  0
LINE
  5
1DC
  8
0
 10
23.31895094461011
 20
-32.52950694352742
 30
0.0
 11
23.31895094461027
 21
-33.1207627732125
 31
0.0
  0
LINE
  5
1DD
  8
0
 10
25.33588410671905
 20
-32.52950692327036
 30
0.0
 11
25.33588410671922
 21
-33.12076275258726
 31
0.0
  0
LINE
  5
1DE
  8
0
 10
21.30201777998942
 20
-33.12076279383775
 30
0.0
 11
19.28508461285664
 21
-33.12076281446299
 31
0.0
  0
LINE
  5
1DF
  8
0
 10
19.28508461285664
 20
-33.12076281446299
 30
0.0
 11
19.18772228334792
 21
-32.95354996647619
 31
0.0
  0
LINE
  5
1E0
  8
0
 10
19.28508461285647
 20
-32.52950698404155
 30
0.0
 11
19.28508461285664
 21
-33.12076281446299
 31
0.0
  0
LINE
  5
1E1
  8
0
 10
21.30201777998926
 20
-32.52950696378448
 30
0.0
 11
21.30201777998942
 21
-33.12076279383775
 31
0.0
  0
LINE
  5
1E2
  8
0
 10
17.26815144321191
 20
-33.12076283508822
 30
0.0
 11
15.25121827105525
 21
-33.12076285571348
 31
0.0
  0
LINE
  5
1E3
  8
0
 10
15.25121827105525
 20
-33.12076285571348
 30
0.0
 11
15.17422124170667
 21
-32.95355000731122
 31
0.0
  0
LINE
  5
1E4
  8
0
 10
15.25121827105509
 20
-32.52950702455567
 30
0.0
 11
15.25121827105525
 21
-33.12076285571348
 31
0.0
  0
LINE
  5
1E5
  8
0
 10
17.26815144321175
 20
-32.52950700429862
 30
0.0
 11
17.26815144321191
 21
-33.12076283508822
 31
0.0
  0
LINE
  5
1E6
  8
0
 10
13.2342850963865
 20
-32.52950704481274
 30
0.0
 11
13.23428509638666
 21
-33.12076287633872
 31
0.0
  0
LINE
  5
1E7
  8
0
 10
10.62609608925054
 20
-29.19674384618057
 30
0.0
 11
10.62609608924706
 21
-31.2513535927769
 31
0.0
  0
LINE
  5
1E8
  8
0
 10
10.57244936300212
 20
-31.09357860791728
 30
0.0
 11
10.62609608924706
 21
-31.2513535927769
 31
0.0
  0
LINE
  5
1E9
  8
0
 10
10.6260960892432
 20
-31.89043033189248
 30
0.0
 11
10.62609608925164
 21
-33.12076290301017
 31
0.0
  0
LINE
  5
1EA
  8
0
 10
27.21472433679057
 20
-32.52950690440024
 30
0.0
 11
27.21472433679068
 21
-32.95354988480613
 31
0.0
  0
LINE
  5
1EB
  8
0
 10
23.20122331504244
 20
-32.52950694470982
 30
0.0
 11
23.20122331504256
 21
-32.95354992564116
 31
0.0
  0
LINE
  5
1EC
  8
0
 10
19.1877222833478
 20
-32.52950698501941
 30
0.0
 11
19.18772228334792
 21
-32.95354996647619
 31
0.0
  0
LINE
  5
1ED
  8
0
 10
15.17422124170655
 20
-32.529507025329
 30
0.0
 11
15.17422124170667
 21
-32.95355000731122
 31
0.0
  0
LINE
  5
1EE
  8
0
 10
10.57244936299937
 20
-31.89043033242035
 30
0.0
 11
10.57244936300667
 21
-32.95355005413155
 31
0.0
  0
LINE
  5
1EF
  8
0
 10
10.57244936300557
 20
-29.04934172471388
 30
0.0
 11
10.57244936300212
 21
-31.09357860791728
 31
0.0
  0
LINE
  5
1F0
  8
0
 10
10.57244936300557
 20
-29.04934172471388
 30
0.0
 11
12.56074533497359
 21
-27.06104572842214
 31
0.0
  0
LINE
  5
1F1
  8
0
 10
12.97671562551044
 20
-27.47701601709651
 30
0.0
 11
12.56074533497359
 21
-27.06104572842214
 31
0.0
  0
LINE
  5
1F2
  8
0
 10
12.97671562551044
 20
-27.47701601709651
 30
0.0
 11
14.76513709053679
 21
-25.6885945297322
 31
0.0
  0
LINE
  5
1F3
  8
0
 10
16.60870649018641
 20
-23.84502510705585
 30
0.0
 11
18.41555739322627
 21
-22.03817418144783
 31
0.0
  0
LINE
  5
1F4
  8
0
 10
20.24076754148536
 20
-20.21296401039127
 30
0.0
 11
22.05669277192761
 21
-18.39703875726756
 31
0.0
  0
LINE
  5
1F5
  8
0
 10
23.89118783183237
 20
-16.56254367444936
 30
0.0
 11
25.68868361623994
 21
-14.76504786759052
 31
0.0
  0
LINE
  5
1F6
  8
0
 10
27.54160811395105
 20
-12.91212334673581
 30
0.0
 11
29.32067445240682
 21
-11.13305698605891
 31
0.0
  0
LINE
  5
1F7
  8
0
 10
29.32067445240682
 20
-11.13305698605891
 30
0.0
 11
29.95652475138291
 21
-11.13305698387317
 31
0.0
  0
LINE
  5
1F8
  8
0
 10
29.95652475138291
 20
-11.13305698387317
 30
0.0
 11
29.95652475138275
 21
-10.54478615825447
 31
0.0
  0
LINE
  5
1F9
  8
0
 10
29.95652475138275
 20
-10.54478615825447
 30
0.0
 11
30.59237505010922
 21
-10.54478615618421
 31
0.0
  0
LINE
  5
1FA
  8
0
 10
30.74760684901571
 20
-11.13305698115381
 30
0.0
 11
31.22822534858618
 21
-11.13305697950167
 31
0.0
  0
LINE
  5
1FB
  8
0
 10
10.62609608925054
 20
-29.19674384618057
 30
0.0
 11
10.57244936300557
 21
-29.04934172471388
 31
0.0
  0
LINE
  5
1FC
  8
0
 10
9.984178535676183
 20
-31.09357861356105
 30
0.0
 11
9.984178535672328
 21
-31.72942892221407
 31
0.0
  0
LINE
  5
1FD
  8
0
 10
9.984178535672328
 20
-31.72942892221407
 30
0.0
 11
10.03484025907284
 21
-31.89043033771035
 31
0.0
  0
LINE
  5
1FE
  8
0
 10
10.03484025907672
 20
-31.2513535984781
 30
0.0
 11
10.03484025907284
 21
-31.89043033771035
 31
0.0
  0
LINE
  5
1FF
  8
0
 10
9.984178535676183
 20
-31.09357861356105
 30
0.0
 11
10.03484025907672
 21
-31.2513535984781
 31
0.0
  0
LINE
  5
200
  8
0
 10
10.57244936300212
 20
-31.09357860791728
 30
0.0
 11
9.984178535676183
 21
-31.09357861356105
 31
0.0
  0
LINE
  5
201
  8
0
 10
10.62609608924706
 20
-31.2513535927769
 30
0.0
 11
10.03484025907672
 21
-31.2513535984781
 31
0.0
  0
LINE
  5
202
  8
0
 10
31.97793940034381
 20
-13.20648148880029
 30
0.0
 11
31.97793940034437
 21
-15.22341466129411
 31
0.0
  0
LINE
  5
203
  8
0
 10
31.97793940034381
 20
-13.20648148880029
 30
0.0
 11
31.81649616819584
 21
-13.13980749987717
 31
0.0
  0
LINE
  5
204
  8
0
 10
31.38668357796937
 20
-15.22341466407324
 30
0.0
 11
31.97793940034437
 21
-15.22341466129411
 31
0.0
  0
LINE
  5
205
  8
0
 10
31.38668357796881
 20
-13.20648149121124
 30
0.0
 11
31.97793940034381
 21
-13.20648148880029
 31
0.0
  0
LINE
  5
206
  8
0
 10
31.38668357796879
 20
-13.13980750162095
 30
0.0
 11
31.81649616819584
 21
-13.13980749987717
 31
0.0
  0
LINE
  5
207
  8
0
 10
31.97793940034493
 20
-17.24034783378793
 30
0.0
 11
31.97793940034549
 21
-19.25728100628174
 31
0.0
  0
LINE
  5
208
  8
0
 10
31.97793940034493
 20
-17.24034783378793
 30
0.0
 11
31.81649616819696
 21
-17.15330854467253
 31
0.0
  0
LINE
  5
209
  8
0
 10
31.38668357797049
 20
-19.25728100979724
 30
0.0
 11
31.97793940034549
 21
-19.25728100628174
 31
0.0
  0
LINE
  5
20A
  8
0
 10
31.38668357796993
 20
-17.24034783693524
 30
0.0
 11
31.97793940034493
 21
-17.24034783378793
 31
0.0
  0
LINE
  5
20B
  8
0
 10
31.38668357796991
 20
-17.15330854694891
 30
0.0
 11
31.81649616819696
 21
-17.15330854467253
 31
0.0
  0
LINE
  5
20C
  8
0
 10
31.97793940034606
 20
-21.27421417877556
 30
0.0
 11
31.97793940034661
 21
-23.29114735126937
 31
0.0
  0
LINE
  5
20D
  8
0
 10
31.97793940034606
 20
-21.27421417877556
 30
0.0
 11
31.81649616819807
 21
-21.16680958946789
 31
0.0
  0
LINE
  5
20E
  8
0
 10
31.38668357797162
 20
-23.29114735552123
 30
0.0
 11
31.97793940034661
 21
-23.29114735126937
 31
0.0
  0
LINE
  5
20F
  8
0
 10
31.38668357797105
 20
-21.27421418265924
 30
0.0
 11
31.97793940034606
 21
-21.27421417877556
 31
0.0
  0
LINE
  5
210
  8
0
 10
31.38668357797102
 20
-21.16680959227687
 30
0.0
 11
31.81649616819807
 21
-21.16680958946789
 31
0.0
  0
LINE
  5
211
  8
0
 10
31.97793940034717
 20
-25.30808052376319
 30
0.0
 11
31.81649616819918
 21
-25.18031063426325
 31
0.0
  0
LINE
  5
212
  8
0
 10
31.97793940034717
 20
-25.30808052376319
 30
0.0
 11
31.97793940034773
 21
-27.32501369625701
 31
0.0
  0
LINE
  5
213
  8
0
 10
31.38668357797214
 20
-25.18031063760483
 30
0.0
 11
31.81649616819918
 21
-25.18031063426325
 31
0.0
  0
LINE
  5
214
  8
0
 10
31.38668357797218
 20
-25.30808052838324
 30
0.0
 11
31.97793940034717
 21
-25.30808052376319
 31
0.0
  0
LINE
  5
215
  8
0
 10
31.38668357797274
 20
-27.32501370124523
 30
0.0
 11
31.97793940034773
 21
-27.32501369625701
 31
0.0
  0
LINE
  5
216
  8
0
 10
31.9779394003483
 20
-29.34194686875082
 30
0.0
 11
31.8164961682003
 21
-29.19381167905862
 31
0.0
  0
LINE
  5
217
  8
0
 10
31.9779394003483
 20
-29.34194686875082
 30
0.0
 11
31.97793940034918
 21
-32.52950685656089
 31
0.0
  0
LINE
  5
218
  8
0
 10
31.38668357797326
 20
-29.19381168293279
 30
0.0
 11
31.8164961682003
 21
-29.19381167905862
 31
0.0
  0
LINE
  5
219
  8
0
 10
31.3866835779733
 20
-29.34194687410723
 30
0.0
 11
31.9779394003483
 21
-29.34194686875082
 31
0.0
  0
LINE
  5
21A
  8
0
 10
16.73549073941304
 20
34.66578638405898
 30
0.0
 11
16.73549073941264
 21
29.87661414279711
 31
0.0
  0
LINE
  5
21B
  8
0
 10
14.81826052124512
 20
-3.765842712420536
 30
0.0
 11
15.45733726063119
 21
-3.765842712420137
 31
0.0
  0
LINE
  5
21C
  8
0
 10
15.45733726063131
 20
-3.174586880167826
 30
0.0
 11
15.45733726063119
 21
-3.765842712420137
 31
0.0
  0
LINE
  5
21D
  8
0
 10
16.09641400001727
 20
-3.76584271241971
 30
0.0
 11
17.32674657165574
 21
-3.765842712418925
 31
0.0
  0
LINE
  5
21E
  8
0
 10
16.09641400001727
 20
-3.76584271241971
 30
0.0
 11
16.01514995272803
 21
-3.746830551057213
 31
0.0
  0
LINE
  5
21F
  8
0
 10
16.09641400001741
 20
-3.17458688016742
 30
0.0
 11
16.09641400001727
 21
-3.76584271241971
 31
0.0
  0
LINE
  5
220
  8
0
 10
16.01514995272816
 20
-3.174586880167471
 30
0.0
 11
16.01514995272803
 21
-3.746830551057213
 31
0.0
  0
LINE
  5
221
  8
0
 10
15.45733726063822
 20
34.66578638405817
 30
0.0
 11
13.3689233153286
 21
34.66578638405684
 31
0.0
  0
LINE
  5
222
  8
0
 10
15.4573372606381
 20
34.07453055180343
 30
0.0
 11
15.45733726063822
 21
34.66578638405817
 31
0.0
  0
LINE
  5
223
  8
0
 10
16.09641400002563
 20
34.66578638405857
 30
0.0
 11
16.01514995273618
 21
34.49077335917144
 31
0.0
  0
LINE
  5
224
  8
0
 10
16.73549073941304
 20
34.66578638405898
 30
0.0
 11
16.09641400002563
 21
34.66578638405857
 31
0.0
  0
LINE
  5
225
  8
0
 10
16.01514995273608
 20
34.07453055180378
 30
0.0
 11
16.01514995273618
 21
34.49077335917144
 31
0.0
  0
LINE
  5
226
  8
0
 10
16.09641400002549
 20
34.07453055180383
 30
0.0
 11
16.09641400002563
 21
34.66578638405857
 31
0.0
  0
LINE
  5
227
  8
0
 10
14.8182605212509
 20
29.87661414279588
 30
0.0
 11
14.7434493351231
 21
29.72577964111842
 31
0.0
  0
LINE
  5
228
  8
0
 10
14.8182605212509
 20
29.87661414279588
 30
0.0
 11
14.81826052125029
 21
26.26995356604448
 31
0.0
  0
LINE
  5
229
  8
0
 10
14.7434493351231
 20
29.72577964111842
 30
0.0
 11
14.74344933512252
 21
26.26995356604443
 31
0.0
  0
LINE
  5
22A
  8
0
 10
14.81826052124966
 20
22.66329298929448
 30
0.0
 11
14.7434493351219
 21
22.54887552257471
 31
0.0
  0
LINE
  5
22B
  8
0
 10
14.81826052124966
 20
22.66329298929448
 30
0.0
 11
14.81826052124904
 21
19.05663241254589
 31
0.0
  0
LINE
  5
22C
  8
0
 10
14.7434493351219
 20
22.54887552257471
 30
0.0
 11
14.74344933512132
 21
19.05663241254585
 31
0.0
  0
LINE
  5
22D
  8
0
 10
14.81826052124842
 20
15.44997183579872
 30
0.0
 11
14.7434493351207
 21
15.37197140403661
 31
0.0
  0
LINE
  5
22E
  8
0
 10
14.81826052124842
 20
15.44997183579872
 30
0.0
 11
14.8182605212478
 21
11.84331125905297
 31
0.0
  0
LINE
  5
22F
  8
0
 10
14.7434493351207
 20
15.37197140403661
 30
0.0
 11
14.7434493351201
 21
11.84331125905292
 31
0.0
  0
LINE
  5
230
  8
0
 10
14.81826052124718
 20
8.236650682308628
 30
0.0
 11
14.74344933511948
 21
8.195067285504111
 31
0.0
  0
LINE
  5
231
  8
0
 10
14.81826052124718
 20
8.236650682308628
 30
0.0
 11
14.81826052124656
 21
4.629990105565704
 31
0.0
  0
LINE
  5
232
  8
0
 10
14.74344933511948
 20
8.195067285504111
 30
0.0
 11
14.74344933511889
 21
4.629990105565656
 31
0.0
  0
LINE
  5
233
  8
0
 10
14.81826052124594
 20
1.023329528824193
 30
0.0
 11
14.74344933511828
 21
1.018163166977213
 31
0.0
  0
LINE
  5
234
  8
0
 10
14.81826052124594
 20
1.023329528824193
 30
0.0
 11
14.81826052124512
 21
-3.765842712420536
 31
0.0
  0
LINE
  5
235
  8
0
 10
14.74344933511828
 20
1.018163166977213
 30
0.0
 11
14.74344933511748
 21
-3.746830551058036
 31
0.0
  0
LINE
  5
236
  8
0
 10
14.81826052124512
 20
-3.765842712420536
 30
0.0
 11
14.74344933511748
 21
-3.746830551058036
 31
0.0
  0
LINE
  5
237
  8
0
 10
13.30142922524716
 20
34.49077335916972
 30
0.0
 11
13.30142922524765
 21
29.7257796411175
 31
0.0
  0
LINE
  5
238
  8
0
 10
13.36892331532907
 20
29.87661414279496
 30
0.0
 11
13.30142922524765
 21
29.7257796411175
 31
0.0
  0
LINE
  5
239
  8
0
 10
13.3689233153286
 20
34.66578638405684
 30
0.0
 11
13.36892331532907
 21
29.87661414279496
 31
0.0
  0
LINE
  5
23A
  8
0
 10
13.3689233153286
 20
34.66578638405684
 30
0.0
 11
13.30142922524716
 21
34.49077335916972
 31
0.0
  0
LINE
  5
23B
  8
0
 10
14.7434493351231
 20
29.72577964111842
 30
0.0
 11
13.30142922524765
 21
29.7257796411175
 31
0.0
  0
LINE
  5
23C
  8
0
 10
14.8182605212509
 20
29.87661414279588
 30
0.0
 11
13.36892331532907
 21
29.87661414279496
 31
0.0
  0
LINE
  5
23D
  8
0
 10
13.30142922524734
 20
26.13732758184496
 30
0.0
 11
13.30142922524701
 21
22.5488755225738
 31
0.0
  0
LINE
  5
23E
  8
0
 10
13.36892331532841
 20
22.66329298929356
 30
0.0
 11
13.30142922524701
 21
22.5488755225738
 31
0.0
  0
LINE
  5
23F
  8
0
 10
13.36892331532875
 20
26.26995356604356
 30
0.0
 11
13.36892331532841
 21
22.66329298929356
 31
0.0
  0
LINE
  5
240
  8
0
 10
13.36892331532875
 20
26.26995356604356
 30
0.0
 11
13.30142922524734
 21
26.13732758184496
 31
0.0
  0
LINE
  5
241
  8
0
 10
14.7434493351219
 20
22.54887552257471
 30
0.0
 11
13.30142922524701
 21
22.5488755225738
 31
0.0
  0
LINE
  5
242
  8
0
 10
14.81826052124966
 20
22.66329298929448
 30
0.0
 11
13.36892331532841
 21
22.66329298929356
 31
0.0
  0
LINE
  5
243
  8
0
 10
13.3014292252467
 20
18.96042346330405
 30
0.0
 11
13.30142922524638
 21
15.3719714040357
 31
0.0
  0
LINE
  5
244
  8
0
 10
13.36892331532775
 20
15.44997183579781
 30
0.0
 11
13.30142922524638
 21
15.3719714040357
 31
0.0
  0
LINE
  5
245
  8
0
 10
13.36892331532808
 20
19.05663241254497
 30
0.0
 11
13.36892331532775
 21
15.44997183579781
 31
0.0
  0
LINE
  5
246
  8
0
 10
13.36892331532808
 20
19.05663241254497
 30
0.0
 11
13.3014292252467
 21
18.96042346330405
 31
0.0
  0
LINE
  5
247
  8
0
 10
14.7434493351207
 20
15.37197140403661
 30
0.0
 11
13.30142922524638
 21
15.3719714040357
 31
0.0
  0
LINE
  5
248
  8
0
 10
14.81826052124842
 20
15.44997183579872
 30
0.0
 11
13.36892331532775
 21
15.44997183579781
 31
0.0
  0
LINE
  5
249
  8
0
 10
13.33506275985991
 20
11.78351934476877
 30
0.0
 11
13.33506275985958
 21
8.19506728550322
 31
0.0
  0
LINE
  5
24A
  8
0
 10
13.40272751316639
 20
8.236650682307731
 30
0.0
 11
13.33506275985958
 21
8.19506728550322
 31
0.0
  0
LINE
  5
24B
  8
0
 10
13.40272751316673
 20
11.84331125905207
 30
0.0
 11
13.40272751316639
 21
8.236650682307731
 31
0.0
  0
LINE
  5
24C
  8
0
 10
13.40272751316673
 20
11.84331125905207
 30
0.0
 11
13.33506275985991
 21
11.78351934476877
 31
0.0
  0
LINE
  5
24D
  8
0
 10
14.74344933511948
 20
8.195067285504111
 30
0.0
 11
13.33506275985958
 21
8.19506728550322
 31
0.0
  0
LINE
  5
24E
  8
0
 10
14.81826052124718
 20
8.236650682308628
 30
0.0
 11
13.40272751316639
 21
8.236650682307731
 31
0.0
  0
LINE
  5
24F
  8
0
 10
13.33506275985926
 20
4.606615226239071
 30
0.0
 11
13.33506275985893
 21
1.018163166976321
 31
0.0
  0
LINE
  5
250
  8
0
 10
13.40272751316572
 20
1.023329528823296
 30
0.0
 11
13.33506275985893
 21
1.018163166976321
 31
0.0
  0
LINE
  5
251
  8
0
 10
13.40272751316606
 20
4.629990105564807
 30
0.0
 11
13.40272751316572
 21
1.023329528823296
 31
0.0
  0
LINE
  5
252
  8
0
 10
13.40272751316606
 20
4.629990105564807
 30
0.0
 11
13.33506275985926
 21
4.606615226239071
 31
0.0
  0
LINE
  5
253
  8
0
 10
14.74344933511828
 20
1.018163166977213
 30
0.0
 11
13.33506275985893
 21
1.018163166976321
 31
0.0
  0
LINE
  5
254
  8
0
 10
14.81826052124594
 20
1.023329528824193
 30
0.0
 11
13.40272751316572
 21
1.023329528823296
 31
0.0
  0
LINE
  5
255
  8
0
 10
17.32674657166611
 20
29.87661414279748
 30
0.0
 11
17.32674657166501
 21
26.26995356604607
 31
0.0
  0
LINE
  5
256
  8
0
 10
17.32674657166501
 20
26.26995356604607
 30
0.0
 11
17.2392710909294
 21
26.13732758184745
 31
0.0
  0
LINE
  5
257
  8
0
 10
16.73549073941161
 20
26.13732758184713
 30
0.0
 11
17.2392710909294
 21
26.13732758184745
 31
0.0
  0
LINE
  5
258
  8
0
 10
16.73549073941264
 20
29.87661414279711
 30
0.0
 11
17.32674657166611
 21
29.87661414279748
 31
0.0
  0
LINE
  5
259
  8
0
 10
16.73549073941164
 20
26.2699535660457
 30
0.0
 11
17.32674657166501
 21
26.26995356604607
 31
0.0
  0
LINE
  5
25A
  8
0
 10
17.32674657166389
 20
22.66329298929607
 30
0.0
 11
17.32674657166278
 21
19.05663241254749
 31
0.0
  0
LINE
  5
25B
  8
0
 10
17.32674657166278
 20
19.05663241254749
 30
0.0
 11
17.23927109092723
 21
18.96042346330656
 31
0.0
  0
LINE
  5
25C
  8
0
 10
16.73549073940962
 20
18.96042346330624
 30
0.0
 11
17.23927109092723
 21
18.96042346330656
 31
0.0
  0
LINE
  5
25D
  8
0
 10
16.73549073941065
 20
22.6632929892957
 30
0.0
 11
17.32674657166389
 21
22.66329298929607
 31
0.0
  0
LINE
  5
25E
  8
0
 10
16.73549073940965
 20
19.05663241254712
 30
0.0
 11
17.32674657166278
 21
19.05663241254749
 31
0.0
  0
LINE
  5
25F
  8
0
 10
17.32674657166167
 20
15.44997183580033
 30
0.0
 11
17.32674657166055
 21
11.84331125905457
 31
0.0
  0
LINE
  5
260
  8
0
 10
17.32674657166055
 20
11.84331125905457
 30
0.0
 11
17.23927109092504
 21
11.78351934477126
 31
0.0
  0
LINE
  5
261
  8
0
 10
16.73549073940764
 20
11.78351934477094
 30
0.0
 11
17.23927109092504
 21
11.78351934477126
 31
0.0
  0
LINE
  5
262
  8
0
 10
16.73549073940865
 20
15.44997183579995
 30
0.0
 11
17.32674657166167
 21
15.44997183580033
 31
0.0
  0
LINE
  5
263
  8
0
 10
16.73549073940766
 20
11.8433112590542
 30
0.0
 11
17.32674657166055
 21
11.84331125905457
 31
0.0
  0
LINE
  5
264
  8
0
 10
17.32674657165944
 20
8.23665068231024
 30
0.0
 11
17.32674657165833
 21
4.629990105567315
 31
0.0
  0
LINE
  5
265
  8
0
 10
17.32674657165833
 20
4.629990105567315
 30
0.0
 11
17.23927109092286
 21
4.606615226241565
 31
0.0
  0
LINE
  5
266
  8
0
 10
16.73549073940566
 20
4.606615226241247
 30
0.0
 11
17.23927109092286
 21
4.606615226241565
 31
0.0
  0
LINE
  5
267
  8
0
 10
16.73549073940666
 20
8.236650682309866
 30
0.0
 11
17.32674657165944
 21
8.23665068231024
 31
0.0
  0
LINE
  5
268
  8
0
 10
16.73549073940567
 20
4.629990105566941
 30
0.0
 11
17.32674657165833
 21
4.629990105567315
 31
0.0
  0
LINE
  5
269
  8
0
 10
17.32674657165721
 20
1.023329528825804
 30
0.0
 11
17.32674657165574
 21
-3.765842712418925
 31
0.0
  0
LINE
  5
26A
  8
0
 10
16.73549073940467
 20
1.02332952882543
 30
0.0
 11
17.32674657165721
 21
1.023329528825804
 31
0.0
  0
LINE
  5
26B
  8
0
 10
11.59515581852499
 20
34.6657863840606
 30
0.0
 11
11.59515581854603
 21
29.87661414280652
 31
0.0
  0
LINE
  5
26C
  8
0
 10
10.31700233991003
 20
-3.174586880177303
 30
0.0
 11
10.26491611958567
 21
-3.158559721683817
 31
0.0
  0
LINE
  5
26D
  8
0
 10
10.95607907929992
 20
-3.765842712428249
 30
0.0
 11
12.18641165094094
 21
-3.765842712423058
 31
0.0
  0
LINE
  5
26E
  8
0
 10
10.95607907929992
 20
-3.765842712428249
 30
0.0
 11
10.90076642839473
 21
-3.746830551069397
 31
0.0
  0
LINE
  5
26F
  8
0
 10
10.95607907929744
 20
-3.174586880174616
 30
0.0
 11
10.95607907929992
 21
-3.765842712428249
 31
0.0
  0
LINE
  5
270
  8
0
 10
10.90076642839232
 20
-3.174586880174849
 30
0.0
 11
10.90076642839473
 21
-3.746830551069397
 31
0.0
  0
LINE
  5
271
  8
0
 10
10.31700233975019
 20
34.66578638405529
 30
0.0
 11
9.08666976810922
 21
34.66578638405035
 31
0.0
  0
LINE
  5
272
  8
0
 10
10.31700233975267
 20
34.07453055180164
 30
0.0
 11
10.31700233975019
 21
34.66578638405529
 31
0.0
  0
LINE
  5
273
  8
0
 10
10.95607907913759
 20
34.66578638405795
 30
0.0
 11
10.90076642823322
 21
34.49077335916709
 31
0.0
  0
LINE
  5
274
  8
0
 10
11.59515581852499
 20
34.6657863840606
 30
0.0
 11
10.95607907913759
 21
34.66578638405795
 31
0.0
  0
LINE
  5
275
  8
0
 10
10.90076642823497
 20
34.07453055180407
 30
0.0
 11
10.90076642823322
 21
34.49077335916709
 31
0.0
  0
LINE
  5
276
  8
0
 10
10.95607907914007
 20
34.0745305518043
 30
0.0
 11
10.95607907913759
 21
34.66578638405795
 31
0.0
  0
LINE
  5
277
  8
0
 10
10.31700233977123
 20
29.87661414280119
 30
0.0
 11
10.26491611944756
 21
29.72577964111994
 31
0.0
  0
LINE
  5
278
  8
0
 10
10.31700233977123
 20
29.87661414280119
 30
0.0
 11
10.31700233978637
 21
26.26995356605399
 31
0.0
  0
LINE
  5
279
  8
0
 10
10.26491611944756
 20
29.72577964111994
 30
0.0
 11
10.26491611946208
 21
26.26995356605377
 31
0.0
  0
LINE
  5
27A
  8
0
 10
10.31700233980152
 20
22.66329298930678
 30
0.0
 11
10.2649161194777
 21
22.54887552258316
 31
0.0
  0
LINE
  5
27B
  8
0
 10
10.31700233980152
 20
22.66329298930678
 30
0.0
 11
10.31700233981666
 21
19.05663241255957
 31
0.0
  0
LINE
  5
27C
  8
0
 10
10.2649161194777
 20
22.54887552258316
 30
0.0
 11
10.26491611949237
 21
19.05663241255936
 31
0.0
  0
LINE
  5
27D
  8
0
 10
10.31700233983181
 20
15.44997183581236
 30
0.0
 11
10.26491611950784
 21
15.37197140404638
 31
0.0
  0
LINE
  5
27E
  8
0
 10
10.31700233983181
 20
15.44997183581236
 30
0.0
 11
10.31700233984695
 21
11.84331125906516
 31
0.0
  0
LINE
  5
27F
  8
0
 10
10.26491611950784
 20
15.37197140404638
 30
0.0
 11
10.26491611952266
 21
11.84331125906494
 31
0.0
  0
LINE
  5
280
  8
0
 10
10.31700233986211
 20
8.236650682317961
 30
0.0
 11
10.26491611953799
 21
8.195067285509612
 31
0.0
  0
LINE
  5
281
  8
0
 10
10.31700233986211
 20
8.236650682317961
 30
0.0
 11
10.31700233987725
 21
4.629990105570744
 31
0.0
  0
LINE
  5
282
  8
0
 10
10.26491611953799
 20
8.195067285509612
 30
0.0
 11
10.26491611955296
 21
4.629990105570526
 31
0.0
  0
LINE
  5
283
  8
0
 10
10.3170023398924
 20
1.023329528823527
 30
0.0
 11
10.26491611956812
 21
1.018163166972815
 31
0.0
  0
LINE
  5
284
  8
0
 10
10.3170023398924
 20
1.023329528823527
 30
0.0
 11
10.31700233991003
 21
-3.174586880177303
 31
0.0
  0
LINE
  5
285
  8
0
 10
10.26491611956812
 20
1.018163166972815
 30
0.0
 11
10.26491611958567
 21
-3.158559721683817
 31
0.0
  0
LINE
  5
286
  8
0
 10
9.040794981231858
 20
34.49077335915954
 30
0.0
 11
9.040794981252784
 21
29.725779641115
 31
0.0
  0
LINE
  5
287
  8
0
 10
9.086669768130252
 20
29.87661414279624
 30
0.0
 11
9.040794981252784
 21
29.725779641115
 31
0.0
  0
LINE
  5
288
  8
0
 10
9.08666976810922
 20
34.66578638405035
 30
0.0
 11
9.086669768130252
 21
29.87661414279624
 31
0.0
  0
LINE
  5
289
  8
0
 10
9.08666976810922
 20
34.66578638405035
 30
0.0
 11
9.040794981231858
 21
34.49077335915954
 31
0.0
  0
LINE
  5
28A
  8
0
 10
10.26491611944756
 20
29.72577964111994
 30
0.0
 11
9.040794981252784
 21
29.725779641115
 31
0.0
  0
LINE
  5
28B
  8
0
 10
10.31700233977123
 20
29.87661414280119
 30
0.0
 11
9.086669768130252
 21
29.87661414279624
 31
0.0
  0
LINE
  5
28C
  8
0
 10
9.040794981267798
 20
26.13732758184645
 30
0.0
 11
9.040794981282865
 21
22.54887552257806
 31
0.0
  0
LINE
  5
28D
  8
0
 10
9.086669768160483
 20
22.66329298930166
 30
0.0
 11
9.040794981282865
 21
22.54887552257806
 31
0.0
  0
LINE
  5
28E
  8
0
 10
9.086669768145336
 20
26.26995356604887
 30
0.0
 11
9.086669768160483
 21
22.66329298930166
 31
0.0
  0
LINE
  5
28F
  8
0
 10
9.086669768145336
 20
26.26995356604887
 30
0.0
 11
9.040794981267798
 21
26.13732758184645
 31
0.0
  0
LINE
  5
290
  8
0
 10
10.2649161194777
 20
22.54887552258316
 30
0.0
 11
9.040794981282865
 21
22.54887552257806
 31
0.0
  0
LINE
  5
291
  8
0
 10
10.31700233980152
 20
22.66329298930678
 30
0.0
 11
9.086669768160483
 21
22.66329298930166
 31
0.0
  0
LINE
  5
292
  8
0
 10
9.040794981297937
 20
18.96042346330966
 30
0.0
 11
9.040794981313008
 21
15.37197140404127
 31
0.0
  0
LINE
  5
293
  8
0
 10
9.086669768190779
 20
15.44997183580723
 30
0.0
 11
9.040794981313008
 21
15.37197140404127
 31
0.0
  0
LINE
  5
294
  8
0
 10
9.086669768175632
 20
19.05663241255444
 30
0.0
 11
9.086669768190779
 21
15.44997183580723
 31
0.0
  0
LINE
  5
295
  8
0
 10
9.086669768175632
 20
19.05663241255444
 30
0.0
 11
9.040794981297937
 21
18.96042346330966
 31
0.0
  0
LINE
  5
296
  8
0
 10
10.26491611950784
 20
15.37197140404638
 30
0.0
 11
9.040794981313008
 21
15.37197140404127
 31
0.0
  0
LINE
  5
297
  8
0
 10
10.31700233983181
 20
15.44997183581236
 30
0.0
 11
9.086669768190779
 21
15.44997183580723
 31
0.0
  0
LINE
  5
298
  8
0
 10
9.040794981328075
 20
11.78351934477287
 30
0.0
 11
9.040794981343147
 21
8.195067285504484
 31
0.0
  0
LINE
  5
299
  8
0
 10
9.08666976822107
 20
8.236650682312808
 30
0.0
 11
9.040794981343147
 21
8.195067285504484
 31
0.0
  0
LINE
  5
29A
  8
0
 10
9.086669768205924
 20
11.84331125906001
 30
0.0
 11
9.08666976822107
 21
8.236650682312808
 31
0.0
  0
LINE
  5
29B
  8
0
 10
9.086669768205924
 20
11.84331125906001
 30
0.0
 11
9.040794981328075
 21
11.78351934477287
 31
0.0
  0
LINE
  5
29C
  8
0
 10
10.26491611953799
 20
8.195067285509612
 30
0.0
 11
9.040794981343147
 21
8.195067285504484
 31
0.0
  0
LINE
  5
29D
  8
0
 10
10.31700233986211
 20
8.236650682317961
 30
0.0
 11
9.08666976822107
 21
8.236650682312808
 31
0.0
  0
LINE
  5
29E
  8
0
 10
9.040794981358216
 20
4.606615226236078
 30
0.0
 11
9.040794981373288
 21
1.018163166967672
 31
0.0
  0
LINE
  5
29F
  8
0
 10
9.086669768251364
 20
1.023329528818359
 30
0.0
 11
9.040794981373288
 21
1.018163166967672
 31
0.0
  0
LINE
  5
2A0
  8
0
 10
9.086669768236217
 20
4.629990105565583
 30
0.0
 11
9.086669768251364
 21
1.023329528818359
 31
0.0
  0
LINE
  5
2A1
  8
0
 10
9.086669768236217
 20
4.629990105565583
 30
0.0
 11
9.040794981358216
 21
4.606615226236078
 31
0.0
  0
LINE
  5
2A2
  8
0
 10
10.26491611956812
 20
1.018163166972815
 30
0.0
 11
9.040794981373288
 21
1.018163166967672
 31
0.0
  0
LINE
  5
2A3
  8
0
 10
10.3170023398924
 20
1.023329528823527
 30
0.0
 11
9.086669768251364
 21
1.023329528818359
 31
0.0
  0
LINE
  5
2A4
  8
0
 10
12.18641165079965
 20
29.87661414280897
 30
0.0
 11
12.1864116508148
 21
26.26995356606177
 31
0.0
  0
LINE
  5
2A5
  8
0
 10
12.1864116508148
 20
26.26995356606177
 30
0.0
 11
12.12488756646405
 21
26.13732758185929
 31
0.0
  0
LINE
  5
2A6
  8
0
 10
11.59515581856173
 20
26.13732758185708
 30
0.0
 11
12.12488756646405
 21
26.13732758185929
 31
0.0
  0
LINE
  5
2A7
  8
0
 10
11.59515581854603
 20
29.87661414280652
 30
0.0
 11
12.18641165079965
 21
29.87661414280897
 31
0.0
  0
LINE
  5
2A8
  8
0
 10
11.59515581856118
 20
26.26995356605931
 30
0.0
 11
12.1864116508148
 21
26.26995356606177
 31
0.0
  0
LINE
  5
2A9
  8
0
 10
12.18641165082994
 20
22.66329298931458
 30
0.0
 11
12.18641165084509
 21
19.05663241256739
 31
0.0
  0
LINE
  5
2AA
  8
0
 10
12.18641165084509
 20
19.05663241256739
 30
0.0
 11
12.12488756649419
 21
18.96042346332254
 31
0.0
  0
LINE
  5
2AB
  8
0
 10
11.59515581859187
 20
18.96042346332033
 30
0.0
 11
12.12488756649419
 21
18.96042346332254
 31
0.0
  0
LINE
  5
2AC
  8
0
 10
11.59515581857632
 20
22.66329298931212
 30
0.0
 11
12.18641165082994
 21
22.66329298931458
 31
0.0
  0
LINE
  5
2AD
  8
0
 10
11.59515581859147
 20
19.05663241256492
 30
0.0
 11
12.18641165084509
 21
19.05663241256739
 31
0.0
  0
LINE
  5
2AE
  8
0
 10
12.18641165086024
 20
15.44997183582019
 30
0.0
 11
12.18641165087539
 21
11.843311259073
 31
0.0
  0
LINE
  5
2AF
  8
0
 10
12.18641165087539
 20
11.843311259073
 30
0.0
 11
12.12488756652433
 21
11.78351934478579
 31
0.0
  0
LINE
  5
2B0
  8
0
 10
11.59515581862201
 20
11.78351934478358
 30
0.0
 11
12.12488756652433
 21
11.78351934478579
 31
0.0
  0
LINE
  5
2B1
  8
0
 10
11.59515581860662
 20
15.44997183581772
 30
0.0
 11
12.18641165086024
 21
15.44997183582019
 31
0.0
  0
LINE
  5
2B2
  8
0
 10
11.59515581862176
 20
11.84331125907053
 30
0.0
 11
12.18641165087539
 21
11.843311259073
 31
0.0
  0
LINE
  5
2B3
  8
0
 10
12.18641165089053
 20
8.236650682325788
 30
0.0
 11
12.18641165090568
 21
4.629990105578602
 31
0.0
  0
LINE
  5
2B4
  8
0
 10
12.18641165090568
 20
4.629990105578602
 30
0.0
 11
12.12488756655447
 21
4.606615226249032
 31
0.0
  0
LINE
  5
2B5
  8
0
 10
11.59515581865216
 20
4.606615226246812
 30
0.0
 11
12.12488756655447
 21
4.606615226249032
 31
0.0
  0
LINE
  5
2B6
  8
0
 10
11.59515581863691
 20
8.236650682323315
 30
0.0
 11
12.18641165089053
 21
8.236650682325788
 31
0.0
  0
LINE
  5
2B7
  8
0
 10
11.59515581865206
 20
4.629990105576126
 30
0.0
 11
12.18641165090568
 21
4.629990105578602
 31
0.0
  0
LINE
  5
2B8
  8
0
 10
12.18641165092083
 20
1.023329528831415
 30
0.0
 11
12.18641165094094
 21
-3.765842712423058
 31
0.0
  0
LINE
  5
2B9
  8
0
 10
11.59515581866721
 20
1.023329528828935
 30
0.0
 11
12.18641165092083
 21
1.023329528831415
 31
0.0
  0
LINE
  5
2BA
  8
0
 10
-25.98954071188762
 20
-30.18548598291363
 30
0.0
 11
0.4826466105764309
 21
-30.18548598291363
 31
0.0
  0
LINE
  5
2BB
  8
0
 10
-25.93400546855064
 20
-13.19489536216524
 30
0.0
 11
-25.98954071188762
 21
-30.18548598291363
 31
0.0
  0
LINE
  5
2BC
  8
0
 10
0.4826466105764309
 20
-30.18548598291363
 30
0.0
 11
0.5381818539134046
 21
-13.19489536216524
 31
0.0
  0
LINE
  5
2BD
  8
0
 10
-26.12141679619992
 20
-30.33865312575081
 30
0.0
 11
0.4850956552061512
 21
-30.33865312575081
 31
0.0
  0
LINE
  5
2BE
  8
0
 10
-26.06538091255334
 20
-13.19489536216524
 30
0.0
 11
-26.12141679619992
 21
-30.33865312575081
 31
0.0
  0
LINE
  5
2BF
  8
0
 10
-25.98954071188762
 20
-30.18548598291363
 30
0.0
 11
-26.12141679619992
 21
-30.33865312575081
 31
0.0
  0
LINE
  5
2C0
  8
0
 10
0.4826466105764309
 20
-30.18548598291363
 30
0.0
 11
0.4850956552061512
 21
-30.33865312575081
 31
0.0
  0
LINE
  5
2C1
  8
0
 10
6.421107886415472
 20
-31.29229194732927
 30
0.0
 11
6.453689861387425
 21
-31.45107524315271
 31
0.0
  0
LINE
  5
2C2
  8
0
 10
6.453689861387425
 20
-31.45107524315271
 30
0.0
 11
6.453689861387421
 21
-34.90228871695972
 31
0.0
  0
LINE
  5
2C3
  8
0
 10
5.862434029133953
 20
-31.29229194732927
 30
0.0
 11
6.421107886415472
 21
-31.29229194732927
 31
0.0
  0
LINE
  5
2C4
  8
0
 10
5.862434029133953
 20
-31.45107524315271
 30
0.0
 11
6.453689861387425
 21
-31.45107524315271
 31
0.0
  0
LINE
  5
2C5
  8
0
 10
6.45368986138742
 20
-26.28860130458231
 30
0.0
 11
6.45368986138742
 21
-28.86983827386751
 31
0.0
  0
LINE
  5
2C6
  8
0
 10
6.421107886415466
 20
-26.15588117576449
 30
0.0
 11
6.45368986138742
 21
-26.28860130458231
 31
0.0
  0
LINE
  5
2C7
  8
0
 10
5.862434029133953
 20
-28.86983827386751
 30
0.0
 11
6.45368986138742
 21
-28.86983827386751
 31
0.0
  0
LINE
  5
2C8
  8
0
 10
5.862434029133953
 20
-26.28860130458231
 30
0.0
 11
6.45368986138742
 21
-26.28860130458231
 31
0.0
  0
LINE
  5
2C9
  8
0
 10
5.862434029133953
 20
-26.15588117576449
 30
0.0
 11
6.421107886415466
 21
-26.15588117576449
 31
0.0
  0
LINE
  5
2CA
  8
0
 10
6.45368986138742
 20
-21.12612736601191
 30
0.0
 11
6.45368986138742
 21
-23.70736433529711
 31
0.0
  0
LINE
  5
2CB
  8
0
 10
6.421107886415466
 20
-21.01947040419972
 30
0.0
 11
6.45368986138742
 21
-21.12612736601191
 31
0.0
  0
LINE
  5
2CC
  8
0
 10
5.862434029133953
 20
-23.70736433529711
 30
0.0
 11
6.45368986138742
 21
-23.70736433529711
 31
0.0
  0
LINE
  5
2CD
  8
0
 10
5.862434029133953
 20
-21.12612736601191
 30
0.0
 11
6.45368986138742
 21
-21.12612736601191
 31
0.0
  0
LINE
  5
2CE
  8
0
 10
5.862434029133953
 20
-21.01947040419972
 30
0.0
 11
6.421107886415466
 21
-21.01947040419972
 31
0.0
  0
LINE
  5
2CF
  8
0
 10
6.453689861387419
 20
-15.9636534274415
 30
0.0
 11
6.45368986138742
 21
-18.54489039672671
 31
0.0
  0
LINE
  5
2D0
  8
0
 10
6.421107886415466
 20
-15.88305963263494
 30
0.0
 11
6.453689861387419
 21
-15.9636534274415
 31
0.0
  0
LINE
  5
2D1
  8
0
 10
5.862434029133953
 20
-18.54489039672671
 30
0.0
 11
6.45368986138742
 21
-18.54489039672671
 31
0.0
  0
LINE
  5
2D2
  8
0
 10
5.862434029133953
 20
-15.9636534274415
 30
0.0
 11
6.453689861387419
 21
-15.9636534274415
 31
0.0
  0
LINE
  5
2D3
  8
0
 10
5.862434029133953
 20
-15.88305963263494
 30
0.0
 11
6.421107886415466
 21
-15.88305963263494
 31
0.0
  0
LINE
  5
2D4
  8
0
 10
6.453689861387419
 20
-10.80117948887111
 30
0.0
 11
6.453689861387419
 21
-13.3824164581563
 31
0.0
  0
LINE
  5
2D5
  8
0
 10
6.421107886415465
 20
-10.74664886107018
 30
0.0
 11
6.453689861387419
 21
-10.80117948887111
 31
0.0
  0
LINE
  5
2D6
  8
0
 10
5.862434029133953
 20
-13.3824164581563
 30
0.0
 11
6.453689861387419
 21
-13.3824164581563
 31
0.0
  0
LINE
  5
2D7
  8
0
 10
5.862434029133953
 20
-10.80117948887111
 30
0.0
 11
6.453689861387419
 21
-10.80117948887111
 31
0.0
  0
LINE
  5
2D8
  8
0
 10
5.862434029133953
 20
-10.74664886107018
 30
0.0
 11
6.421107886415465
 21
-10.74664886107018
 31
0.0
  0
LINE
  5
2D9
  8
0
 10
-27.18876699383494
 20
-33.61423120403538
 30
0.0
 11
-31.97793923508804
 21
-33.61423120403528
 31
0.0
  0
LINE
  5
2DA
  8
0
 10
-23.58210641708878
 20
-34.90228871695973
 30
0.0
 11
-23.46305024649951
 21
-34.72608169092278
 31
0.0
  0
LINE
  5
2DB
  8
0
 10
-23.58210641708878
 20
-34.90228871695973
 30
0.0
 11
-27.18876699383494
 21
-34.90228871695973
 31
0.0
  0
LINE
  5
2DC
  8
0
 10
-23.46305024649951
 20
-33.61423120403538
 30
0.0
 11
-23.46305024649951
 21
-34.72608169092278
 31
0.0
  0
LINE
  5
2DD
  8
0
 10
-23.58210641708878
 20
-33.61423120403538
 30
0.0
 11
-23.58210641708878
 21
-34.90228871695973
 31
0.0
  0
LINE
  5
2DE
  8
0
 10
-27.18876699383494
 20
-33.61423120403538
 30
0.0
 11
-27.18876699383494
 21
-34.90228871695973
 31
0.0
  0
LINE
  5
2DF
  8
0
 10
-16.36878526359646
 20
-34.90228871695973
 30
0.0
 11
-19.97544584034262
 21
-34.90228871695973
 31
0.0
  0
LINE
  5
2E0
  8
0
 10
-16.36878526359646
 20
-34.90228871695973
 30
0.0
 11
-16.28614612796481
 21
-34.72608169092278
 31
0.0
  0
LINE
  5
2E1
  8
0
 10
-19.97544584034262
 20
-33.61423120403539
 30
0.0
 11
-19.97544584034262
 21
-34.90228871695973
 31
0.0
  0
LINE
  5
2E2
  8
0
 10
-16.36878526359646
 20
-33.61423120403539
 30
0.0
 11
-16.36878526359646
 21
-34.90228871695973
 31
0.0
  0
LINE
  5
2E3
  8
0
 10
-16.28614612796481
 20
-33.61423120403539
 30
0.0
 11
-16.28614612796481
 21
-34.72608169092278
 31
0.0
  0
LINE
  5
2E4
  8
0
 10
-9.15546411010414
 20
-34.90228871695972
 30
0.0
 11
-12.7621246868503
 21
-34.90228871695972
 31
0.0
  0
LINE
  5
2E5
  8
0
 10
-9.15546411010414
 20
-34.90228871695972
 30
0.0
 11
-9.109242009430105
 21
-34.72608169092278
 31
0.0
  0
LINE
  5
2E6
  8
0
 10
-12.7621246868503
 20
-33.61423120403538
 30
0.0
 11
-12.7621246868503
 21
-34.90228871695972
 31
0.0
  0
LINE
  5
2E7
  8
0
 10
-9.15546411010414
 20
-33.61423120403538
 30
0.0
 11
-9.15546411010414
 21
-34.90228871695972
 31
0.0
  0
LINE
  5
2E8
  8
0
 10
-9.109242009430105
 20
-33.61423120403538
 30
0.0
 11
-9.109242009430105
 21
-34.72608169092278
 31
0.0
  0
LINE
  5
2E9
  8
0
 10
-1.942142956611823
 20
-34.90228871695972
 30
0.0
 11
-5.548803533357982
 21
-34.90228871695972
 31
0.0
  0
LINE
  5
2EA
  8
0
 10
-1.942142956611823
 20
-34.90228871695972
 30
0.0
 11
-1.932337890895405
 21
-34.72608169092278
 31
0.0
  0
LINE
  5
2EB
  8
0
 10
-5.548803533357982
 20
-33.61423120403538
 30
0.0
 11
-5.548803533357982
 21
-34.90228871695972
 31
0.0
  0
LINE
  5
2EC
  8
0
 10
-1.942142956611823
 20
-33.61423120403538
 30
0.0
 11
-1.942142956611823
 21
-34.90228871695972
 31
0.0
  0
LINE
  5
2ED
  8
0
 10
-1.932337890895405
 20
-33.61423120403538
 30
0.0
 11
-1.932337890895405
 21
-34.72608169092278
 31
0.0
  0
LINE
  5
2EE
  8
0
 10
6.453689861387421
 20
-34.90228871695972
 30
0.0
 11
1.664517620134337
 21
-34.90228871695972
 31
0.0
  0
LINE
  5
2EF
  8
0
 10
1.664517620134337
 20
-34.90228871695972
 30
0.0
 11
1.656114168371947
 21
-34.72608169092278
 31
0.0
  0
LINE
  5
2F0
  8
0
 10
1.664517620134337
 20
-33.61423120403539
 30
0.0
 11
1.664517620134337
 21
-34.90228871695972
 31
0.0
  0
LINE
  5
2F1
  8
0
 10
1.656114168371947
 20
-33.61423120403539
 30
0.0
 11
1.656114168371947
 21
-34.72608169092278
 31
0.0
  0
LINE
  5
2F2
  8
0
 10
5.862434029133945
 20
-6.674273504076684
 30
0.0
 11
5.832837057027369
 21
-6.640577894752957
 31
0.0
  0
LINE
  5
2F3
  8
0
 10
1.664517620134331
 20
-6.674273504076684
 30
0.0
 11
1.656114168371941
 21
-6.640577894752957
 31
0.0
  0
LINE
  5
2F4
  8
0
 10
1.656114168371941
 20
-6.640577894752957
 30
0.0
 11
5.832837057027369
 21
-6.640577894752957
 31
0.0
  0
LINE
  5
2F5
  8
0
 10
1.664517620134331
 20
-6.674273504076684
 30
0.0
 11
5.862434029133945
 21
-6.674273504076684
 31
0.0
  0
LINE
  5
2F6
  8
0
 10
-1.942142956611827
 20
-6.674273504076684
 30
0.0
 11
-1.932337890895409
 21
-6.640577894752957
 31
0.0
  0
LINE
  5
2F7
  8
0
 10
-5.548803533357984
 20
-6.674273504076684
 30
0.0
 11
-5.520789950162759
 21
-6.640577894752957
 31
0.0
  0
LINE
  5
2F8
  8
0
 10
-5.520789950162759
 20
-6.640577894752957
 30
0.0
 11
-1.932337890895409
 21
-6.640577894752957
 31
0.0
  0
LINE
  5
2F9
  8
0
 10
-5.548803533357984
 20
-6.674273504076684
 30
0.0
 11
-1.942142956611827
 21
-6.674273504076684
 31
0.0
  0
LINE
  5
2FA
  8
0
 10
-9.15546411010414
 20
-6.674273504076684
 30
0.0
 11
-9.109242009430107
 21
-6.640577894752957
 31
0.0
  0
LINE
  5
2FB
  8
0
 10
-12.7621246868503
 20
-6.674273504076684
 30
0.0
 11
-12.69769406869746
 21
-6.640577894752957
 31
0.0
  0
LINE
  5
2FC
  8
0
 10
-12.69769406869746
 20
-6.640577894752957
 30
0.0
 11
-9.109242009430107
 21
-6.640577894752957
 31
0.0
  0
LINE
  5
2FD
  8
0
 10
-12.7621246868503
 20
-6.674273504076684
 30
0.0
 11
-9.15546411010414
 21
-6.674273504076684
 31
0.0
  0
LINE
  5
2FE
  8
0
 10
-16.36878526359645
 20
-6.674273504076684
 30
0.0
 11
-16.28614612796481
 21
-6.640577894752957
 31
0.0
  0
LINE
  5
2FF
  8
0
 10
-19.97544584034262
 20
-6.674273504076684
 30
0.0
 11
-19.87459818723216
 21
-6.640577894752957
 31
0.0
  0
LINE
  5
300
  8
0
 10
-19.87459818723216
 20
-6.640577894752957
 30
0.0
 11
-16.28614612796481
 21
-6.640577894752957
 31
0.0
  0
LINE
  5
301
  8
0
 10
-19.97544584034262
 20
-6.674273504076684
 30
0.0
 11
-16.36878526359645
 21
-6.674273504076684
 31
0.0
  0
LINE
  5
302
  8
0
 10
-23.58210641708877
 20
-6.674273504076684
 30
0.0
 11
-23.46305024649951
 21
-6.640577894752957
 31
0.0
  0
LINE
  5
303
  8
0
 10
-27.18876699383493
 20
-6.674273504076684
 30
0.0
 11
-27.05150230576686
 21
-6.640577894752957
 31
0.0
  0
LINE
  5
304
  8
0
 10
-27.05150230576686
 20
-6.640577894752957
 30
0.0
 11
-23.46305024649951
 21
-6.640577894752957
 31
0.0
  0
LINE
  5
305
  8
0
 10
-27.18876699383493
 20
-6.674273504076684
 30
0.0
 11
-23.58210641708877
 21
-6.674273504076684
 31
0.0
  0
LINE
  5
306
  8
0
 10
1.664517620134331
 20
-7.975036335034339
 30
0.0
 11
1.656114168371941
 21
-7.93477371940678
 31
0.0
  0
LINE
  5
307
  8
0
 10
-1.932337890895409
 20
-7.93477371940678
 30
0.0
 11
1.656114168371941
 21
-7.93477371940678
 31
0.0
  0
LINE
  5
308
  8
0
 10
-1.942142956611827
 20
-7.975036335034339
 30
0.0
 11
-1.932337890895409
 21
-7.93477371940678
 31
0.0
  0
LINE
  5
309
  8
0
 10
-1.942142956611827
 20
-7.975036335034339
 30
0.0
 11
1.664517620134331
 21
-7.975036335034339
 31
0.0
  0
LINE
  5
30A
  8
0
 10
1.656114168371941
 20
-6.640577894752957
 30
0.0
 11
1.656114168371941
 21
-7.93477371940678
 31
0.0
  0
LINE
  5
30B
  8
0
 10
1.664517620134331
 20
-6.674273504076684
 30
0.0
 11
1.664517620134331
 21
-7.975036335034339
 31
0.0
  0
LINE
  5
30C
  8
0
 10
-1.932337890895409
 20
-6.640577894752957
 30
0.0
 11
-1.932337890895409
 21
-7.93477371940678
 31
0.0
  0
LINE
  5
30D
  8
0
 10
-1.942142956611827
 20
-6.674273504076684
 30
0.0
 11
-1.942142956611827
 21
-7.975036335034339
 31
0.0
  0
LINE
  5
30E
  8
0
 10
-9.15546411010414
 20
-7.975036335034349
 30
0.0
 11
-5.548803533357984
 21
-7.975036335034349
 31
0.0
  0
LINE
  5
30F
  8
0
 10
-9.109242009430107
 20
-7.93477371940679
 30
0.0
 11
-5.548803533357984
 21
-7.93477371940679
 31
0.0
  0
LINE
  5
310
  8
0
 10
-9.15546411010414
 20
-7.975036335034349
 30
0.0
 11
-9.109242009430107
 21
-7.93477371940679
 31
0.0
  0
LINE
  5
311
  8
0
 10
-9.15546411010414
 20
-6.674273504076684
 30
0.0
 11
-9.15546411010414
 21
-7.975036335034349
 31
0.0
  0
LINE
  5
312
  8
0
 10
-9.109242009430107
 20
-6.640577894752957
 30
0.0
 11
-9.109242009430107
 21
-7.93477371940679
 31
0.0
  0
LINE
  5
313
  8
0
 10
-16.28614612796481
 20
-7.982338720207984
 30
0.0
 11
-12.7621246868503
 21
-7.982338720207984
 31
0.0
  0
LINE
  5
314
  8
0
 10
-16.36878526359645
 20
-8.02284269008361
 30
0.0
 11
-16.28614612796481
 21
-7.982338720207984
 31
0.0
  0
LINE
  5
315
  8
0
 10
-16.36878526359645
 20
-8.02284269008361
 30
0.0
 11
-12.7621246868503
 21
-8.02284269008361
 31
0.0
  0
LINE
  5
316
  8
0
 10
-16.28614612796481
 20
-6.640577894752957
 30
0.0
 11
-16.28614612796481
 21
-7.982338720207984
 31
0.0
  0
LINE
  5
317
  8
0
 10
-16.36878526359645
 20
-6.674273504076684
 30
0.0
 11
-16.36878526359645
 21
-8.02284269008361
 31
0.0
  0
LINE
  5
318
  8
0
 10
-23.46305024649951
 20
-7.982338720208
 30
0.0
 11
-19.97544584034262
 21
-7.982338720208
 31
0.0
  0
LINE
  5
319
  8
0
 10
-23.58210641708878
 20
-8.022842690083621
 30
0.0
 11
-23.46305024649951
 21
-7.982338720208
 31
0.0
  0
LINE
  5
31A
  8
0
 10
-23.58210641708878
 20
-8.022842690083621
 30
0.0
 11
-19.97544584034262
 21
-8.022842690083621
 31
0.0
  0
LINE
  5
31B
  8
0
 10
-23.46305024649951
 20
-6.640577894752957
 30
0.0
 11
-23.46305024649951
 21
-7.982338720208
 31
0.0
  0
LINE
  5
31C
  8
0
 10
-23.58210641708877
 20
-6.674273504076684
 30
0.0
 11
-23.58210641708878
 21
-8.022842690083621
 31
0.0
  0
LINE
  5
31D
  8
0
 10
-31.22822519442229
 20
-7.982338720208
 30
0.0
 11
-27.18876699383493
 21
-7.982338720208006
 31
0.0
  0
LINE
  5
31E
  8
0
 10
-31.38668340283456
 20
-8.022842690083621
 30
0.0
 11
-31.22822519442229
 21
-7.982338720208
 31
0.0
  0
LINE
  5
31F
  8
0
 10
-31.38668340283456
 20
-8.022842690083621
 30
0.0
 11
-27.18876699383493
 21
-8.022842690083621
 31
0.0
  0
LINE
  5
320
  8
0
 10
-31.97793923508804
 20
-33.61423120403528
 30
0.0
 11
-31.97793923508784
 21
-31.45107524315342
 31
0.0
  0
LINE
  5
321
  8
0
 10
-31.8164960238102
 20
-31.29229194732996
 30
0.0
 11
-31.97793923508784
 21
-31.45107524315342
 31
0.0
  0
LINE
  5
322
  8
0
 10
-31.38668340283436
 20
-31.45107524315352
 30
0.0
 11
-31.97793923508784
 21
-31.45107524315342
 31
0.0
  0
LINE
  5
323
  8
0
 10
-31.38668340283436
 20
-31.29229194733005
 30
0.0
 11
-31.8164960238102
 21
-31.29229194732996
 31
0.0
  0
LINE
  5
324
  8
0
 10
-31.97793923508784
 20
-28.86983827386831
 30
0.0
 11
-31.97793923508784
 21
-26.28860130458309
 31
0.0
  0
LINE
  5
325
  8
0
 10
-31.8164960238102
 20
-26.15588117576527
 30
0.0
 11
-31.97793923508784
 21
-26.28860130458309
 31
0.0
  0
LINE
  5
326
  8
0
 10
-31.38668340283436
 20
-26.15588117576527
 30
0.0
 11
-31.8164960238102
 21
-26.15588117576527
 31
0.0
  0
LINE
  5
327
  8
0
 10
-31.38668340283436
 20
-28.86983827386831
 30
0.0
 11
-31.97793923508784
 21
-28.86983827386831
 31
0.0
  0
LINE
  5
328
  8
0
 10
-31.38668340283436
 20
-26.28860130458309
 30
0.0
 11
-31.97793923508784
 21
-26.28860130458309
 31
0.0
  0
LINE
  5
329
  8
0
 10
-31.97793923508783
 20
-23.70736433529788
 30
0.0
 11
-31.97793923508783
 21
-21.12612736601267
 31
0.0
  0
LINE
  5
32A
  8
0
 10
-31.8164960238102
 20
-21.01947040420047
 30
0.0
 11
-31.97793923508783
 21
-21.12612736601267
 31
0.0
  0
LINE
  5
32B
  8
0
 10
-31.38668340283436
 20
-21.01947040420047
 30
0.0
 11
-31.8164960238102
 21
-21.01947040420047
 31
0.0
  0
LINE
  5
32C
  8
0
 10
-31.38668340283436
 20
-23.70736433529788
 30
0.0
 11
-31.97793923508783
 21
-23.70736433529788
 31
0.0
  0
LINE
  5
32D
  8
0
 10
-31.38668340283436
 20
-21.12612736601267
 30
0.0
 11
-31.97793923508783
 21
-21.12612736601267
 31
0.0
  0
LINE
  5
32E
  8
0
 10
-31.97793923508782
 20
-13.38241645815702
 30
0.0
 11
-31.97793923508782
 21
-10.80117948887181
 31
0.0
  0
LINE
  5
32F
  8
0
 10
-31.81649602381018
 20
-10.74664886107087
 30
0.0
 11
-31.97793923508782
 21
-10.80117948887181
 31
0.0
  0
LINE
  5
330
  8
0
 10
-31.38668340283436
 20
-10.74664886107087
 30
0.0
 11
-31.81649602381018
 21
-10.74664886107087
 31
0.0
  0
LINE
  5
331
  8
0
 10
-31.38668340283435
 20
-13.38241645815702
 30
0.0
 11
-31.97793923508782
 21
-13.38241645815702
 31
0.0
  0
LINE
  5
332
  8
0
 10
-31.38668340283435
 20
-10.80117948887181
 30
0.0
 11
-31.97793923508782
 21
-10.80117948887181
 31
0.0
  0
LINE
  5
333
  8
0
 10
-31.97793923508784
 20
-18.54489039672745
 30
0.0
 11
-31.97793923508783
 21
-15.96365342744223
 31
0.0
  0
LINE
  5
334
  8
0
 10
-31.81649602381019
 20
-15.88305963263566
 30
0.0
 11
-31.97793923508783
 21
-15.96365342744223
 31
0.0
  0
LINE
  5
335
  8
0
 10
-31.38668340283435
 20
-15.88305963263566
 30
0.0
 11
-31.81649602381019
 21
-15.88305963263566
 31
0.0
  0
LINE
  5
336
  8
0
 10
-31.38668340283436
 20
-18.54489039672745
 30
0.0
 11
-31.97793923508784
 21
-18.54489039672745
 31
0.0
  0
LINE
  5
337
  8
0
 10
-31.38668340283435
 20
-15.96365342744223
 30
0.0
 11
-31.97793923508783
 21
-15.96365342744223
 31
0.0
  0
LINE
  5
338
  8
0
 10
5.862434029133957
 20
0.2782192425391362
 30
0.0
 11
5.862434029133957
 21
2.283565166610803
 31
0.0
  0
LINE
  5
339
  8
0
 10
5.862434029133957
 20
2.283565166610803
 30
0.0
 11
5.862434029133957
 21
2.295152429186276
 31
0.0
  0
LINE
  5
33A
  8
0
 10
21.45439410971145
 20
-4.112164878156651
 30
0.0
 11
21.34607984605465
 21
-4.112164878294167
 31
0.0
  0
LINE
  5
33B
  8
0
 10
21.34607984605465
 20
-4.112164878294167
 30
0.0
 11
20.86313828406853
 21
-4.112164878907308
 31
0.0
  0
LINE
  5
33C
  8
0
 10
29.02166054187343
 20
14.04679158229035
 30
0.0
 11
29.0216605408166
 21
13.975875216459
 31
0.0
  0
LINE
  5
33D
  8
0
 10
23.4552408265736
 20
20.19824341736524
 30
0.0
 11
23.33682512700936
 21
20.19824341986834
 31
0.0
  0
LINE
  5
33E
  8
0
 10
23.33682512700936
 20
20.19824341986834
 30
0.0
 11
22.8639849958805
 21
20.19824342986331
 31
0.0
  0
LINE
  5
33F
  8
0
 10
25.62556958926397
 20
-12.17859647683221
 30
0.0
 11
25.59162551347072
 21
-12.21254055302165
 31
0.0
  0
LINE
  5
340
  8
0
 10
25.59162551347072
 20
-12.21254055302165
 30
0.0
 11
23.80035944773961
 21
-14.00380663965994
 31
0.0
  0
LINE
  5
341
  8
0
 10
21.97514930415813
 20
-15.82901680454476
 30
0.0
 11
21.95963467025901
 21
-15.84453143862497
 31
0.0
  0
LINE
  5
342
  8
0
 10
21.95963467025901
 20
-15.84453143862497
 30
0.0
 11
20.14993915851958
 21
-17.65422697148666
 31
0.0
  0
LINE
  5
343
  8
0
 10
18.324729010824
 20
-19.47943714048564
 30
0.0
 11
16.51164839016874
 21
-21.29251778230264
 31
0.0
  0
LINE
  5
344
  8
0
 10
16.51164839016874
 20
-21.29251778230264
 30
0.0
 11
16.49951886107126
 21
-21.30464731154169
 31
0.0
  0
LINE
  5
345
  8
0
 10
14.67430870926147
 20
-23.12985748465483
 30
0.0
 11
12.87965752659342
 21
-24.92450868826957
 31
0.0
  0
LINE
  5
346
  8
0
 10
12.87965752659342
 20
-24.92450868826957
 30
0.0
 11
12.84909855539462
 21
-24.95506765982504
 31
0.0
  0
LINE
  5
347
  8
0
 10
7.92052476628742
 20
-28.605488027625
 30
0.0
 11
7.880537335556342
 21
-28.60548802797816
 31
0.0
  0
LINE
  5
348
  8
0
 10
7.880537335556342
 20
-28.60548802797816
 30
0.0
 11
7.281448028308023
 21
-28.60548803326914
 31
0.0
  0
LINE
  5
349
  8
0
 10
11.31531438848815
 20
-7.265529329043324
 30
0.0
 11
11.31531438848815
 21
-7.228848716800113
 31
0.0
  0
LINE
  5
34A
  8
0
 10
11.31531438848815
 20
-7.228848716800113
 30
0.0
 11
11.31531438848815
 21
-6.67427349738289
 31
0.0
  0
LINE
  5
34B
  8
0
 10
15.34918073862056
 20
-7.265529319994666
 30
0.0
 11
15.34918073862056
 21
-7.228848707797135
 31
0.0
  0
LINE
  5
34C
  8
0
 10
15.34918073862056
 20
-7.228848707797135
 30
0.0
 11
15.34918073862056
 21
-6.6742734890706
 31
0.0
  0
LINE
  5
34D
  8
0
 10
19.3830470787052
 20
-7.265529310946003
 30
0.0
 11
19.3830470787052
 21
-7.228848698794157
 31
0.0
  0
LINE
  5
34E
  8
0
 10
19.3830470787052
 20
-7.228848698794157
 30
0.0
 11
19.3830470787052
 21
-6.674273480758307
 31
0.0
  0
LINE
  5
34F
  8
0
 10
23.41691340874211
 20
-7.265529301897347
 30
0.0
 11
23.41691340874211
 21
-7.228848689791183
 31
0.0
  0
LINE
  5
350
  8
0
 10
23.41691340874211
 20
-7.228848689791183
 30
0.0
 11
23.41691340874211
 21
-6.674273472446019
 31
0.0
  0
LINE
  5
351
  8
0
 10
28.04203555233546
 20
-7.904606026968343
 30
0.0
 11
28.0420355523352
 21
-7.86469898434654
 31
0.0
  0
LINE
  5
352
  8
0
 10
28.0420355523352
 20
-7.86469898434654
 30
0.0
 11
28.04203555232737
 21
-6.674273462915377
 31
0.0
  0
LINE
  5
353
  8
0
 10
7.281448028308023
 20
-26.58855484613289
 30
0.0
 11
7.244687028143583
 21
-26.58855484643466
 31
0.0
  0
LINE
  5
354
  8
0
 10
7.244687028143583
 20
-26.58855484643466
 30
0.0
 11
6.690192197132426
 21
-26.58855485098652
 31
0.0
  0
LINE
  5
355
  8
0
 10
7.281448028308023
 20
-22.55468847186041
 30
0.0
 11
7.244687028143583
 21
-22.5546884721164
 31
0.0
  0
LINE
  5
356
  8
0
 10
7.244687028143583
 20
-22.5546884721164
 30
0.0
 11
6.690192197132426
 21
-22.55468847597766
 31
0.0
  0
LINE
  5
357
  8
0
 10
7.281448028308023
 20
-18.52082209758791
 30
0.0
 11
7.244687028143583
 21
-18.52082209779812
 31
0.0
  0
LINE
  5
358
  8
0
 10
7.244687028143583
 20
-18.52082209779812
 30
0.0
 11
6.690192197132426
 21
-18.52082210096881
 31
0.0
  0
LINE
  5
359
  8
0
 10
7.281448028308023
 20
-14.48695572331543
 30
0.0
 11
7.244687028143582
 21
-14.48695572347985
 31
0.0
  0
LINE
  5
35A
  8
0
 10
7.244687028143582
 20
-14.48695572347985
 30
0.0
 11
6.690192197132426
 21
-14.48695572595995
 31
0.0
  0
LINE
  5
35B
  8
0
 10
7.281448028308023
 20
-10.45308934904293
 30
0.0
 11
7.244687028143582
 21
-10.45308934916157
 31
0.0
  0
LINE
  5
35C
  8
0
 10
7.244687028143582
 20
-10.45308934916157
 30
0.0
 11
6.690192197132426
 21
-10.4530893509511
 31
0.0
  0
LINE
  5
35D
  8
0
 10
5.862434029133953
 20
15.56737837259998
 30
0.0
 11
5.876649688685338
 21
15.56737837259985
 31
0.0
  0
LINE
  5
35E
  8
0
 10
5.876649688685906
 20
21.61817793254334
 30
0.0
 11
5.876649688685896
 21
21.50903681367047
 31
0.0
  0
LINE
  5
35F
  8
0
 10
5.876649688685896
 20
21.50903681367047
 30
0.0
 11
5.876649688685718
 21
19.60124474589538
 31
0.0
  0
LINE
  5
360
  8
0
 10
5.876649688685528
 20
17.58431155924755
 30
0.0
 11
5.87664968868552
 21
17.49553574085207
 31
0.0
  0
LINE
  5
361
  8
0
 10
5.87664968868552
 20
17.49553574085207
 30
0.0
 11
5.876649688685338
 21
15.56737837259985
 31
0.0
  0
LINE
  5
362
  8
0
 10
5.876649688686288
 20
25.65204430583964
 30
0.0
 11
5.876649688686276
 21
25.5225378864894
 31
0.0
  0
LINE
  5
363
  8
0
 10
5.876649688686276
 20
25.5225378864894
 30
0.0
 11
5.876649688686097
 21
23.63511111919143
 31
0.0
  0
LINE
  5
364
  8
0
 10
5.876649688686666
 20
29.68591067913647
 30
0.0
 11
5.876649688686652
 21
29.53603895930884
 31
0.0
  0
LINE
  5
365
  8
0
 10
5.876649688686652
 20
29.53603895930884
 30
0.0
 11
5.876649688686476
 21
27.66897749248799
 31
0.0
  0
LINE
  5
366
  8
0
 10
-5.534587873808199
 20
34.31103288469993
 30
0.0
 11
-5.506646059519442
 21
34.31103288469993
 31
0.0
  0
LINE
  5
367
  8
0
 10
-5.506646059519442
 20
34.31103288469993
 30
0.0
 11
-1.927927297060986
 21
34.31103288469993
 31
0.0
  0
LINE
  5
368
  8
0
 10
-12.74790902730262
 20
34.31103288469993
 30
0.0
 11
-12.68355017805631
 21
34.31103288469993
 31
0.0
  0
LINE
  5
369
  8
0
 10
-12.68355017805631
 20
34.31103288469993
 30
0.0
 11
-9.141248450555405
 21
34.31103288469993
 31
0.0
  0
LINE
  5
36A
  8
0
 10
-19.96123018079703
 20
34.31103288469993
 30
0.0
 11
-19.86045429659318
 21
34.31103288469993
 31
0.0
  0
LINE
  5
36B
  8
0
 10
-19.86045429659318
 20
34.31103288469993
 30
0.0
 11
-16.35456960404982
 21
34.31103288469993
 31
0.0
  0
LINE
  5
36C
  8
0
 10
-27.17455133429146
 20
34.31103288469993
 30
0.0
 11
-27.03735841512982
 21
34.31103288469993
 31
0.0
  0
LINE
  5
36D
  8
0
 10
-27.03735841512982
 20
34.31103288469993
 30
0.0
 11
-23.56789075754425
 21
34.31103288469993
 31
0.0
  0
LINE
  5
36E
  8
0
 10
-31.37246774329086
 20
31.70284386578534
 30
0.0
 11
-31.3724677432921
 21
34.13781086151764
 31
0.0
  0
LINE
  5
36F
  8
0
 10
-31.3724677432921
 20
34.13781086151764
 30
0.0
 11
-31.37246774329219
 21
34.3110328847002
 31
0.0
  0
LINE
  5
370
  8
0
 10
-31.37246774328883
 20
27.66897749248821
 30
0.0
 11
-31.37246774328976
 21
29.53603895930906
 31
0.0
  0
LINE
  5
371
  8
0
 10
-31.37246774328976
 20
29.53603895930906
 30
0.0
 11
-31.37246774328984
 21
29.6859106791367
 31
0.0
  0
LINE
  5
372
  8
0
 10
-31.3724677432868
 20
23.63511111919161
 30
0.0
 11
-31.37246774328775
 21
25.52253788648959
 31
0.0
  0
LINE
  5
373
  8
0
 10
-31.37246774328775
 20
25.52253788648959
 30
0.0
 11
-31.37246774328781
 21
25.65204430583984
 31
0.0
  0
LINE
  5
374
  8
0
 10
-31.37246774328478
 20
19.60124474589554
 30
0.0
 11
-31.37246774328573
 21
21.50903681367064
 31
0.0
  0
LINE
  5
375
  8
0
 10
-31.37246774328573
 20
21.50903681367064
 30
0.0
 11
-31.37246774328579
 21
21.61817793254351
 31
0.0
  0
LINE
  5
376
  8
0
 10
-31.37246774328274
 20
15.56737837259998
 30
0.0
 11
-31.37246774328371
 21
17.4955357408522
 31
0.0
  0
LINE
  5
377
  8
0
 10
-31.37246774328371
 20
17.4955357408522
 30
0.0
 11
-31.37246774328376
 21
17.58431155924769
 31
0.0
  0
LINE
  5
378
  8
0
 10
5.862434029133957
 20
-3.755647130755151
 30
0.0
 11
5.862434029133957
 21
-3.736686442614576
 31
0.0
  0
LINE
  5
379
  8
0
 10
5.862434029133957
 20
-3.736686442614576
 30
0.0
 11
5.862434029133957
 21
-1.738713944108009
 31
0.0
  0
LINE
  5
37A
  8
0
 10
5.862434029133957
 20
4.312085615833419
 30
0.0
 11
5.862434029133962
 21
6.29706623942772
 31
0.0
  0
LINE
  5
37B
  8
0
 10
5.862434029133962
 20
6.29706623942772
 30
0.0
 11
5.862434029133962
 21
6.329018802480561
 31
0.0
  0
LINE
  5
37C
  8
0
 10
5.862434029133962
 20
8.345951989127705
 30
0.0
 11
5.862434029133962
 21
10.31056731224464
 31
0.0
  0
LINE
  5
37D
  8
0
 10
5.862434029133962
 20
10.31056731224464
 30
0.0
 11
5.862434029133962
 21
10.36288517577485
 31
0.0
  0
LINE
  5
37E
  8
0
 10
5.862434029133962
 20
12.37981836242199
 30
0.0
 11
5.862434029133957
 21
15.52972076788076
 31
0.0
  0
LINE
  5
37F
  8
0
 10
5.862434029133957
 20
15.52972076788076
 30
0.0
 11
5.862434029133953
 21
15.56737837259998
 31
0.0
  0
LINE
  5
380
  8
0
 10
-31.37246774328236
 20
10.36288517577394
 30
0.0
 11
-31.37246774328236
 21
10.31056731224373
 31
0.0
  0
LINE
  5
381
  8
0
 10
-31.37246774328236
 20
10.31056731224373
 30
0.0
 11
-31.37246774328236
 21
8.345951989126794
 31
0.0
  0
LINE
  5
382
  8
0
 10
-31.37246774328236
 20
6.32901880247965
 30
0.0
 11
-31.37246774328236
 21
6.297066239426816
 31
0.0
  0
LINE
  5
383
  8
0
 10
-31.37246774328236
 20
6.297066239426816
 30
0.0
 11
-31.37246774328237
 21
4.31208561583251
 31
0.0
  0
LINE
  5
384
  8
0
 10
-31.37246774328237
 20
2.295152429185367
 30
0.0
 11
-31.37246774328237
 21
2.283565166609898
 31
0.0
  0
LINE
  5
385
  8
0
 10
-31.37246774328237
 20
2.283565166609898
 30
0.0
 11
-31.37246774328237
 21
0.2782192425382248
 31
0.0
  0
LINE
  5
386
  8
0
 10
-31.37246774328237
 20
-1.738713944108918
 30
0.0
 11
-31.37246774328237
 21
-3.736686442615452
 31
0.0
  0
LINE
  5
387
  8
0
 10
-31.37246774328237
 20
-3.736686442615452
 30
0.0
 11
-31.37246774328237
 21
-3.755647130756061
 31
0.0
  0
LINE
  5
388
  8
0
 10
-27.18876699383492
 20
-5.772580317402293
 30
0.0
 11
-27.05150230576685
 21
-5.772580317402293
 31
0.0
  0
LINE
  5
389
  8
0
 10
-27.05150230576685
 20
-5.772580317402293
 30
0.0
 11
-23.58210641708876
 21
-5.772580317402293
 31
0.0
  0
LINE
  5
38A
  8
0
 10
-19.9754458403426
 20
-5.772580317402293
 30
0.0
 11
-19.87459818723215
 21
-5.772580317402293
 31
0.0
  0
LINE
  5
38B
  8
0
 10
-19.87459818723215
 20
-5.772580317402293
 30
0.0
 11
-16.36878526359645
 21
-5.772580317402293
 31
0.0
  0
LINE
  5
38C
  8
0
 10
-12.7621246868503
 20
-5.772580317402293
 30
0.0
 11
-12.69769406869746
 21
-5.772580317402293
 31
0.0
  0
LINE
  5
38D
  8
0
 10
-12.69769406869746
 20
-5.772580317402293
 30
0.0
 11
-9.155464110104143
 21
-5.772580317402293
 31
0.0
  0
LINE
  5
38E
  8
0
 10
-5.54880353335799
 20
-5.772580317402293
 30
0.0
 11
-5.520789950162765
 21
-5.772580317402293
 31
0.0
  0
LINE
  5
38F
  8
0
 10
-5.520789950162765
 20
-5.772580317402293
 30
0.0
 11
-1.942142956611832
 21
-5.772580317402293
 31
0.0
  0
LINE
  5
390
  8
0
 10
-0.641380125654194
 20
-1.830874769045838
 30
0.0
 11
-0.6381420662416083
 21
-3.782534214396069
 31
0.0
  0
LINE
  5
391
  8
0
 10
-0.0501242934007267
 20
-3.801727543224066
 30
0.0
 11
-0.0501242934007267
 21
-3.782534214396069
 31
0.0
  0
LINE
  5
392
  8
0
 10
-0.0501242934007267
 20
-3.782534214396069
 30
0.0
 11
-0.0501242934007267
 21
-1.830874769045838
 31
0.0
  0
LINE
  5
393
  8
0
 10
-18.67468300938497
 20
-3.801727543224066
 30
0.0
 11
-18.67468300938497
 21
-3.782534214396069
 31
0.0
  0
LINE
  5
394
  8
0
 10
-18.67468300938497
 20
-3.782534214396069
 30
0.0
 11
-18.67468300938497
 21
-1.830874769045838
 31
0.0
  0
LINE
  5
395
  8
0
 10
-19.26593884163844
 20
-1.830874769045838
 30
0.0
 11
-19.16867319196644
 21
-1.830874769045838
 31
0.0
  0
LINE
  5
396
  8
0
 10
-19.16867319196644
 20
-1.830874769045838
 30
0.0
 11
-18.67468300938497
 21
-1.830874769045838
 31
0.0
  0
LINE
  5
397
  8
0
 10
-0.641380125654194
 20
-1.830874769045838
 30
0.0
 11
-0.6381420662416083
 21
-1.830874769045838
 31
0.0
  0
LINE
  5
398
  8
0
 10
-0.6381420662416083
 20
-1.830874769045838
 30
0.0
 11
-0.0501242934007267
 21
-1.830874769045838
 31
0.0
  0
LINE
  5
399
  8
0
 10
31.38668357796825
 20
-11.18954831834924
 30
0.0
 11
31.38668357796879
 21
-13.13980750162095
 31
0.0
  0
LINE
  5
39A
  8
0
 10
31.38668357796879
 20
-13.13980750162095
 30
0.0
 11
31.38668357796881
 21
-13.20648149121124
 31
0.0
  0
LINE
  5
39B
  8
0
 10
14.86777222989152
 20
-25.79122966874075
 30
0.0
 11
14.76513709053679
 21
-25.6885945297322
 31
0.0
  0
LINE
  5
39C
  8
0
 10
14.76513709053679
 20
-25.6885945297322
 30
0.0
 11
14.44969122407927
 21
-25.3731486643387
 31
0.0
  0
LINE
  5
39D
  8
0
 10
20.34340268049307
 20
-20.31559914939981
 30
0.0
 11
20.24076754148536
 21
-20.21296401039127
 31
0.0
  0
LINE
  5
39E
  8
0
 10
20.24076754148536
 20
-20.21296401039127
 30
0.0
 11
19.92532167609439
 21
-19.89751814499775
 31
0.0
  0
LINE
  5
39F
  8
0
 10
18.51819253234967
 20
-22.14080932045638
 30
0.0
 11
18.41555739322627
 21
-22.03817418144783
 31
0.0
  0
LINE
  5
3A0
  8
0
 10
18.41555739322627
 20
-22.03817418144783
 30
0.0
 11
18.10011152747978
 21
-21.72272831605433
 31
0.0
  0
LINE
  5
3A1
  8
0
 10
23.99382297060876
 20
-16.66517881345792
 30
0.0
 11
23.89118783183237
 21
-16.56254367444936
 31
0.0
  0
LINE
  5
3A2
  8
0
 10
23.89118783183237
 20
-16.56254367444936
 30
0.0
 11
23.57574196715245
 21
-16.24709780905587
 31
0.0
  0
LINE
  5
3A3
  8
0
 10
27.64424325249608
 20
-13.01475848574436
 30
0.0
 11
27.54160811395105
 21
-12.91212334673581
 31
0.0
  0
LINE
  5
3A4
  8
0
 10
27.54160811395105
 20
-12.91212334673581
 30
0.0
 11
27.22616224998215
 21
-12.5966774813423
 31
0.0
  0
LINE
  5
3A5
  8
0
 10
30.74760684901573
 20
-11.18954832055722
 30
0.0
 11
30.74760684901571
 21
-11.13305698115381
 31
0.0
  0
LINE
  5
3A6
  8
0
 10
30.74760684901571
 20
-11.13305698115381
 30
0.0
 11
30.74760684901556
 21
-10.59829249222815
 31
0.0
  0
LINE
  5
3A7
  8
0
 10
23.31895094461011
 20
-32.52950694352742
 30
0.0
 11
23.20122331504244
 21
-32.52950694470982
 31
0.0
  0
LINE
  5
3A8
  8
0
 10
23.20122331504244
 20
-32.52950694470982
 30
0.0
 11
21.30201777998926
 21
-32.52950696378448
 31
0.0
  0
LINE
  5
3A9
  8
0
 10
27.35281726631603
 20
-32.5295069030133
 30
0.0
 11
27.21472433679057
 21
-32.52950690440024
 31
0.0
  0
LINE
  5
3AA
  8
0
 10
27.21472433679057
 20
-32.52950690440024
 30
0.0
 11
25.33588410671905
 21
-32.52950692327036
 31
0.0
  0
LINE
  5
3AB
  8
0
 10
15.25121827105509
 20
-32.52950702455567
 30
0.0
 11
15.17422124170655
 21
-32.529507025329
 31
0.0
  0
LINE
  5
3AC
  8
0
 10
15.17422124170655
 20
-32.529507025329
 30
0.0
 11
13.2342850963865
 21
-32.52950704481274
 31
0.0
  0
LINE
  5
3AD
  8
0
 10
19.28508461285647
 20
-32.52950698404155
 30
0.0
 11
19.1877222833478
 21
-32.52950698501941
 31
0.0
  0
LINE
  5
3AE
  8
0
 10
19.1877222833478
 20
-32.52950698501941
 30
0.0
 11
17.26815144321175
 21
-32.52950700429862
 31
0.0
  0
LINE
  5
3AF
  8
0
 10
10.6260960892432
 20
-31.89043033189248
 30
0.0
 11
10.57244936299937
 21
-31.89043033242035
 31
0.0
  0
LINE
  5
3B0
  8
0
 10
10.57244936299937
 20
-31.89043033242035
 30
0.0
 11
10.03484025907284
 21
-31.89043033771035
 31
0.0
  0
LINE
  5
3B1
  8
0
 10
31.38668357797162
 20
-23.29114735552123
 30
0.0
 11
31.38668357797214
 21
-25.18031063760483
 31
0.0
  0
LINE
  5
3B2
  8
0
 10
31.38668357797214
 20
-25.18031063760483
 30
0.0
 11
31.38668357797218
 21
-25.30808052838324
 31
0.0
  0
LINE
  5
3B3
  8
0
 10
31.38668357796937
 20
-15.22341466407324
 30
0.0
 11
31.38668357796991
 21
-17.15330854694891
 31
0.0
  0
LINE
  5
3B4
  8
0
 10
31.38668357796991
 20
-17.15330854694891
 30
0.0
 11
31.38668357796993
 21
-17.24034783693524
 31
0.0
  0
LINE
  5
3B5
  8
0
 10
31.38668357797274
 20
-27.32501370124523
 30
0.0
 11
31.38668357797326
 21
-29.19381168293279
 31
0.0
  0
LINE
  5
3B6
  8
0
 10
31.38668357797326
 20
-29.19381168293279
 30
0.0
 11
31.3866835779733
 21
-29.34194687410723
 31
0.0
  0
LINE
  5
3B7
  8
0
 10
31.38668357797049
 20
-19.25728100979724
 30
0.0
 11
31.38668357797102
 21
-21.16680959227687
 31
0.0
  0
LINE
  5
3B8
  8
0
 10
31.38668357797102
 20
-21.16680959227687
 30
0.0
 11
31.38668357797105
 21
-21.27421418265924
 31
0.0
  0
LINE
  5
3B9
  8
0
 10
15.45733726063131
 20
-3.174586880167826
 30
0.0
 11
16.01514995272816
 21
-3.174586880167471
 31
0.0
  0
LINE
  5
3BA
  8
0
 10
16.01514995272816
 20
-3.174586880167471
 30
0.0
 11
16.09641400001741
 21
-3.17458688016742
 31
0.0
  0
LINE
  5
3BB
  8
0
 10
16.09641400002549
 20
34.07453055180383
 30
0.0
 11
16.01514995273608
 21
34.07453055180378
 31
0.0
  0
LINE
  5
3BC
  8
0
 10
16.01514995273608
 20
34.07453055180378
 30
0.0
 11
15.4573372606381
 21
34.07453055180343
 31
0.0
  0
LINE
  5
3BD
  8
0
 10
14.81826052125029
 20
26.26995356604448
 30
0.0
 11
14.74344933512252
 21
26.26995356604443
 31
0.0
  0
LINE
  5
3BE
  8
0
 10
14.74344933512252
 20
26.26995356604443
 30
0.0
 11
13.36892331532875
 21
26.26995356604356
 31
0.0
  0
LINE
  5
3BF
  8
0
 10
14.81826052124904
 20
19.05663241254589
 30
0.0
 11
14.74344933512132
 21
19.05663241254585
 31
0.0
  0
LINE
  5
3C0
  8
0
 10
14.74344933512132
 20
19.05663241254585
 30
0.0
 11
13.36892331532808
 21
19.05663241254497
 31
0.0
  0
LINE
  5
3C1
  8
0
 10
14.8182605212478
 20
11.84331125905297
 30
0.0
 11
14.7434493351201
 21
11.84331125905292
 31
0.0
  0
LINE
  5
3C2
  8
0
 10
14.7434493351201
 20
11.84331125905292
 30
0.0
 11
13.40272751316673
 21
11.84331125905207
 31
0.0
  0
LINE
  5
3C3
  8
0
 10
14.81826052124656
 20
4.629990105565704
 30
0.0
 11
14.74344933511889
 21
4.629990105565656
 31
0.0
  0
LINE
  5
3C4
  8
0
 10
14.74344933511889
 20
4.629990105565656
 30
0.0
 11
13.40272751316606
 21
4.629990105564807
 31
0.0
  0
LINE
  5
3C5
  8
0
 10
16.73549073940567
 20
4.629990105566941
 30
0.0
 11
16.73549073940566
 21
4.606615226241247
 31
0.0
  0
LINE
  5
3C6
  8
0
 10
16.73549073940566
 20
4.606615226241247
 30
0.0
 11
16.73549073940467
 21
1.02332952882543
 31
0.0
  0
LINE
  5
3C7
  8
0
 10
16.73549073940766
 20
11.8433112590542
 30
0.0
 11
16.73549073940764
 21
11.78351934477094
 31
0.0
  0
LINE
  5
3C8
  8
0
 10
16.73549073940764
 20
11.78351934477094
 30
0.0
 11
16.73549073940666
 21
8.236650682309866
 31
0.0
  0
LINE
  5
3C9
  8
0
 10
16.73549073940965
 20
19.05663241254712
 30
0.0
 11
16.73549073940962
 21
18.96042346330624
 31
0.0
  0
LINE
  5
3CA
  8
0
 10
16.73549073940962
 20
18.96042346330624
 30
0.0
 11
16.73549073940865
 21
15.44997183579995
 31
0.0
  0
LINE
  5
3CB
  8
0
 10
16.73549073941164
 20
26.2699535660457
 30
0.0
 11
16.73549073941161
 21
26.13732758184713
 31
0.0
  0
LINE
  5
3CC
  8
0
 10
16.73549073941161
 20
26.13732758184713
 30
0.0
 11
16.73549073941065
 21
22.6632929892957
 31
0.0
  0
LINE
  5
3CD
  8
0
 10
10.31700233991003
 20
-3.174586880177303
 30
0.0
 11
10.90076642839232
 21
-3.174586880174849
 31
0.0
  0
LINE
  5
3CE
  8
0
 10
10.90076642839232
 20
-3.174586880174849
 30
0.0
 11
10.95607907929744
 21
-3.174586880174616
 31
0.0
  0
LINE
  5
3CF
  8
0
 10
10.95607907914007
 20
34.0745305518043
 30
0.0
 11
10.90076642823497
 21
34.07453055180407
 31
0.0
  0
LINE
  5
3D0
  8
0
 10
10.90076642823497
 20
34.07453055180407
 30
0.0
 11
10.31700233975267
 21
34.07453055180164
 31
0.0
  0
LINE
  5
3D1
  8
0
 10
10.31700233978637
 20
26.26995356605399
 30
0.0
 11
10.26491611946208
 21
26.26995356605377
 31
0.0
  0
LINE
  5
3D2
  8
0
 10
10.26491611946208
 20
26.26995356605377
 30
0.0
 11
9.086669768145336
 21
26.26995356604887
 31
0.0
  0
LINE
  5
3D3
  8
0
 10
10.31700233981666
 20
19.05663241255957
 30
0.0
 11
10.26491611949237
 21
19.05663241255936
 31
0.0
  0
LINE
  5
3D4
  8
0
 10
10.26491611949237
 20
19.05663241255936
 30
0.0
 11
9.086669768175632
 21
19.05663241255444
 31
0.0
  0
LINE
  5
3D5
  8
0
 10
10.31700233984695
 20
11.84331125906516
 30
0.0
 11
10.26491611952266
 21
11.84331125906494
 31
0.0
  0
LINE
  5
3D6
  8
0
 10
10.26491611952266
 20
11.84331125906494
 30
0.0
 11
9.086669768205924
 21
11.84331125906001
 31
0.0
  0
LINE
  5
3D7
  8
0
 10
10.31700233987725
 20
4.629990105570744
 30
0.0
 11
10.26491611955296
 21
4.629990105570526
 31
0.0
  0
LINE
  5
3D8
  8
0
 10
10.26491611955296
 20
4.629990105570526
 30
0.0
 11
9.086669768236217
 21
4.629990105565583
 31
0.0
  0
LINE
  5
3D9
  8
0
 10
11.59515581865206
 20
4.629990105576126
 30
0.0
 11
11.59515581865216
 21
4.606615226246812
 31
0.0
  0
LINE
  5
3DA
  8
0
 10
11.59515581865216
 20
4.606615226246812
 30
0.0
 11
11.59515581866721
 21
1.023329528828935
 31
0.0
  0
LINE
  5
3DB
  8
0
 10
11.59515581862176
 20
11.84331125907053
 30
0.0
 11
11.59515581862201
 21
11.78351934478358
 31
0.0
  0
LINE
  5
3DC
  8
0
 10
11.59515581862201
 20
11.78351934478358
 30
0.0
 11
11.59515581863691
 21
8.236650682323315
 31
0.0
  0
LINE
  5
3DD
  8
0
 10
11.59515581859147
 20
19.05663241256492
 30
0.0
 11
11.59515581859187
 21
18.96042346332033
 31
0.0
  0
LINE
  5
3DE
  8
0
 10
11.59515581859187
 20
18.96042346332033
 30
0.0
 11
11.59515581860662
 21
15.44997183581772
 31
0.0
  0
LINE
  5
3DF
  8
0
 10
11.59515581856118
 20
26.26995356605931
 30
0.0
 11
11.59515581856173
 21
26.13732758185708
 31
0.0
  0
LINE
  5
3E0
  8
0
 10
11.59515581856173
 20
26.13732758185708
 30
0.0
 11
11.59515581857632
 21
22.66329298931212
 31
0.0
  0
LINE
  5
3E1
  8
0
 10
-25.93400546855064
 20
-13.19489536216524
 30
0.0
 11
-26.06538091255334
 21
-13.19489536216524
 31
0.0
  0
LINE
  5
3E2
  8
0
 10
0.4826466105764309
 20
-30.18548598291363
 30
0.0
 11
0.5411315388527299
 21
-13.19489536216524
 31
0.0
  0
LINE
  5
3E3
  8
0
 10
5.862434029133953
 20
-13.3824164581563
 30
0.0
 11
5.862434029133953
 21
-15.88305963263494
 31
0.0
  0
LINE
  5
3E4
  8
0
 10
5.862434029133953
 20
-15.88305963263494
 30
0.0
 11
5.862434029133953
 21
-15.9636534274415
 31
0.0
  0
LINE
  5
3E5
  8
0
 10
5.862434029133953
 20
-18.54489039672671
 30
0.0
 11
5.862434029133953
 21
-21.01947040419972
 31
0.0
  0
LINE
  5
3E6
  8
0
 10
5.862434029133953
 20
-21.01947040419972
 30
0.0
 11
5.862434029133953
 21
-21.12612736601191
 31
0.0
  0
LINE
  5
3E7
  8
0
 10
5.862434029133953
 20
-23.70736433529711
 30
0.0
 11
5.862434029133953
 21
-26.15588117576449
 31
0.0
  0
LINE
  5
3E8
  8
0
 10
5.862434029133953
 20
-26.15588117576449
 30
0.0
 11
5.862434029133953
 21
-26.28860130458231
 31
0.0
  0
LINE
  5
3E9
  8
0
 10
5.862434029133953
 20
-28.86983827386751
 30
0.0
 11
5.862434029133953
 21
-31.29229194732927
 31
0.0
  0
LINE
  5
3EA
  8
0
 10
5.862434029133953
 20
-31.29229194732927
 30
0.0
 11
5.862434029133953
 21
-31.45107524315271
 31
0.0
  0
LINE
  5
3EB
  8
0
 10
-1.932337890895405
 20
-33.61423120403538
 30
0.0
 11
-1.942142956611823
 21
-33.61423120403538
 31
0.0
  0
LINE
  5
3EC
  8
0
 10
-5.548803533357982
 20
-33.61423120403538
 30
0.0
 11
-9.109242009430105
 21
-33.61423120403538
 31
0.0
  0
LINE
  5
3ED
  8
0
 10
-9.109242009430105
 20
-33.61423120403538
 30
0.0
 11
-9.15546411010414
 21
-33.61423120403538
 31
0.0
  0
LINE
  5
3EE
  8
0
 10
-12.7621246868503
 20
-33.61423120403538
 30
0.0
 11
-16.28614612796481
 21
-33.61423120403539
 31
0.0
  0
LINE
  5
3EF
  8
0
 10
-16.28614612796481
 20
-33.61423120403539
 30
0.0
 11
-16.36878526359646
 21
-33.61423120403539
 31
0.0
  0
LINE
  5
3F0
  8
0
 10
-19.97544584034262
 20
-33.61423120403539
 30
0.0
 11
-23.46305024649951
 21
-33.61423120403538
 31
0.0
  0
LINE
  5
3F1
  8
0
 10
-23.46305024649951
 20
-33.61423120403538
 30
0.0
 11
-23.58210641708878
 21
-33.61423120403538
 31
0.0
  0
LINE
  5
3F2
  8
0
 10
5.862434029133953
 20
-10.74664886107018
 30
0.0
 11
5.862434029133953
 21
-10.80117948887111
 31
0.0
  0
LINE
  5
3F3
  8
0
 10
-5.548803533357984
 20
-6.674273504076684
 30
0.0
 11
-5.548803533357984
 21
-7.93477371940679
 31
0.0
  0
LINE
  5
3F4
  8
0
 10
-5.548803533357984
 20
-7.93477371940679
 30
0.0
 11
-5.548803533357984
 21
-7.975036335034349
 31
0.0
  0
LINE
  5
3F5
  8
0
 10
-12.7621246868503
 20
-6.674273504076684
 30
0.0
 11
-12.7621246868503
 21
-7.982338720207984
 31
0.0
  0
LINE
  5
3F6
  8
0
 10
-12.7621246868503
 20
-7.982338720207984
 30
0.0
 11
-12.7621246868503
 21
-8.02284269008361
 31
0.0
  0
LINE
  5
3F7
  8
0
 10
-19.97544584034262
 20
-6.674273504076684
 30
0.0
 11
-19.97544584034262
 21
-7.982338720208
 31
0.0
  0
LINE
  5
3F8
  8
0
 10
-19.97544584034262
 20
-7.982338720208
 30
0.0
 11
-19.97544584034262
 21
-8.022842690083621
 31
0.0
  0
LINE
  5
3F9
  8
0
 10
-27.18876699383493
 20
-6.674273504076684
 30
0.0
 11
-27.18876699383493
 21
-7.982338720208006
 31
0.0
  0
LINE
  5
3FA
  8
0
 10
-27.18876699383493
 20
-7.982338720208006
 30
0.0
 11
-27.18876699383493
 21
-8.022842690083621
 31
0.0
  0
LINE
  5
3FB
  8
0
 10
-31.38668340283436
 20
-31.45107524315352
 30
0.0
 11
-31.38668340283436
 21
-31.29229194733005
 31
0.0
  0
LINE
  5
3FC
  8
0
 10
-31.38668340283436
 20
-31.29229194733005
 30
0.0
 11
-31.38668340283436
 21
-28.86983827386831
 31
0.0
  0
LINE
  5
3FD
  8
0
 10
-31.38668340283436
 20
-26.28860130458309
 30
0.0
 11
-31.38668340283436
 21
-26.15588117576527
 31
0.0
  0
LINE
  5
3FE
  8
0
 10
-31.38668340283436
 20
-26.15588117576527
 30
0.0
 11
-31.38668340283436
 21
-23.70736433529788
 31
0.0
  0
LINE
  5
3FF
  8
0
 10
-31.38668340283436
 20
-21.12612736601267
 30
0.0
 11
-31.38668340283436
 21
-21.01947040420047
 31
0.0
  0
LINE
  5
400
  8
0
 10
-31.38668340283436
 20
-21.01947040420047
 30
0.0
 11
-31.38668340283436
 21
-18.54489039672745
 31
0.0
  0
LINE
  5
401
  8
0
 10
-31.38668340283435
 20
-15.96365342744223
 30
0.0
 11
-31.38668340283435
 21
-15.88305963263566
 31
0.0
  0
LINE
  5
402
  8
0
 10
-31.38668340283435
 20
-15.88305963263566
 30
0.0
 11
-31.38668340283435
 21
-13.38241645815702
 31
0.0
  0
LINE
  5
403
  8
0
 10
-31.38668340283435
 20
-10.80117948887181
 30
0.0
 11
-31.38668340283436
 21
-10.74664886107087
 31
0.0
  0
LINE
  5
404
  8
0
 10
-31.38668340283436
 20
-10.74664886107087
 30
0.0
 11
-31.38668340283456
 21
-8.022842690083621
 31
0.0
  0
LINE
  5
405
  8
0
 10
0.5411315388527299
 20
-13.19489536216524
 30
0.0
 11
0.5381818539134046
 21
-13.19489536216524
 31
0.0
  0
LINE
  5
406
  8
0
 10
0.5381818539134046
 20
-13.19489536216524
 30
0.0
 11
-25.93400546855064
 21
-13.19489536216524
 31
0.0
  0
LINE
  5
407
  8
0
 10
1.664517620134337
 20
-33.61423120403539
 30
0.0
 11
1.656114168371947
 21
-33.61423120403539
 31
0.0
  0
LINE
  5
408
  8
0
 10
1.656114168371947
 20
-33.61423120403539
 30
0.0
 11
-1.932337890895405
 21
-33.61423120403538
 31
0.0
  0
LINE
  5
409
  8
0
 10
29.02166051250291
 20
12.07593880278802
 30
0.0
 11
29.0216605408166
 21
13.975875216459
 31
0.0
  0
LINE
  5
40A
  8
0
 10
23.45524085594348
 20
22.16909620025466
 30
0.0
 11
23.4552408265736
 21
20.19824341736524
 31
0.0
  0
LINE
  5
40B
  8
0
 10
5.862434029133945
 20
-6.674273504076684
 30
0.0
 11
5.862434029133953
 21
-10.74664886107018
 31
0.0
  0
ENDSEC
  0
EOF
