<?xml version="1.0" encoding="UTF-8"?>
<svg id="a" data-name="Camada 1" xmlns="http://www.w3.org/2000/svg" viewBox="0 0 1701.79 1701.79">
  <defs>
    <style>
      .b {
        fill: none;
      }

      .b, .c {
        stroke: #000;
        stroke-miterlimit: 10;
      }

      .c {
        fill: #fff;
      }
    </style>
  </defs>
  <rect class="b" x=".5" y=".5" width="1700.79" height="1700.79"/>
  <path class="c" d="M63.16,527.3v-76.41h892.57v76.41h14.17v48.35h-14.17v48.35h14.17v48.35h-14.17v48.35h14.17v48.35h-14.17v48.35h14.17v48.35h-14.17v48.35h14.17v48.35h-114.8v14.17h-86.46v-14.17h-86.46v14.17h-86.46v-14.17h-86.46v14.17h-86.46v-14.17h-86.46v14.17h-86.46v-14.17h-86.46v14.17H48.98v-62.52h14.17v-48.35h-14.17v-48.35h14.17v-48.35h-14.17v-48.35h14.17v-48.35h-14.17v-48.35h14.17v-48.35h-14.17v-48.35h14.17ZM353.37,867.95v47.24h14.17v-47.24h-14.17ZM799.83,867.95v47.24h14.17v-47.24h-14.17ZM502.19,867.95v47.24h14.17v-47.24h-14.17Z"/>
  <polygon class="c" points="965.73 450.89 73.16 450.89 58.99 450.89 58.99 402.55 73.16 402.55 73.16 354.2 58.99 354.2 58.99 305.85 73.16 305.85 73.16 257.5 58.99 257.5 58.99 209.15 73.16 209.15 73.16 160.8 58.99 160.8 58.99 112.45 73.16 112.45 73.16 49.93 58.99 49.93 58.99 35.76 173.79 35.76 173.79 49.93 260.25 49.93 260.25 35.76 346.7 35.76 346.7 49.93 433.16 49.93 433.16 35.76 519.62 35.76 519.62 49.93 606.07 49.93 606.07 35.76 692.53 35.76 692.53 49.93 778.99 49.93 778.99 35.76 865.44 35.76 865.44 49.93 966.07 49.93 966.07 112.45 980.25 112.45 980.25 160.8 966.07 160.8 966.07 209.15 980.25 209.15 980.25 257.5 966.07 257.5 966.07 305.85 980.25 305.85 980.25 354.2 966.07 354.2 966.07 402.55 980.25 402.55 980.25 450.89 965.73 450.89"/>
  <polygon class="c" points="1424.78 1597.15 1424.78 1582.98 1376.43 1582.98 1376.43 1597.15 1328.08 1597.15 1328.08 1582.98 1279.73 1582.98 1279.73 1597.15 1231.38 1597.15 1231.38 1582.98 1183.04 1582.98 1183.04 1597.15 1120.51 1597.15 1120.51 1567.66 1106.34 1567.66 1106.34 1552.34 1120.51 1552.34 1120.51 1503.09 1168.42 1455.18 1178.44 1465.21 1222.19 1421.45 1212.17 1411.43 1255.92 1367.68 1265.95 1377.7 1309.7 1333.95 1299.68 1323.93 1343.43 1280.17 1353.45 1290.19 1397.2 1246.44 1387.18 1236.42 1430.93 1192.67 1440.96 1202.69 1484.71 1158.94 1474.69 1148.91 1518.44 1105.16 1528.46 1115.18 1572.21 1071.43 1587.53 1071.43 1587.53 1057.26 1602.85 1057.26 1602.85 1071.43 1618.17 1071.43 1618.17 1119.78 1632.35 1119.78 1632.35 1168.13 1618.17 1168.13 1618.17 1216.48 1632.35 1216.48 1632.35 1264.83 1618.17 1264.83 1618.17 1313.17 1632.35 1313.17 1632.35 1361.52 1618.17 1361.52 1618.17 1409.87 1632.35 1409.87 1632.35 1458.22 1618.17 1458.22 1618.17 1506.57 1632.35 1506.57 1632.35 1582.98 1569.83 1582.98 1569.83 1597.15 1521.48 1597.15 1521.48 1582.98 1473.13 1582.98 1473.13 1597.15 1424.78 1597.15"/>
  <polygon class="c" points="1235.92 1347.68 1245.94 1357.7 1202.19 1401.45 1192.17 1391.43 1148.42 1435.18 1158.44 1445.21 1114.69 1488.96 1104.66 1478.94 1060.91 1522.69 1045.59 1522.69 1045.59 1536.86 1030.27 1536.86 1030.27 1522.69 1014.95 1522.69 1014.95 1474.34 1000.78 1474.34 1000.78 1425.99 1014.95 1425.99 1014.95 1377.64 1000.78 1377.64 1000.78 1329.29 1014.95 1329.29 1014.95 1280.95 1000.78 1280.95 1000.78 1232.6 1014.95 1232.6 1014.95 1184.25 1000.78 1184.25 1000.78 1135.9 1014.95 1135.9 1014.95 1087.55 1000.78 1087.55 1000.78 1011.14 1063.3 1011.14 1063.3 996.97 1111.65 996.97 1111.65 1011.14 1160 1011.14 1160 996.97 1208.35 996.97 1208.35 1011.14 1256.7 1011.14 1256.7 996.97 1305.04 996.97 1305.04 1011.14 1353.39 1011.14 1353.39 996.97 1401.74 996.97 1401.74 1011.14 1450.09 1011.14 1450.09 996.97 1512.61 996.97 1512.61 1026.46 1526.79 1026.46 1526.79 1041.78 1512.61 1041.78 1512.61 1091.03 1464.71 1138.94 1454.69 1128.91 1410.93 1172.67 1420.95 1182.69 1377.2 1226.44 1367.18 1216.42 1323.43 1260.17 1333.45 1270.19 1289.7 1313.95 1279.67 1303.92 1235.92 1347.68"/>
  <path class="c" d="M68.83,1343.4v-61.88h-14.17v-61.88h14.17v-61.88h-14.17v-61.88h14.17v-66.6h100.63v-32.33h86.46v32.33h86.46v-32.33h86.46v32.33h86.46v-32.33h86.46v31.18h86.46v-31.18h86.46v31.18h86.46v-31.18h100.63v98.93h14.17v61.88h-14.17v61.88h14.17v61.88h-14.17v61.88h14.17v61.88h-14.17v61.88h14.17v61.88h-14.17v61.88h14.17v82.73h-114.8v-30.88h-86.46v30.88h-86.46v-30.88h-86.46v30.88h-86.46v-30.88h-86.46v30.88h-86.46v-30.88h-86.46v30.88h-86.46v-30.88H54.66v-51.85h14.17v-61.88h-14.17v-61.88h14.17v-61.88h-14.17v-61.88h14.17ZM834.18,1153.28H196.39l-1.34,410.96h637.8l1.34-410.96Z"/>
  <polygon class="c" points="1296.73 940.51 1296.73 926.33 1281.41 926.33 1281.41 940.51 1266.09 940.51 1266.09 825.7 1232.16 825.7 1232.16 739.25 1266.09 739.25 1266.09 652.79 1232.16 652.79 1232.16 566.33 1266.09 566.33 1266.09 479.88 1231.35 479.88 1231.35 393.42 1266.09 393.42 1266.09 306.96 1231.35 306.96 1231.35 220.51 1266.09 220.51 1266.09 134.05 1231.35 134.05 1231.35 19.25 1281.41 19.25 1281.41 33.42 1296.73 33.42 1296.73 19.25 1312.05 19.25 1312.05 134.05 1326.22 134.05 1326.22 220.51 1312.05 220.51 1312.05 306.96 1326.22 306.96 1326.22 393.42 1312.05 393.42 1312.05 479.88 1326.22 479.88 1326.22 566.33 1312.05 566.33 1312.05 652.79 1326.22 652.79 1326.22 739.25 1312.05 739.25 1312.05 825.7 1326.22 825.7 1326.22 940.51 1296.73 940.51"/>
  <polygon class="c" points="1203 393.42 1188.83 393.42 1188.83 479.88 1203 479.88 1203 566.33 1188.83 566.33 1188.83 652.79 1203 652.79 1203 739.25 1188.83 739.25 1188.83 825.7 1203 825.7 1203 940.51 1173.51 940.51 1173.51 926.33 1158.19 926.33 1158.19 825.7 1128.7 825.7 1128.7 739.25 1158.19 739.25 1158.19 652.79 1128.7 652.79 1128.7 566.33 1158.19 566.33 1158.19 479.88 1128.7 479.88 1128.7 393.42 1158.19 393.42 1158.19 306.96 1128.7 306.96 1128.7 220.51 1158.19 220.51 1158.19 134.05 1128.7 134.05 1128.7 19.25 1158.19 19.25 1158.19 33.42 1173.51 33.42 1173.51 19.25 1188.83 19.25 1188.83 134.05 1203 134.05 1203 220.51 1188.83 220.51 1188.83 306.96 1203 306.96 1203 393.42"/>
  <polygon class="c" points="1375.17 798.8 1360.99 798.8 1360.99 751.55 1375.17 751.55 1375.17 440.73 1570.74 440.73 1570.74 636.3 1432.58 774.46 1462.64 804.52 1421.13 846.04 1375.17 846.04 1375.17 798.8"/>
  <polygon class="c" points="1441.52 410.75 1441.52 368.23 1469.15 340.6 1439.09 310.53 1480.6 269.01 1526.56 269.01 1526.56 316.26 1540.74 316.26 1540.74 363.5 1526.56 363.5 1526.56 410.75 1441.52 410.75"/>
  <polygon class="c" points="1480.6 269.01 1439.09 310.53 1393.13 310.53 1393.13 263.29 1378.95 263.29 1378.95 216.04 1393.13 216.04 1393.13 168.8 1478.17 168.8 1478.17 211.32 1450.54 238.95 1480.6 269.01"/>
</svg>